SplineFontDB: 3.0
FontName: Jost-Black
FullName: Jost* 900 Black
FamilyName: Jost* Black
Weight: Black
Copyright: This typeface is licensed under the SIL open font license.
UComments: "2016-6-10: Created with FontForge (http://fontforge.org)"
Version: 003.300
ItalicAngle: 0
UnderlinePosition: -100
UnderlineWidth: 50
Ascent: 800
Descent: 200
InvalidEm: 0
LayerCount: 2
Layer: 0 0 "Back" 1
Layer: 1 0 "Fore" 0
PreferredKerning: 4
XUID: [1021 31 -699969567 16188444]
FSType: 0
OS2Version: 0
OS2_WeightWidthSlopeOnly: 0
OS2_UseTypoMetrics: 0
CreationTime: 1465610489
ModificationTime: 1563288469
PfmFamily: 33
TTFWeight: 900
TTFWidth: 5
LineGap: 100
VLineGap: 0
OS2TypoAscent: 825
OS2TypoAOffset: 0
OS2TypoDescent: -225
OS2TypoDOffset: 0
OS2TypoLinegap: 100
OS2WinAscent: 900
OS2WinAOffset: 0
OS2WinDescent: 300
OS2WinDOffset: 0
HheadAscent: 1030
HheadAOffset: 0
HheadDescent: -350
HheadDOffset: 0
OS2CapHeight: 700
OS2XHeight: 460
OS2Vendor: 'PfEd'
Lookup: 1 0 0 "alt a" { "alt a"  } ['ss01' ('DFLT' <'dflt' > 'latn' <'dflt' > ) ]
Lookup: 1 0 0 "Tabular Numbers lookup" { "Tabular Numbers lookup"  } ['tnum' ('DFLT' <'dflt' > 'grek' <'dflt' > 'latn' <'dflt' > ) ]
Lookup: 258 0 0 "Lets get our kern on" { "kernin like nobodys business" [150,0,0] } ['kern' ('DFLT' <'dflt' > 'latn' <'dflt' > ) ]
MarkAttachClasses: 1
DEI: 91125
KernClass2: 16 14 "kernin like nobodys business"
 43 slash seven V W Wcircumflex uni040E uni0423
 175 quotedbl quotesingle asterisk grave dieresis ordfeminine macron degree acute ordmasculine circumflex breve dotaccent ring tilde quoteleft quoteright quotedblleft quotedblright
 25 nine question F P uni0420
 131 A L backslash Agrave Aacute Acircumflex Atilde Adieresis Aring Amacron Abreve Aogonek Lacute uni013B Lslash uni0410 uni0414 uni041C
 58 three eight B C germandbls uni0411 uni0412 uni0417 uni0421
 29 K X Z uni0416 uni041A uni0425

StartChar: H
Encoding: 72 72 0
GlifName: H_
Width: 780
VWidth: 0
Flags: HMW
LayerCount: 2
Fore
SplineSet
142 265 m 257
 210 460 l 257
 744 460 l 257
 676 265 l 257
 142 265 l 257
690 700 m 257
 904 700 l 257
 664 0 l 257
 450 0 l 257
 690 700 l 257
248 700 m 257
 462 700 l 257
 221 0 l 257
 8 0 l 257
 248 700 l 257
EndSplineSet
EndChar

StartChar: O
Encoding: 79 79 1
GlifName: O_
Width: 790
VWidth: 0
Flags: HMW
LayerCount: 2
Fore
SplineSet
315 350 m 256
 287 277 293 182 390 179 c 256
 489 176 572 264 606 350 c 256
 635 424 629 519 531 521 c 256
 432 523 348 436 315 350 c 256
90 350 m 256
 154 555 356 720 574 720 c 256
 784 720 891 543 831 350 c 256
 767 143 565 -31 343 -30 c 256
 129 -29 30 157 90 350 c 256
EndSplineSet
EndChar

StartChar: I
Encoding: 73 73 2
GlifName: I_
Width: 343
VWidth: 0
Flags: HMW
LayerCount: 2
Fore
SplineSet
248 700 m 257
 466 700 l 257
 226 0 l 257
 8 0 l 257
 248 700 l 257
EndSplineSet
EndChar

StartChar: C
Encoding: 67 67 3
GlifName: C_
Width: 668
VWidth: 0
Flags: HMW
LayerCount: 2
Fore
SplineSet
323 350 m 256
 290 265 329 191 423 188 c 256
 505 186 579 230 646 271 c 257
 580 47 l 257
 512 8 440 -20 361 -20 c 256
 148 -20 27 148 90 350 c 256
 156 563 365 720 589 720 c 256
 662 720 722 695 779 652 c 257
 711 427 l 257
 673 480 625 512 557 512 c 256
 457 511 359 443 323 350 c 256
EndSplineSet
EndChar

StartChar: E
Encoding: 69 69 4
GlifName: E_
Width: 597
VWidth: 0
Flags: HMW
LayerCount: 2
Fore
SplineSet
150 0 m 257
 212 175 l 257
 551 175 l 257
 489 0 l 257
 150 0 l 257
330 525 m 257
 391 700 l 257
 730 700 l 257
 669 525 l 257
 330 525 l 257
244 275 m 257
 304 445 l 257
 624 445 l 257
 564 275 l 257
 244 275 l 257
248 700 m 257
 452 700 l 257
 212 0 l 257
 8 0 l 257
 248 700 l 257
EndSplineSet
EndChar

StartChar: F
Encoding: 70 70 6
GlifName: F_
Width: 550
VWidth: 0
Flags: HMW
LayerCount: 2
Fore
SplineSet
326 515 m 257
 391 700 l 257
 692 700 l 257
 627 515 l 257
 326 515 l 257
234 245 m 257
 294 415 l 257
 586 415 l 257
 526 245 l 257
 234 245 l 257
248 700 m 257
 452 700 l 257
 212 0 l 257
 8 0 l 257
 248 700 l 257
EndSplineSet
EndChar

StartChar: G
Encoding: 71 71 7
GlifName: G_
Width: 788
VWidth: 0
Flags: HMW
LayerCount: 2
Fore
SplineSet
427 240 m 257
 484 399 l 257
 834 399 l 257
 778 176 627 -30 363 -30 c 256
 147 -30 28 152 90 350 c 256
 157 563 369 720 593 720 c 256
 719 720 805 650 860 541 c 257
 642 452 l 257
 628 498 607 534 554 534 c 256
 446 534 349 444 312 350 c 256
 279 265 291 156 401 156 c 256
 474 156 521 183 562 240 c 257
 427 240 l 257
EndSplineSet
EndChar

StartChar: T
Encoding: 84 84 8
GlifName: T_
Width: 583
VWidth: 0
Flags: HMW
LayerCount: 2
Fore
SplineSet
114 505 m 257
 182 700 l 257
 772 700 l 257
 704 505 l 257
 517 505 l 257
 344 0 l 257
 130 0 l 257
 303 505 l 257
 114 505 l 257
EndSplineSet
EndChar

StartChar: L
Encoding: 76 76 9
GlifName: L_
Width: 541
VWidth: 0
Flags: HMW
LayerCount: 2
Fore
SplineSet
248 700 m 257
 462 700 l 257
 285 185 l 257
 554 185 l 257
 489 0 l 257
 8 0 l 257
 248 700 l 257
EndSplineSet
EndChar

StartChar: D
Encoding: 68 68 10
GlifName: D_
Width: 719
VWidth: 0
Flags: HMW
LayerCount: 2
Fore
SplineSet
248 700 m 257
 470 700 l 257
 230 0 l 257
 8 0 l 257
 248 700 l 257
282 0 m 258
 150 0 l 257
 217 190 l 257
 314 190 l 258
 418 190 500 253 538 350 c 256
 573 439 545 511 446 511 c 258
 324 511 l 257
 391 700 l 257
 497 700 l 258
 702 700 823 552 760 350 c 256
 695 139 500 0 282 0 c 258
EndSplineSet
EndChar

StartChar: Q
Encoding: 81 81 11
GlifName: Q_
Width: 854
VWidth: 0
Flags: HMW
LayerCount: 2
Fore
SplineSet
315 350 m 256
 283 267 300 161 407 159 c 256
 505 157 589 234 624 320 c 256
 657 403 646 518 535 521 c 256
 436 523 349 437 315 350 c 256
90 350 m 256
 154 556 361 721 579 720 c 256
 789 719 890 541 831 350 c 256
 767 144 570 -31 348 -30 c 256
 134 -29 30 156 90 350 c 256
378 300 m 257
 566 300 l 257
 796 -20 l 257
 598 -20 l 257
 378 300 l 257
EndSplineSet
EndChar

StartChar: A
Encoding: 65 65 12
GlifName: A_
Width: 733
VWidth: 0
Flags: HMW
LayerCount: 2
Fore
SplineSet
167 90 m 257
 223 248 l 257
 578 248 l 257
 522 90 l 257
 167 90 l 257
441 382 m 257
 301 188 l 257
 301 137 l 257
 184 0 l 257
 -68 0 l 257
 566 755 l 257
 682 0 l 257
 452 0 l 257
 434 133 l 257
 459 189 l 257
 441 382 l 257
EndSplineSet
EndChar

StartChar: R
Encoding: 82 82 13
GlifName: R_
Width: 658
VWidth: 0
Flags: HMW
LayerCount: 2
Fore
SplineSet
310 300 m 257
 515 300 l 257
 600 0 l 257
 367 0 l 257
 310 300 l 257
248 700 m 257
 462 700 l 257
 221 0 l 257
 8 0 l 257
 248 700 l 257
320 514 m 257
 382 700 l 257
 516 700 l 258
 659 700 760 614 725 460 c 256
 689.168 302.339 530 220 376 220 c 258
 216 220 l 257
 275 385 l 257
 391 385 l 258
 433 385 485 407 501 451 c 256
 515 490 492 513 455 514 c 258
 320 514 l 257
EndSplineSet
EndChar

StartChar: V
Encoding: 86 86 14
GlifName: V_
Width: 733
VWidth: 0
Flags: HMW
LayerCount: 2
Fore
SplineSet
440 366 m 257
 669 699 l 257
 928 699 l 257
 320 -55 l 257
 179 700 l 257
 420 700 l 257
 440 366 l 257
EndSplineSet
EndChar

StartChar: M
Encoding: 77 77 15
GlifName: M_
Width: 884
VWidth: 0
Flags: HMW
LayerCount: 2
Fore
SplineSet
332 285 m 257
 199 0 l 257
 -32 0 l 257
 343 735 l 257
 503 360 l 257
 935 746 l 257
 803 0 l 257
 578 0 l 257
 641 271 l 257
 416 62 l 257
 332 285 l 257
EndSplineSet
EndChar

StartChar: W
Encoding: 87 87 16
GlifName: W_
Width: 1044
VWidth: 0
Flags: HMW
LayerCount: 2
Fore
SplineSet
773 356 m 257
 971 700 l 257
 1233 699 l 257
 699 -48 l 257
 587 299 l 257
 254 -51 l 257
 183 700 l 257
 431 700 l 257
 414 362 l 257
 712 741 l 257
 773 356 l 257
EndSplineSet
EndChar

StartChar: N
Encoding: 78 78 17
GlifName: N_
Width: 757
VWidth: 0
Flags: HMW
LayerCount: 2
Fore
SplineSet
676 700 m 257
 880 700 l 257
 630 -31 l 257
 322 320 l 257
 212 0 l 257
 8 0 l 257
 258 731 l 257
 565 380 l 257
 676 700 l 257
EndSplineSet
EndChar

StartChar: a
Encoding: 97 97 18
GlifName: a
Width: 545
VWidth: 0
Flags: HMW
LayerCount: 2
Fore
SplineSet
196 137 m 260
 193 119 207 109 222 107 c 260
 274 102 309 152 334 189 c 261
 332 128 l 261
 295 47 227 -8 135 -9 c 260
 52 -10 -19 42 6 131 c 260
 34 228 143 273 236 274 c 260
 290 275 338 262 382 231 c 261
 357 148 l 261
 332 168 308 181 274 180 c 260
 243 179 200 166 196 137 c 260
167 297 m 261
 145 426 l 261
 218 452 294 475 372 475 c 260
 465 475 582 435 555 320 c 261
 447 0 l 261
 266 0 l 261
 365 273 l 261
 373 307 360 326 325 331 c 260
 273 338 215 314 167 297 c 261
EndSplineSet
Substitution2: "alt a" a.alt
EndChar

StartChar: X
Encoding: 88 88 19
GlifName: X_
Width: 719
VWidth: 0
Flags: HMW
LayerCount: 2
Fore
SplineSet
621 699 m 257
 896 699 l 257
 566 345 l 257
 682 0 l 257
 429 0 l 257
 392 190 l 257
 232 0 l 257
 -43 0 l 257
 309 363 l 257
 208 700 l 257
 462 700 l 257
 488 537 l 257
 621 699 l 257
EndSplineSet
EndChar

StartChar: K
Encoding: 75 75 20
GlifName: K_
Width: 734
VWidth: 0
Flags: HMW
LayerCount: 2
Fore
SplineSet
248 700 m 257
 471 700 l 257
 231 0 l 257
 8 0 l 257
 248 700 l 257
660 699 m 257
 921 699 l 257
 540 363 l 257
 681 0 l 257
 440 0 l 257
 294 375 l 257
 660 699 l 257
EndSplineSet
EndChar

StartChar: Y
Encoding: 89 89 21
GlifName: Y_
Width: 677
VWidth: 0
Flags: HMW
LayerCount: 2
Fore
SplineSet
620 699 m 257
 876 699 l 257
 485 265 l 257
 394 0 l 257
 175 0 l 257
 274 285 l 257
 183 700 l 257
 418 700 l 257
 442 481 l 257
 620 699 l 257
EndSplineSet
EndChar

StartChar: B
Encoding: 66 66 22
GlifName: B_
Width: 684
VWidth: 0
Flags: HMW
LayerCount: 2
Fore
SplineSet
274 335 m 257
 307 425 l 257
 405 425 l 258
 442 425 489 446 503 485 c 256
 515 520 492 534 461 535 c 258
 408 535 l 257
 275 164 l 257
 335 164 l 258
 378 166 439 179 454 228 c 256
 467 271 427 277 394 279 c 258
 255 280 l 257
 298 400 l 257
 442 400 l 258
 562 400 701 334 661 191 c 256
 620 44 466 -1.66552e-14 330 0 c 258
 8 0 l 257
 248 700 l 257
 525 700 l 258
 630 700 774 653 736 519 c 256
 699 387 548 335 425 335 c 258
 274 335 l 257
EndSplineSet
EndChar

StartChar: Z
Encoding: 90 90 23
GlifName: Z_
Width: 625
VWidth: 0
Flags: HMW
LayerCount: 2
Fore
SplineSet
180 505 m 257
 248 700 l 257
 810 699 l 257
 344 186 l 257
 587 185 l 257
 522 0 l 257
 -59 0 l 257
 398 504 l 257
 180 505 l 257
EndSplineSet
EndChar

StartChar: o
Encoding: 111 111 24
GlifName: o
Width: 579
VWidth: 0
Flags: HMW
LayerCount: 2
Fore
SplineSet
62 231 m 256
 100 374 244 471 389 471 c 256
 527 471 628 369 591 229 c 256
 553 86 409 -10 264 -10 c 256
 127 -10 25 91 62 231 c 256
255 229 m 256
 243 195 248 149 292 146 c 256
 338 143 384 191 398 231 c 256
 410 265 405 312 361 315 c 256
 315 318 269 269 255 229 c 256
EndSplineSet
EndChar

StartChar: J
Encoding: 74 74 25
GlifName: J_
Width: 362
VWidth: 0
Flags: HMW
LayerCount: 2
Fore
SplineSet
-149 -40 m 257
 -130 -54 -108 -72 -83 -71 c 256
 -41 -70 -5 -30 8 6 c 258
 248 700 l 257
 485 700 l 257
 230 -51 l 258
 183 -188 46 -250 -93 -250 c 256
 -170 -250 -239 -224 -305 -186 c 257
 -149 -40 l 257
EndSplineSet
EndChar

StartChar: t
Encoding: 116 116 26
GlifName: t
Width: 343
VWidth: 0
Flags: HMW
LayerCount: 2
Fore
SplineSet
105 460 m 257
 446 460 l 257
 391 305 l 257
 50 305 l 257
 105 460 l 257
239 620 m 257
 420 620 l 257
 207 0 l 257
 26 0 l 257
 239 620 l 257
EndSplineSet
EndChar

StartChar: d
Encoding: 100 100 27
GlifName: d
Width: 606
VWidth: 0
Flags: HMW
LayerCount: 2
Fore
SplineSet
586 780 m 257
 776 780 l 257
 508 0 l 257
 318 0 l 257
 586 780 l 257
49 231 m 256
 84 348 192 470 323 470 c 256
 455 470 475 332 444 229 c 256
 409 114 313 -9 183 -9 c 256
 51 -9 17 124 49 231 c 256
247 229 m 256
 234 195 239 144 284 141 c 256
 332 138 381 190 397 231 c 256
 410 265 408 316 363 319 c 256
 315 322 263 270 247 229 c 256
EndSplineSet
EndChar

StartChar: l
Encoding: 108 108 28
GlifName: l
Width: 277
VWidth: 0
Flags: HMW
LayerCount: 2
Fore
SplineSet
256 780 m 257
 447 780 l 257
 179 0 l 257
 -11 0 l 257
 256 780 l 257
EndSplineSet
EndChar

StartChar: i
Encoding: 105 105 29
GlifName: i
Width: 269
VWidth: 0
Flags: HMW
LayerCount: 2
Fore
SplineSet
185 621 m 256
 185 680 233 719 293 719 c 256
 353 719 401 680 401 621 c 256
 401 562 353 523 293 523 c 256
 233 523 185 562 185 621 c 256
146 460 m 257
 329 460 l 257
 171 0 l 257
 -12 0 l 257
 146 460 l 257
EndSplineSet
EndChar

StartChar: r
Encoding: 114 114 30
GlifName: r
Width: 436
VWidth: 0
Flags: HMW
LayerCount: 2
Fore
SplineSet
333 460 m 257
 174 0 l 257
 -11 0 l 257
 147 460 l 257
 333 460 l 257
402 263 m 257
 390 276 379 289 359 290 c 256
 307 292 254 232 241 194 c 257
 250 282 l 257
 284 365 379 472 453 472 c 256
 487 472 506 451 526 426 c 257
 402 263 l 257
EndSplineSet
EndChar

StartChar: c
Encoding: 99 99 31
GlifName: c
Width: 458
VWidth: 0
Flags: HMW
LayerCount: 2
Fore
SplineSet
240.799804688 229 m 256
 223.799804688 181 248.799804688 143 298.799804688 140 c 256
 349.799804688 137 396.799804688 169 435.799804688 196 c 257
 390.799804688 21 l 257
 346.799804688 2 301.799804688 -10 253.799804688 -10 c 256
 115.799804688 -10 9.7998046875 88 47.7998046875 231 c 256
 86.7998046875 377 233.799804688 470 380.799804688 470 c 256
 427.799804688 470 469.799804688 458 512.799804688 440 c 257
 465.799804688 264 l 257
 442.799804688 297 416.799804688 322 373.799804688 322 c 256
 310.799804688 322 258.799804688 280 240.799804688 229 c 256
EndSplineSet
EndChar

StartChar: b
Encoding: 98 98 32
GlifName: b
Width: 606
VWidth: 0
Flags: HMW
LayerCount: 2
Fore
SplineSet
447 780 m 257
 179 0 l 257
 -11 0 l 257
 256 780 l 257
 447 780 l 257
606 229 m 256
 571 112 464 -10 333 -10 c 256
 201 -10 180 128 211 231 c 256
 246 346 343 469 473 469 c 256
 605 469 638 336 606 229 c 256
409 231 m 256
 422 265 416 316 371 319 c 256
 323 322 274 270 258 229 c 256
 245 195 248 144 293 141 c 256
 341 138 393 190 409 231 c 256
EndSplineSet
EndChar

StartChar: p
Encoding: 112 112 33
GlifName: p
Width: 606
VWidth: 0
Flags: HMW
LayerCount: 2
Fore
SplineSet
104 -220 m 257
 -86 -220 l 257
 147 460 l 257
 337 460 l 257
 104 -220 l 257
606 229 m 256
 570 110 464 -21 329 -20 c 256
 190 -19 190 129 221 230 c 256
 256 345 342 478 476 479 c 256
 613 480 638 336 606 229 c 256
409 232 m 256
 422 269 410 305 368 309 c 256
 323 313 272 268 258 228 c 256
 245 191 254 155 296 151 c 256
 341 147 395 192 409 232 c 256
EndSplineSet
EndChar

StartChar: q
Encoding: 113 113 34
GlifName: q
Width: 606
VWidth: 0
Flags: HMW
LayerCount: 2
Fore
SplineSet
243 -220 m 257
 476 460 l 257
 667 460 l 257
 433 -220 l 257
 243 -220 l 257
49 231 m 256
 85 350 191 481 326 480 c 256
 465 479 466 331 435 230 c 256
 400 115 314 -18 180 -19 c 256
 43 -20 17 124 49 231 c 256
247 228 m 256
 234 191 246 155 288 151 c 256
 333 147 383 192 397 232 c 256
 410 269 401 305 359 309 c 256
 314 313 261 268 247 228 c 256
EndSplineSet
EndChar

StartChar: h
Encoding: 104 104 35
GlifName: h
Width: 559
VWidth: 0
Flags: HMW
LayerCount: 2
Fore
SplineSet
447 780 m 257
 179 0 l 257
 -11 0 l 257
 256 780 l 257
 447 780 l 257
372 280 m 258
 380 301 389 336 357 344 c 256
 321 352 291 303 275 280 c 257
 246 282 l 257
 282 380 347 479 463 481 c 256
 572 483 596 400 566 310 c 258
 461 0 l 257
 271 0 l 257
 372 280 l 258
EndSplineSet
EndChar

StartChar: n
Encoding: 110 110 36
GlifName: n
Width: 569
VWidth: 0
Flags: HMW
LayerCount: 2
Fore
SplineSet
337 460 m 257
 179 0 l 257
 -11 0 l 257
 147 460 l 257
 337 460 l 257
372 280 m 258
 380 301 388 336 356 344 c 256
 320 352 291 304 275 281 c 257
 244 272 l 257
 279 370 343 469 459 471 c 256
 567 473 603 392 572 300 c 258
 471 0 l 257
 271 0 l 257
 372 280 l 258
EndSplineSet
EndChar

StartChar: m
Encoding: 109 109 37
GlifName: m
Width: 795
VWidth: 0
Flags: HMW
LayerCount: 2
Fore
SplineSet
344 281 m 258
 349 298 361 336 334 344 c 256
 304 353 276 300 265 281 c 257
 234 272 l 257
 269 367 333 469 446 471 c 256
 550 473 561 394 537 310 c 258
 433 0 l 257
 242 0 l 257
 344 281 l 258
328 460 m 257
 170 0 l 257
 -11 0 l 257
 147 460 l 257
 328 460 l 257
798 300 m 258
 697 0 l 257
 506 0 l 257
 607 280 l 258
 612 297 625 336 598 344 c 256
 568 353 539 300 528 281 c 257
 470 272 l 257
 510 372 592 470 709 471 c 256
 816 472 823 384 798 300 c 258
EndSplineSet
EndChar

StartChar: k
Encoding: 107 107 38
GlifName: k
Width: 620
VWidth: 0
Flags: HMW
LayerCount: 2
Fore
SplineSet
256 780 m 257
 437 780 l 257
 170 0 l 257
 -11 0 l 257
 256 780 l 257
470 459 m 257
 707 459 l 257
 445 262 l 257
 552 0 l 257
 351 0 l 257
 232 280 l 257
 470 459 l 257
EndSplineSet
EndChar

StartChar: u
Encoding: 117 117 39
GlifName: u
Width: 569
VWidth: 0
Flags: HMW
LayerCount: 2
Fore
SplineSet
280 0 m 257
 439 460 l 257
 629 460 l 257
 471 0 l 257
 280 0 l 257
246 180 m 257
 240 158 229 124 261 116 c 256
 297 108 327 156 343 179 c 257
 374 188 l 257
 339 90 274 -9 158 -11 c 256
 50 -13 20 66 46 160 c 257
 147 460 l 257
 347 460 l 257
 246 180 l 257
EndSplineSet
EndChar

StartChar: e
Encoding: 101 101 40
GlifName: e
Width: 573
VWidth: 0
Flags: HMW
LayerCount: 2
Fore
SplineSet
154 191 m 257
 181 283 l 257
 406 283 l 257
 408 311 401 349 365 349 c 256
 310 349 278 290 259 249 c 258
 250 229 l 257
 236 189 228 129 283 122 c 256
 322 117 359 142 387 164 c 257
 556 134 l 257
 485 47 388 -10 273 -10 c 256
 130 -10 24 81 62 230 c 256
 66 247 72 263 79 279 c 256
 133 401 258 470 389 470 c 256
 530 470 618 381 584 239 c 256
 580 223 575 207 570 191 c 257
 154 191 l 257
EndSplineSet
EndChar

StartChar: g
Encoding: 103 103 41
GlifName: g
Width: 597
VWidth: 0
Flags: HMW
LayerCount: 2
Fore
SplineSet
-34 -34 m 257
 140 -36 l 257
 144 -71 148 -93 189 -94 c 256
 251 -96 301 -42 320 11 c 258
 476 460 l 257
 657 460 l 257
 504 9 l 258
 451 -139 334 -243 172 -244 c 256
 34 -245 -43 -173 -34 -34 c 257
53 241 m 256
 88 358 194 470 323 470 c 256
 453 470 480 344 448 239 c 256
 414 125 318 10 190 10 c 256
 61 10 21 133 53 241 c 256
250 238 m 256
 237 201 249 165 291 161 c 256
 336 157 387 202 401 242 c 256
 414 279 405 319 363 319 c 256
 308 319 264 278 250 238 c 256
EndSplineSet
EndChar

StartChar: f
Encoding: 102 102 42
GlifName: f
Width: 356
VWidth: 0
Flags: HMW
LayerCount: 2
Fore
SplineSet
105 460 m 257
 455 460 l 257
 401 305 l 257
 50 305 l 257
 105 460 l 257
489 606 m 257
 481 617 472 630 456 631 c 256
 426 632 397 599 388 574 c 258
 188 0 l 257
 8 0 l 257
 221 631 l 258
 259 732 350 800 460 799 c 256
 515 799 555 776 595 740 c 257
 489 606 l 257
EndSplineSet
EndChar

StartChar: s
Encoding: 115 115 43
GlifName: s
Width: 459
VWidth: 0
Flags: HMW
LayerCount: 2
Fore
SplineSet
87 182 m 257
 124 150 173 102 227 110 c 256
 239 112 262 123 265 136 c 256
 272 169 220 177 200 185 c 256
 136 211 96 265 115 335 c 256
 140 427 236 468 324 469 c 256
 395 470 460 443 522 412 c 257
 442 284 l 257
 411 314 375 346 328 346 c 256
 315 346 288 339 283 325 c 256
 270 291 344 279 363 271 c 256
 424 246 465 197 449 129 c 256
 425 29 334 -22 237 -24 c 256
 149 -26 68 6 -7 49 c 257
 87 182 l 257
EndSplineSet
EndChar

StartChar: y
Encoding: 121 121 44
GlifName: y
Width: 536
VWidth: 0
Flags: HMW
LayerCount: 2
Fore
SplineSet
662 459 m 261
 146 -219 l 261
 -48 -219 l 261
 141 31 l 261
 91 460 l 261
 285 460 l 261
 297 85 l 261
 192 86 l 261
 463 459 l 261
 662 459 l 261
EndSplineSet
EndChar

StartChar: w
Encoding: 119 119 45
GlifName: w
Width: 762
VWidth: 0
Flags: HMW
LayerCount: 2
Fore
SplineSet
92 460 m 257
 276 460 l 257
 285 271 l 257
 493 500 l 257
 539 268 l 257
 684 459 l 257
 888 459 l 257
 473 -29 l 257
 405 206 l 257
 170 -30 l 257
 92 460 l 257
EndSplineSet
EndChar

StartChar: v
Encoding: 118 118 46
GlifName: v
Width: 545
VWidth: 0
Flags: HMW
LayerCount: 2
Fore
SplineSet
105 460 m 257
 299 460 l 257
 315 255 l 257
 463 459 l 257
 666 459 l 257
 222 -70 l 257
 105 460 l 257
EndSplineSet
EndChar

StartChar: x
Encoding: 120 120 47
GlifName: x
Width: 564
VWidth: 0
Flags: HMW
LayerCount: 2
Fore
SplineSet
452 460 m 261
 672 460 l 261
 415 228 l 261
 526 0 l 261
 332 0 l 261
 281 115 l 261
 185 0 l 261
 -44 0 l 261
 220 254 l 261
 121 460 l 261
 324 460 l 261
 358 367 l 261
 452 460 l 261
EndSplineSet
EndChar

StartChar: z
Encoding: 122 122 48
GlifName: z
Width: 526
VWidth: 0
Flags: HMW
LayerCount: 2
Fore
SplineSet
250 286 m 257
 100 286 l 257
 161 459 l 257
 625 459 l 257
 343 174 l 257
 485 174 l 257
 424 0 l 257
 -50 0 l 257
 250 286 l 257
EndSplineSet
EndChar

StartChar: j
Encoding: 106 106 49
GlifName: j
Width: 268
VWidth: 0
Flags: HMW
LayerCount: 2
Fore
SplineSet
185 621 m 256
 185 680 233 719 293 719 c 256
 353 719 401 680 401 621 c 256
 401 562 353 523 293 523 c 256
 233 523 185 562 185 621 c 256
-123 -56 m 257
 -115 -67 -100 -81 -80 -81 c 256
 -51 -81 -29 -47 -21 -24 c 258
 147 460 l 257
 328 460 l 257
 145 -81 l 258
 107 -182 17 -250 -93 -249 c 256
 -148 -249 -189 -226 -229 -190 c 257
 -123 -56 l 257
EndSplineSet
EndChar

StartChar: P
Encoding: 80 80 50
GlifName: P_
Width: 628
VWidth: 0
Flags: HMW
LayerCount: 2
Fore
SplineSet
248 700 m 257
 462 700 l 257
 221 0 l 257
 8 0 l 257
 248 700 l 257
323 526 m 257
 382 700 l 257
 497 700 l 256
 643 696 733 617 706 460 c 256
 678.224 298.487 515 224 358 220 c 256
 216 220 l 257
 278 395 l 257
 394 395 l 258
 436 395 488 417 504 461 c 256
 518 500 495 525 458 526 c 258
 323 526 l 257
EndSplineSet
EndChar

StartChar: U
Encoding: 85 85 51
GlifName: U_
Width: 701
VWidth: 0
Flags: HMW
LayerCount: 2
Fore
SplineSet
243 700 m 257
 457 700 l 257
 299 250 l 258
 287 209 285 159 339 156 c 256
 395 153 440 204 460 251 c 257
 616 700 l 257
 829 700 l 257
 670 230 l 258
 612 68 469 -40 295 -40 c 256
 132 -40 37 69 84 230 c 256
 243 700 l 257
EndSplineSet
EndChar

StartChar: S
Encoding: 83 83 52
GlifName: S_
Width: 632
VWidth: 0
Flags: HMW
LayerCount: 2
Fore
SplineSet
195 266 m 257
 216 212 244 158 310 159 c 256
 339 159 380 171 393 201 c 256
 413 248 335 266 306 280 c 256
 215 324 156 408 186 511 c 256
 226 648 381 721 515 720 c 256
 623 719 697 661 731 561 c 257
 554 475 l 257
 537 509 519 538 476 538 c 256
 452 538 411 526 399 502 c 256
 377 456 486 434 512 423 c 256
 605 383 645 296 616 199 c 256
 572 53 420 -31 273 -30 c 256
 151 -29 55 43 25 161 c 257
 195 266 l 257
EndSplineSet
EndChar

StartChar: at
Encoding: 64 64 53
GlifName: at
Width: 724
VWidth: 0
Flags: HMW
LayerCount: 2
Fore
SplineSet
380 319 m 256
 376 310 363 274 378 266 c 256
 407 251 453 342 461 361 c 256
 465 370 480 406 464 414 c 256
 433 430 388 339 380 319 c 256
237 311 m 256
 262 398 337 533 443 530 c 256
 526 528 535 431 518 369 c 256
 495 281 420 152 316 151 c 256
 224 150 217 242 237 311 c 256
61 320 m 256
 128 534 340 730 573 730 c 256
 769 730 848 557 797 390 c 256
 762 275 668 135 533 140 c 256
 454 143 443 194 445 261 c 257
 444 311 l 257
 529 520 l 257
 661 520 l 257
 579 319 l 258
 575 310 572 302 568 292 c 256
 565 285 557 263 568 257 c 256
 608 236 656 367 665 391 c 256
 701 491 692 609 556 609 c 256
 389 609 248 466 194 320 c 256
 149 199 183 89 326 86 c 256
 389 85 451 106 510 125 c 257
 517 13 l 257
 445 -18 368 -36 289 -35 c 256
 86 -32 4 138 61 320 c 256
EndSplineSet
EndChar

StartChar: period
Encoding: 46 46 54
GlifName: period
Width: 316
VWidth: 0
Flags: HMW
LayerCount: 2
Fore
SplineSet
25 85 m 256
 25 148 73 200 143 200 c 256
 213 200 261 148 261 85 c 256
 261 22 213 -30 143 -30 c 256
 73 -30 25 22 25 85 c 256
EndSplineSet
EndChar

StartChar: comma
Encoding: 44 44 55
GlifName: comma
Width: 313
VWidth: 0
Flags: HMW
LayerCount: 2
Fore
SplineSet
74 108 m 257
 259 72 l 257
 48 -172 l 257
 -97 -145 l 257
 74 108 l 257
EndSplineSet
EndChar

StartChar: colon
Encoding: 58 58 56
GlifName: colon
Width: 316
VWidth: 0
Flags: HMW
LayerCount: 2
Fore
SplineSet
15 85 m 256
 15 148 63 200 133 200 c 256
 203 200 251 148 251 85 c 256
 251 22 203 -30 133 -30 c 256
 63 -30 15 22 15 85 c 256
141 454 m 256
 141 517 189 569 259 569 c 256
 329 569 377 517 377 454 c 256
 377 391 329 339 259 339 c 256
 189 339 141 391 141 454 c 256
EndSplineSet
EndChar

StartChar: semicolon
Encoding: 59 59 57
GlifName: semicolon
Width: 405
VWidth: 0
Flags: HMW
LayerCount: 2
Fore
SplineSet
199 444 m 256
 199 507 247 559 317 559 c 256
 387 559 435 507 435 444 c 256
 435 381 387 329 317 329 c 256
 247 329 199 381 199 444 c 256
107 108 m 257
 291 72 l 257
 81 -172 l 257
 -64 -145 l 257
 107 108 l 257
EndSplineSet
EndChar

StartChar: quotedbl
Encoding: 34 34 58
GlifName: quotedbl
Width: 517
VWidth: 0
Flags: HMW
LayerCount: 2
Fore
SplineSet
262 700 m 257
 461 699 l 257
 250 371 l 257
 121 370 l 257
 262 700 l 257
479 700 m 257
 678 699 l 257
 466 371 l 257
 338 370 l 257
 479 700 l 257
EndSplineSet
EndChar

StartChar: exclam
Encoding: 33 33 59
GlifName: exclam
Width: 348
VWidth: 0
Flags: HMW
LayerCount: 2
Fore
SplineSet
245 700 m 257
 475 700 l 257
 285 250 l 257
 125 250 l 257
 245 700 l 257
30 75 m 256
 30 138 78 180 148 180 c 256
 218 180 266 138 266 75 c 256
 266 12 218 -30 148 -30 c 256
 78 -30 30 12 30 75 c 256
EndSplineSet
EndChar

StartChar: quotesingle
Encoding: 39 39 60
GlifName: quotesingle
Width: 301
VWidth: 0
Flags: HMW
LayerCount: 2
Fore
SplineSet
262 700 m 257
 461 699 l 257
 250 371 l 257
 121 370 l 257
 262 700 l 257
EndSplineSet
EndChar

StartChar: numbersign
Encoding: 35 35 61
GlifName: numbersign
Width: 663
VWidth: 0
Flags: HMW
LayerCount: 2
Fore
SplineSet
154 396 m 257
 202 550 l 257
 768 550 l 257
 714 395 l 257
 568 395 l 257
 536 405 l 257
 337 405 l 257
 301 395 l 257
 154 396 l 257
27 155 m 257
 82 310 l 257
 211 310 l 257
 247 300 l 257
 480 300 l 257
 517 310 l 257
 649 310 l 257
 594 155 l 257
 27 155 l 257
632 699 m 257
 804 699 l 257
 403 0 l 257
 235 0 l 257
 362 222 l 257
 389 251 l 257
 504 452 l 257
 516 493 l 257
 632 699 l 257
391 700 m 257
 559 699 l 257
 439 492 l 257
 406 450 l 257
 294 255 l 257
 287 225 l 257
 158 0 l 257
 -9 0 l 257
 391 700 l 257
EndSplineSet
EndChar

StartChar: hyphen
Encoding: 45 45 62
GlifName: hyphen
Width: 216
VWidth: 0
Flags: HMW
LayerCount: 2
Fore
SplineSet
-1 155 m 257
 57 320 l 257
 271 320 l 257
 213 155 l 257
 -1 155 l 257
EndSplineSet
EndChar

StartChar: dollar
Encoding: 36 36 63
GlifName: dollar
Width: 608
VWidth: 0
Flags: HMW
LayerCount: 2
Fore
SplineSet
464 818 m 257
 616 818 l 257
 542 618 l 257
 410 618 l 257
 464 818 l 257
243 70 m 257
 374 70 l 257
 325 -112 l 257
 175 -112 l 257
 243 70 l 257
547 475 m 257
 534 512 519 558 472 558 c 256
 445 558 408 537 397 512 c 256
 373 455 477 438 510 424 c 256
 602 384 647 296 620 199 c 256
 580 52 420 -12 280 -10 c 256
 165 -8 73 55 31 161 c 257
 197 266 l 257
 220 212 249 158 316 159 c 256
 345 159 387 171 398 203 c 256
 414 249 335 268 306 281 c 256
 216 324 152 408 180 511 c 256
 215 641 366 709 491 710 c 256
 601 711 677 660 723 561 c 257
 547 475 l 257
EndSplineSet
EndChar

StartChar: bar
Encoding: 124 124 64
GlifName: bar
Width: 376
VWidth: 0
Flags: HMW
LayerCount: 2
Fore
SplineSet
299 785 m 257
 493 785 l 257
 185 -215 l 257
 -10 -215 l 257
 299 785 l 257
EndSplineSet
EndChar

StartChar: zero
Encoding: 48 48 65
GlifName: zero
Width: 658
VWidth: 0
Flags: HMW
LayerCount: 2
Fore
SplineSet
303 350 m 256
 287 307 242 176 322 171 c 256
 406 166 462 286 486 350 c 256
 502 393 547 524 467 529 c 256
 383 534 327 414 303 350 c 256
100 350 m 256
 157 530 302 715 507 715 c 256
 717 715 741 512 690 350 c 256
 633 168 489 -16 282 -15 c 256
 75 -14 49 190 100 350 c 256
EndSplineSet
Substitution2: "Tabular Numbers lookup" uniFF10
EndChar

StartChar: one
Encoding: 49 49 66
GlifName: one
Width: 512
VWidth: 0
Flags: HMW
LayerCount: 2
Fore
SplineSet
153 456 m 257
 219 644 l 257
 623 718 l 257
 377 0 l 257
 172 0 l 257
 343 496 l 257
 153 456 l 257
EndSplineSet
Substitution2: "Tabular Numbers lookup" uniFF11
EndChar

StartChar: two
Encoding: 50 50 67
GlifName: two
Width: 667
VWidth: 0
Flags: HMW
LayerCount: 2
Fore
SplineSet
-25 0 m 257
 352 305 l 258
 404 347 487 397 505 466 c 256
 513 498 503 528 467 530 c 256
 411 534 376 472 355 430 c 257
 146 431 l 257
 198 591 336 717 511 716 c 256
 642 716 765 622 727 480 c 256
 706 401 643 342 578 297 c 258
 430 201 l 257
 665 200 l 257
 603 0 l 257
 -25 0 l 257
EndSplineSet
Substitution2: "Tabular Numbers lookup" uniFF12
EndChar

StartChar: four
Encoding: 52 52 68
GlifName: four
Width: 722
VWidth: 0
Flags: HMW
LayerCount: 2
Fore
SplineSet
-15 116 m 257
 578 699 l 257
 761 700 l 257
 521 0 l 257
 297 0 l 257
 356 175 l 257
 388 186 l 257
 465 402 l 257
 314 266 l 257
 549 266 l 257
 578 300 l 257
 728 300 l 257
 663 115 l 257
 -15 116 l 257
EndSplineSet
Substitution2: "Tabular Numbers lookup" uniFF14
EndChar

StartChar: slash
Encoding: 47 47 69
GlifName: slash
Width: 625
VWidth: 0
Flags: HMW
LayerCount: 2
Fore
SplineSet
614 699 m 257
 805 699 l 257
 100 -149 l 257
 -100 -149 l 257
 614 699 l 257
EndSplineSet
EndChar

StartChar: backslash
Encoding: 92 92 70
GlifName: backslash
Width: 531
VWidth: 0
Flags: HMW
LayerCount: 2
Fore
SplineSet
201 700 m 257
 371 700 l 257
 461 0 l 257
 291 0 l 257
 201 700 l 257
EndSplineSet
EndChar

StartChar: eight
Encoding: 56 56 71
GlifName: eight
Width: 636
VWidth: 0
Flags: HMW
LayerCount: 2
Fore
SplineSet
195 532 m 256
 232 660 374 720 497 720 c 256
 608 720 732 660 695 530 c 256
 659 403 513 335 390 335 c 256
 279 335 159 405 195 532 c 256
385 509 m 256
 377 486 381 451 410 451 c 256
 451 451 483 486 492 513 c 256
 500 537 494 569 465 569 c 256
 424 569 394 536 385 509 c 256
55 191 m 256
 95 330 253 400 388 400 c 256
 508 400 643 329 603 189 c 256
 563 51 403 -20 269 -20 c 256
 149 -20 15 52 55 191 c 256
278 223 m 256
 267 194 273 156 309 156 c 256
 357 156 392 193 404 227 c 256
 413 255 403 289 370 289 c 256
 324 289 291 255 278 223 c 256
EndSplineSet
Substitution2: "Tabular Numbers lookup" uniFF18
EndChar

StartChar: nine
Encoding: 57 57 72
GlifName: nine
Width: 683
VWidth: 0
Flags: HMW
LayerCount: 2
Fore
SplineSet
532 446 m 256
 547 489 529 532 480 534 c 256
 428 536 373 491 357 444 c 256
 342 402 359 356 408 354 c 256
 460 352 516 398 532 446 c 256
344 6 m 257
 63 6 l 257
 353 233 l 257
 417 260 l 257
 381 237 343 218 299 218 c 256
 176 218 119 336 147 445 c 256
 189 610 351 720 518 720 c 256
 677 720 787 606 742 445 c 256
 717 354 648 282 581 220 c 258
 344 6 l 257
EndSplineSet
Substitution2: "Tabular Numbers lookup" uniFF19
EndChar

StartChar: three
Encoding: 51 51 73
GlifName: three
Width: 626
VWidth: 0
Flags: HMW
LayerCount: 2
Fore
SplineSet
340 336 m 257
 364 423 l 257
 408 430 498 446 507 502 c 256
 511 528 493 543 469 544 c 256
 425 547 396 509 375 476 c 257
 179 478 l 257
 228 618 351 714 502 715 c 256
 618 716 753 652 717 515 c 256
 675 355 476 338 340 336 c 257
289 -20 m 256
 133 -18 51 96 74 245 c 257
 277 244 l 257
 272 199 274 155 330 151 c 256
 372 148 421 176 435 217 c 256
 459 286 376 291 329 295 c 257
 357 398 l 257
 481 395 680 366 636 194 c 256
 598 45 429 -22 289 -20 c 256
EndSplineSet
Substitution2: "Tabular Numbers lookup" uniFF13
EndChar

StartChar: five
Encoding: 53 53 74
GlifName: five
Width: 652
VWidth: 0
Flags: HMW
LayerCount: 2
Fore
SplineSet
652 219 m 256
 611 67 449 -13 301 -15 c 256
 205 -16 113 8 25 44 c 257
 135 235 l 257
 182 207 230 186 285 185 c 256
 333 185 413 194 429 251 c 256
 444 304 378 308 342 309 c 256
 270 311 199 296 129 279 c 257
 347 700 l 257
 780 700 l 257
 720 510 l 257
 450 511 l 257
 379 421 l 257
 419 436 462 445 505 444 c 256
 628 440 682 330 652 219 c 256
EndSplineSet
Substitution2: "Tabular Numbers lookup" uniFF15
EndChar

StartChar: six
Encoding: 54 54 75
GlifName: six
Width: 683
VWidth: 0
Flags: HMW
LayerCount: 2
Fore
SplineSet
298 254 m 256
 283 211 301 168 350 166 c 256
 402 164 458 209 474 256 c 256
 489 298 471 344 422 346 c 256
 370 348 314 302 298 254 c 256
486 694 m 257
 768 694 l 257
 477 467 l 257
 413 440 l 257
 449 463 487 482 531 482 c 256
 654 482 711 364 683 255 c 256
 641 90 479 -20 312 -20 c 256
 153 -20 43 94 88 255 c 256
 113 346 182 418 249 480 c 258
 486 694 l 257
EndSplineSet
Substitution2: "Tabular Numbers lookup" uniFF16
EndChar

StartChar: seven
Encoding: 55 55 76
GlifName: seven
Width: 611
VWidth: 0
Flags: HMW
LayerCount: 2
Fore
SplineSet
142 495 m 257
 207 699 l 257
 801 699 l 257
 264 0 l 257
 24 0 l 257
 420 495 l 257
 142 495 l 257
EndSplineSet
Substitution2: "Tabular Numbers lookup" uniFF17
EndChar

StartChar: plus
Encoding: 43 43 77
GlifName: plus
Width: 668
VWidth: 0
Flags: HMW
LayerCount: 2
Fore
SplineSet
66 185 m 257
 131 370 l 257
 683 370 l 257
 618 185 l 257
 66 185 l 257
376 565 m 257
 571 565 l 257
 373 -10 l 257
 178 -10 l 257
 376 565 l 257
EndSplineSet
EndChar

StartChar: equal
Encoding: 61 61 78
GlifName: equal
Width: 595
VWidth: 0
Flags: HMW
LayerCount: 2
Fore
SplineSet
6 50 m 257
 64 215 l 257
 572 215 l 257
 514 50 l 257
 6 50 l 257
87 290 m 257
 146 455 l 257
 654 455 l 257
 596 290 l 257
 87 290 l 257
EndSplineSet
EndChar

StartChar: percent
Encoding: 37 37 79
GlifName: percent
Width: 960
VWidth: 0
Flags: HMW
LayerCount: 2
Fore
SplineSet
136 526 m 256
 166 632 279 724 391 724 c 256
 500 724 563 625 534 524 c 256
 504 418 390 326 278 326 c 256
 169 326 107 425 136 526 c 256
286 522 m 256
 281 504 291 477 322 477 c 256
 346 477 377 506 383 528 c 256
 388 546 379 573 348 573 c 256
 324 573 292 544 286 522 c 256
558 177 m 256
 588 283 701 375 813 375 c 256
 922 375 984 276 955 175 c 256
 925 69 812 -23 700 -23 c 256
 591 -23 529 76 558 177 c 256
708 173 m 256
 702 155 718 128 739 128 c 256
 763 128 794 147 805 179 c 256
 811 197 796 224 775 224 c 256
 751 224 719 205 708 173 c 256
837 699 m 257
 1049 699 l 257
 254 0 l 257
 42 0 l 257
 837 699 l 257
EndSplineSet
EndChar

StartChar: ampersand
Encoding: 38 38 80
GlifName: ampersand
Width: 751
VWidth: 0
Flags: HMW
LayerCount: 2
Fore
SplineSet
292 364 m 258
 261 417 235 474 252 537 c 256
 282 652 417 720 529 720 c 256
 629 720 723 651 697 543 c 256
 671 435 553 374 462 328 c 256
 402 298 283 283 260 208 c 256
 248 170 273 150 308 146 c 256
 438 132 562 271 641 355 c 257
 739 252 l 257
 616 116 442 -17 250 -15 c 256
 132 -14 24 62 59 191 c 256
 99 338 257 373 381 422 c 256
 424 439 517 470 526 524 c 256
 529 543 519 569 487 569 c 256
 460 569 434 552 424 520 c 256
 409 471 447 422 469 385 c 258
 698 0 l 257
 502 0 l 257
 292 364 l 258
EndSplineSet
EndChar

StartChar: question
Encoding: 63 63 81
GlifName: question
Width: 629
VWidth: 0
Flags: HMW
LayerCount: 2
Fore
SplineSet
514 501 m 256
 527 543 498 562 460 564 c 256
 390 568 324 518 273 476 c 257
 181 591 l 257
 273 663 382 726 502 725 c 256
 629 724 742 635 702 499 c 256
 666 376 546 314 432 282 c 257
 406 220 l 257
 243 220 l 257
 283 400 l 257
 314 400 l 258
 379 403 491 428 514 501 c 256
147 72 m 256
 147 128 199 169 260 169 c 256
 321 169 374 130 374 72 c 256
 374 14 321 -29 260 -29 c 256
 199 -29 147 12 147 72 c 256
EndSplineSet
EndChar

StartChar: parenleft
Encoding: 40 40 82
GlifName: parenleft
Width: 338
VWidth: 0
Flags: HMW
LayerCount: 2
Fore
SplineSet
366 779 m 257
 540 778 l 257
 438 625 340 467 284 290 c 256
 233 132 216 -36 243 -201 c 257
 79 -201 l 257
 46 -37 57 130 104 290 c 256
 157 469 251 633 366 779 c 257
EndSplineSet
EndChar

StartChar: parenright
Encoding: 41 41 83
GlifName: parenright
Width: 338
VWidth: 0
Flags: HMW
LayerCount: 2
Fore
SplineSet
82 -199 m 257
 -91 -198 l 257
 11 -45 109 113 165 290 c 256
 216 448 233 616 206 781 c 257
 370 781 l 257
 403 617 392 450 345 290 c 256
 292 111 197 -53 82 -199 c 257
EndSplineSet
EndChar

StartChar: asterisk
Encoding: 42 42 84
GlifName: asterisk
Width: 557
VWidth: 0
Flags: HMW
LayerCount: 2
Fore
SplineSet
631 606 m 257
 630 433 l 257
 371 396 l 257
 372 485 l 257
 631 606 l 257
536 279 m 257
 362 172 l 257
 333 423 l 257
 407 466 l 257
 536 279 l 257
219 178 m 257
 107 292 l 257
 342 465 l 257
 401 411 l 257
 219 178 l 257
114 437 m 257
 218 604 l 257
 406 475 l 257
 356 399 l 257
 114 437 l 257
372 700 m 257
 555 699 l 257
 419 441 l 257
 335 440 l 257
 372 700 l 257
EndSplineSet
EndChar

StartChar: less
Encoding: 60 60 85
GlifName: less
Width: 602
VWidth: 0
Flags: HMW
LayerCount: 2
Fore
SplineSet
349 262 m 257
 551 170 l 257
 487 -7 l 257
 73 206 l 257
 120 339 l 257
 680 551 l 257
 609 347 l 257
 349 262 l 257
EndSplineSet
EndChar

StartChar: greater
Encoding: 62 62 86
GlifName: greater
Width: 602
VWidth: 0
Flags: HMW
LayerCount: 2
Fore
SplineSet
328 273 m 257
 126 365 l 257
 189 542 l 257
 603 329 l 257
 556 196 l 257
 -3 -16 l 257
 67 188 l 257
 328 273 l 257
EndSplineSet
EndChar

StartChar: bracketleft
Encoding: 91 91 87
GlifName: bracketleft
Width: 376
VWidth: 0
Flags: HMW
LayerCount: 2
Fore
SplineSet
421 615 m 257
 215 -55 l 257
 310 -55 l 257
 258 -220 l 257
 -26 -220 l 257
 283 780 l 257
 567 780 l 257
 515 615 l 257
 421 615 l 257
EndSplineSet
EndChar

StartChar: bracketright
Encoding: 93 93 88
GlifName: bracketright
Width: 376
VWidth: 0
Flags: HMW
LayerCount: 2
Fore
SplineSet
60 -55 m 257
 266 615 l 257
 170 615 l 257
 222 780 l 257
 506 780 l 257
 197 -220 l 257
 -87 -220 l 257
 -35 -55 l 257
 60 -55 l 257
EndSplineSet
EndChar

StartChar: asciicircum
Encoding: 94 94 89
GlifName: asciicircum
Width: 479
VWidth: 0
Flags: HMW
LayerCount: 2
Fore
SplineSet
380 549 m 257
 287 441 l 257
 110 441 l 257
 363 709 l 257
 481 710 l 257
 549 440 l 257
 395 440 l 257
 380 549 l 257
EndSplineSet
EndChar

StartChar: underscore
Encoding: 95 95 90
GlifName: underscore
Width: 517
VWidth: 0
Flags: HMW
LayerCount: 2
Fore
SplineSet
-115 -166 m 257
 -72 -45 l 257
 452 -45 l 257
 409 -166 l 257
 -115 -166 l 257
EndSplineSet
EndChar

StartChar: grave
Encoding: 96 96 91
GlifName: grave
Width: 352
VWidth: 0
Flags: HMW
LayerCount: 2
Fore
SplineSet
205 656 m 257
 347 711 l 257
 444 544 l 257
 335 500 l 257
 205 656 l 257
EndSplineSet
EndChar

StartChar: braceleft
Encoding: 123 123 92
GlifName: braceleft
Width: 424
VWidth: 0
Flags: HMW
LayerCount: 2
Fore
SplineSet
449 579 m 258
 421 489 l 258
 383 371 324 298 197 281 c 257
 202 301 l 257
 322 280 324 192 293 89 c 258
 264 0 l 258
 255 -28 261 -48 290 -49 c 258
 328 -50 l 257
 284 -199 l 257
 189 -200 l 258
 104 -197 9 -158 39 -60 c 258
 91 110 l 258
 106 162 109 192 60 220 c 257
 100 359 l 257
 154 382 179 416 198 471 c 258
 250 641 l 258
 280 737 374 776 469 780 c 256
 587 780 l 257
 543 631 l 257
 512 631 l 258
 482 631 458 609 449 579 c 258
EndSplineSet
EndChar

StartChar: braceright
Encoding: 125 125 93
GlifName: braceright
Width: 424
VWidth: 0
Flags: HMW
LayerCount: 2
Fore
SplineSet
86 0 m 258
 114 91 l 258
 152 209 210 282 337 299 c 257
 333 279 l 257
 213 300 210 388 241 491 c 258
 270 581 l 258
 279 608 272 628 244 629 c 258
 207 629 l 257
 251 780 l 257
 346 780 l 258
 431 777 525 738 495 640 c 258
 443 470 l 258
 428 418 425 388 474 360 c 257
 435 221 l 257
 381 198 355 164 336 109 c 258
 285 -61 l 258
 256 -158 160 -196 65 -200 c 256
 -53 -200 l 257
 -9 -51 l 257
 22 -51 l 258
 52 -51 77 -30 86 0 c 258
EndSplineSet
EndChar

StartChar: asciitilde
Encoding: 126 126 94
GlifName: asciitilde
Width: 541
VWidth: 0
Flags: HMW
LayerCount: 2
Fore
SplineSet
175 154 m 257
 34 161 l 257
 34 169 34 178 36 186 c 256
 44 227 68 266 97 295 c 256
 136 334 191 359 247 357 c 256
 288 356 324 333 354 307 c 256
 367 296 386 272 406 272 c 256
 422 272 440 293 446 306 c 256
 451 318 451 333 451 345 c 257
 591 338 l 257
 591 328 591 318 589 309 c 256
 581 268 559 228 530 198 c 256
 497 164 448 141 400 142 c 256
 358 143 323 168 291 194 c 256
 274 208 253 230 229 228 c 256
 208 226 186 206 178 188 c 256
 173 178 175 165 175 154 c 257
EndSplineSet
EndChar

StartChar: exclamdown
Encoding: 161 161 95
GlifName: exclamdown
Width: 348
VWidth: 0
Flags: HMW
LayerCount: 2
Fore
SplineSet
159 -220 m 257
 -73 -220 l 257
 119 230 l 257
 277 230 l 257
 159 -220 l 257
371 403 m 256
 355 344 291 301 231 301 c 256
 171 301 128 346 145 407 c 256
 161 466 225 509 285 509 c 256
 345 509 388 464 371 403 c 256
EndSplineSet
EndChar

StartChar: cent
Encoding: 162 162 96
GlifName: cent
Width: 545
VWidth: 0
Flags: HMW
LayerCount: 2
Fore
SplineSet
153 38 m 257
 291 38 l 257
 251 -112 l 257
 85 -112 l 257
 153 38 l 257
243 229 m 256
 225 182 247 143 298 140 c 256
 349 137 398 171 438 197 c 257
 386 19 l 257
 342 1 297 -10 249 -10 c 256
 111 -9 8 89 50 231 c 256
 93 377 242 469 390 470 c 256
 437 470 479 459 522 440 c 257
 469 261 l 257
 447 295 424 322 380 322 c 256
 326 322 262 280 243 229 c 256
325 578 m 257
 491 578 l 257
 424 428 l 257
 286 428 l 257
 325 578 l 257
EndSplineSet
EndChar

StartChar: sterling
Encoding: 163 163 97
GlifName: sterling
Width: 592
VWidth: 0
Flags: HMW
LayerCount: 2
Fore
SplineSet
133 370 m 257
 506 370 l 257
 465 255 l 257
 91 255 l 257
 133 370 l 257
508 460 m 257
 513 500 515 543 464 545 c 256
 423 547 381 515 365 479 c 256
 335 412 400 343 380 273 c 256
 346 152 198 84 88 54 c 257
 199 174 l 257
 529 175 l 257
 468 0 l 257
 -13 0 l 257
 73 92 177 183 212 309 c 256
 234 386 163 447 183 524 c 256
 216 649 369 709 487 709 c 256
 603 709 702 645 694 522 c 257
 508 460 l 257
EndSplineSet
EndChar

StartChar: currency
Encoding: 164 164 98
GlifName: currency
Width: 541
VWidth: 0
Flags: HMW
LayerCount: 2
Fore
SplineSet
129 507 m 257
 216 574 l 257
 282 458 l 257
 204 401 l 257
 129 507 l 257
44 27 m 257
 -6 108 l 257
 121 201 l 257
 170 126 l 257
 44 27 l 257
521 400 m 257
 470 480 l 257
 598 574 l 257
 647 498 l 257
 521 400 l 257
352 135 m 257
 438 201 l 257
 505 86 l 257
 427 28 l 257
 352 135 l 257
92 301 m 256
 129 427 253 540 389 540 c 256
 522 540 581 417 546 299 c 256
 509 173 385 60 249 60 c 256
 116 60 57 183 92 301 c 256
256 298 m 256
 245 269 255 238 289 236 c 256
 326 233 370 269 382 302 c 256
 393 331 383 362 349 364 c 256
 312 367 268 331 256 298 c 256
EndSplineSet
EndChar

StartChar: yen
Encoding: 165 165 99
GlifName: yen
Width: 680
VWidth: 0
Flags: HMW
LayerCount: 2
Fore
SplineSet
69 250 m 257
 110 365 l 257
 710 365 l 257
 669 250 l 257
 69 250 l 257
18 100 m 257
 59 215 l 257
 659 215 l 257
 618 100 l 257
 18 100 l 257
620 699 m 257
 876 699 l 257
 486 266 l 257
 395 0 l 257
 175 0 l 257
 274 285 l 257
 183 700 l 257
 418 700 l 257
 442 481 l 257
 620 699 l 257
EndSplineSet
EndChar

StartChar: brokenbar
Encoding: 166 166 100
GlifName: brokenbar
Width: 376
VWidth: 0
Flags: HMW
LayerCount: 2
Fore
SplineSet
275 695 m 257
 470 695 l 257
 372 415 l 257
 177 415 l 257
 275 695 l 257
330 285 m 257
 232 5 l 257
 37 5 l 257
 135 285 l 257
 330 285 l 257
EndSplineSet
EndChar

StartChar: section
Encoding: 167 167 101
GlifName: section
Width: 638
VWidth: 0
Flags: HMW
LayerCount: 2
Fore
SplineSet
565 533 m 257
 540 554 512 578 477 577 c 256
 465 577 426 568 424 553 c 256
 422 532 482 531 494 528 c 256
 562 511 609 452 589 381 c 256
 555 262 414 230 307 224 c 257
 322 268 l 257
 355 281 398 297 411 334 c 256
 432 390 361 405 324 423 c 256
 265 452 236 508 254 573 c 256
 283 675 396 730 495 731 c 256
 564 732 625 709 674 661 c 257
 565 533 l 257
136 179 m 257
 178 150 224 122 277 125 c 256
 290 126 326 132 330 148 c 256
 336 173 276 177 262 181 c 256
 196 198 127 244 147 321 c 256
 178 442 331 472 437 478 c 257
 423 434 l 257
 391 421 345 405 333 368 c 256
 314 311 397 303 432 287 c 256
 494 258 530 196 510 129 c 256
 480 25 359 -28 259 -30 c 256
 172 -32 95 -2 27 51 c 257
 136 179 l 257
EndSplineSet
EndChar

StartChar: dieresis
Encoding: 168 168 102
GlifName: dieresis
Width: 504
VWidth: 0
Flags: HMW
LayerCount: 2
Fore
SplineSet
430 617 m 256
 443 670 503 712 557 712 c 256
 612 712 652 668 638 613 c 256
 625 560 566 518 512 518 c 256
 457 518 416 562 430 617 c 256
176 617 m 256
 189 670 249 712 303 712 c 256
 358 712 398 668 384 613 c 256
 371 560 312 518 258 518 c 256
 203 518 162 562 176 617 c 256
EndSplineSet
EndChar

StartChar: copyright
Encoding: 169 169 103
GlifName: copyright
Width: 752
VWidth: 0
Flags: HMW
LayerCount: 2
Fore
SplineSet
375 349 m 256
 357 298 383 257 437 254 c 256
 486 252 531 279 571 303 c 257
 536 168 l 257
 496 146 455 130 408 129 c 256
 281 128 201 228 234 351 c 256
 268 479 392 572 524 572 c 256
 569 572 606 556 643 531 c 257
 608 396 l 257
 583 426 557 448 515 448 c 256
 456 448 395 405 375 349 c 256
166 350 m 256
 118 207 174 43 344 41 c 256
 520 39 680 190 734 350 c 256
 782 493 726 657 556 659 c 256
 380 661 220 510 166 350 c 256
108 350 m 256
 161 541 345 711 549 710 c 256
 747 709 841 528 792 350 c 256
 739 159 554 -11 350 -10 c 256
 152 -9 59 172 108 350 c 256
EndSplineSet
EndChar

StartChar: registered
Encoding: 174 174 104
GlifName: registered
Width: 752
VWidth: 0
Flags: HMW
LayerCount: 2
Fore
SplineSet
433 310 m 257
 537 310 l 257
 582 150 l 257
 442 150 l 257
 433 310 l 257
366 570 m 257
 496 570 l 257
 365 150 l 257
 235 150 l 257
 366 570 l 257
414 460 m 257
 447 569 l 257
 525 570 l 256
 604 567 683 527 661 435 c 256
 639 342 548 297 459 293 c 258
 358 292 l 257
 390 390 l 257
 461 391 l 257
 482 393 518 404 525 428 c 256
 531 449 511 458 495 460 c 257
 414 460 l 257
166 350 m 256
 118 207 174 43 344 41 c 256
 520 39 680 190 734 350 c 256
 782 493 726 657 556 659 c 256
 380 661 220 510 166 350 c 256
108 350 m 256
 161 541 345 711 549 710 c 256
 747 709 841 528 792 350 c 256
 739 159 554 -11 350 -10 c 256
 152 -9 59 172 108 350 c 256
EndSplineSet
EndChar

StartChar: ordfeminine
Encoding: 170 170 105
GlifName: ordfeminine
Width: 272
VWidth: 0
Flags: HMW
LayerCount: 2
Fore
SplineSet
234 527 m 256
 232 520 238 513 245 513 c 256
 271 514 287 537 302 554 c 257
 300 522 l 257
 277 486 250 456 204 456 c 256
 163 456 126 484 138 528 c 256
 151 574 208 596 251 597 c 256
 280 598 303 588 328 575 c 257
 314 534 l 257
 302 542 290 551 274 550 c 256
 262 550 238 540 234 527 c 256
220 611 m 257
 211 682 l 257
 246 693 282 705 320 705 c 256
 368 705 423 685 414 627 c 257
 359 460 l 257
 266 461 l 257
 318 596 l 257
 317 612 319 623 301 628 c 256
 276 634 243 619 220 611 c 257
EndSplineSet
EndChar

StartChar: ordmasculine
Encoding: 186 186 106
GlifName: ordmasculine
Width: 261
VWidth: 0
Flags: HMW
LayerCount: 2
Fore
SplineSet
158 582 m 256
 177 651 251 699 321 699 c 256
 390 699 445 649 425 578 c 256
 406 508 330 461 260 461 c 256
 191 461 138 511 158 582 c 256
255 578 m 256
 250 565 252 541 270 539 c 256
 290 537 321 565 327 582 c 256
 332 595 329 620 311 622 c 256
 291 624 261 595 255 578 c 256
EndSplineSet
EndChar

StartChar: guillemotleft
Encoding: 171 171 107
GlifName: guillemotleft
Width: 526
VWidth: 0
Flags: HMW
LayerCount: 2
Fore
SplineSet
399 250 m 257
 474 57 l 257
 342 -13 l 257
 268 266 l 257
 510 519 l 257
 608 436 l 257
 399 250 l 257
183 250 m 257
 258 57 l 257
 126 -13 l 257
 52 266 l 257
 294 519 l 257
 391 436 l 257
 183 250 l 257
EndSplineSet
EndChar

StartChar: guillemotright
Encoding: 187 187 108
GlifName: guillemotright
Width: 526
VWidth: 0
Flags: HMW
LayerCount: 2
Fore
SplineSet
193 260 m 257
 118 453 l 257
 251 523 l 257
 324 244 l 257
 83 -9 l 257
 -15 74 l 257
 193 260 l 257
410 260 m 257
 334 453 l 257
 467 523 l 257
 541 244 l 257
 299 -9 l 257
 201 74 l 257
 410 260 l 257
EndSplineSet
EndChar

StartChar: uni00AD
Encoding: 173 173 109
GlifName: uni00A_D_
Width: 197
VWidth: 0
Flags: HMW
LayerCount: 2
Fore
SplineSet
21 201 m 257
 44 275 l 257
 238 275 l 257
 214 201 l 257
 21 201 l 257
EndSplineSet
EndChar

StartChar: logicalnot
Encoding: 172 172 110
GlifName: logicalnot
Width: 629
VWidth: 0
Flags: HMW
LayerCount: 2
Fore
SplineSet
96 256 m 257
 148 420 l 257
 662 420 l 257
 577 175 l 257
 453 175 l 257
 488 256 l 257
 96 256 l 257
EndSplineSet
EndChar

StartChar: macron
Encoding: 175 175 111
GlifName: macron
Width: 512
VWidth: 0
Flags: HMW
LayerCount: 2
Fore
SplineSet
208 555 m 257
 260 720 l 257
 629 720 l 257
 577 555 l 257
 208 555 l 257
EndSplineSet
EndChar

StartChar: degree
Encoding: 176 176 112
GlifName: degree
Width: 289
VWidth: 0
Flags: HMW
LayerCount: 2
Fore
SplineSet
160 597 m 256
 179 666 254 719 325 719 c 256
 396 719 447 664 427 593 c 256
 408 523 332 471 260 471 c 256
 189 471 140 527 160 597 c 256
252 593 m 256
 247 578 253 554 272 552 c 256
 294 550 327 578 334 597 c 256
 339 612 333 637 314 639 c 256
 292 641 259 612 252 593 c 256
EndSplineSet
EndChar

StartChar: plusminus
Encoding: 177 177 113
GlifName: plusminus
Width: 606
VWidth: 0
Flags: HMW
LayerCount: 2
Fore
SplineSet
26 10 m 257
 77 170 l 257
 568 170 l 257
 517 10 l 257
 26 10 l 257
123 325 m 257
 177 495 l 257
 668 495 l 257
 614 325 l 257
 123 325 l 257
366 620 m 257
 556 620 l 257
 425 200 l 257
 235 200 l 257
 366 620 l 257
EndSplineSet
EndChar

StartChar: uni00B2
Encoding: 178 178 114
GlifName: uni00B_2
Width: 419
VWidth: 0
Flags: HMW
LayerCount: 2
Fore
SplineSet
55 283 m 257
 289 465 l 258
 321 489 377 520 388 562 c 256
 392 578 388 598 369 600 c 256
 336 604 313 563 299 540 c 257
 171 542 l 257
 208 635 285 711 391 711 c 256
 470 711 546 656 522 570 c 256
 509 523 470 488 432 461 c 258
 341 403 l 257
 479 401 l 257
 437 282 l 257
 55 283 l 257
EndSplineSet
EndChar

StartChar: uni00B3
Encoding: 179 179 115
GlifName: uni00B_3
Width: 373
VWidth: 0
Flags: HMW
LayerCount: 2
Fore
SplineSet
263 482 m 257
 279 533 l 257
 307 539 359 548 368 582 c 256
 371 595 360 606 348 606 c 256
 322 605 305 584 290 567 c 257
 168 569 l 257
 204 649 271 706 363 708 c 256
 432 709 517 671 493 588 c 256
 466 493 344 485 263 482 c 257
229 268 m 256
 132 270 89 336 99 427 c 257
 221 426 l 257
 221 402 217 375 249 371 c 256
 271 368 308 391 315 412 c 256
 329 452 275 454 250 458 c 257
 270 518 l 257
 344 515 467 499 439 395 c 256
 416 308 311 266 229 268 c 256
EndSplineSet
EndChar

StartChar: acute
Encoding: 180 180 116
GlifName: acute
Width: 352
VWidth: 0
Flags: HMW
LayerCount: 2
Fore
SplineSet
479 644 m 257
 270 501 l 257
 169 557 l 257
 354 709 l 257
 479 644 l 257
EndSplineSet
EndChar

StartChar: mu
Encoding: 181 181 117
GlifName: mu
Width: 569
VWidth: 0
Flags: HMW
LayerCount: 2
Fore
SplineSet
280 0 m 257
 439 460 l 257
 629 460 l 257
 471 0 l 257
 280 0 l 257
246 180 m 257
 240 158 229 124 261 116 c 256
 297 108 327 156 343 179 c 257
 374 188 l 257
 339 90 274 -9 158 -11 c 256
 50 -13 20 66 46 160 c 257
 147 460 l 257
 347 460 l 257
 246 180 l 257
147 460 m 257
 328 460 l 257
 60 -320 l 257
 -120 -320 l 257
 147 460 l 257
EndSplineSet
EndChar

StartChar: paragraph
Encoding: 182 182 118
GlifName: paragraph
Width: 684
VWidth: 0
Flags: HMW
LayerCount: 2
Fore
SplineSet
414 590 m 257
 453 700 l 257
 695 700 l 257
 656 590 l 257
 414 590 l 257
651 700 m 257
 817 700 l 257
 502 -220 l 257
 335 -220 l 257
 651 700 l 257
453 700 m 257
 620 700 l 257
 304 -220 l 257
 138 -220 l 257
 453 700 l 257
316 271 m 257
 197 284 128.389 365.183 165 486 c 256
 205 618 322 700 453 700 c 257
 316 271 l 257
EndSplineSet
EndChar

StartChar: periodcentered
Encoding: 183 183 119
GlifName: periodcentered
Width: 316
VWidth: 0
Flags: HMW
LayerCount: 2
Fore
SplineSet
87 287 m 256
 104 347 168 399 231 399 c 256
 295 399 332 342 315 283 c 256
 298 223 234 171 171 171 c 256
 107 171 70 228 87 287 c 256
EndSplineSet
EndChar

StartChar: uni00B9
Encoding: 185 185 120
GlifName: uni00B_9
Width: 461
VWidth: 0
Flags: HMW
LayerCount: 2
Fore
SplineSet
243 546 m 257
 283 661 l 257
 529 706 l 257
 380 274 l 257
 254 274 l 257
 357 570 l 257
 243 546 l 257
EndSplineSet
EndChar

StartChar: cedilla
Encoding: 184 184 121
GlifName: cedilla
Width: 395
VWidth: 0
Flags: HMW
LayerCount: 2
Fore
SplineSet
129 77 m 257
 278 71 l 257
 128 -57 l 257
 142 -54 158 -50 172 -51 c 256
 231 -55 259 -110 243 -164 c 256
 222 -236 144 -275 74 -279 c 256
 15 -282 -39 -263 -91 -236 c 257
 -20 -156 l 257
 4 -169 30 -182 59 -181 c 256
 77 -180 128 -167 131 -144 c 256
 134 -123 98 -119 86 -118 c 256
 52 -116 17 -124 -17 -130 c 257
 129 77 l 257
EndSplineSet
EndChar

StartChar: questiondown
Encoding: 191 191 122
GlifName: questiondown
Width: 629
VWidth: 0
Flags: HMW
LayerCount: 2
Fore
SplineSet
246 199 m 256
 233 157 262 138 300 136 c 256
 370 132 436 182 487 224 c 257
 579 109 l 257
 487 37 378 -26 258 -25 c 256
 131 -24 18 65 58 201 c 256
 94 324 214 386 328 418 c 257
 354 480 l 257
 517 480 l 257
 477 300 l 257
 446 300 l 258
 381 297 269 272 246 199 c 256
603 628 m 256
 588 572 520 531 464 531 c 256
 408 531 361 574 376 632 c 256
 391 688 458 729 514 729 c 256
 570 729 618 686 603 628 c 256
EndSplineSet
EndChar

StartChar: multiply
Encoding: 215 215 123
GlifName: multiply
Width: 560
VWidth: 0
Flags: HMW
LayerCount: 2
Fore
SplineSet
92 -9 m 257
 16 118 l 257
 209 263 l 257
 116 411 l 257
 257 520 l 257
 344 370 l 257
 534 519 l 257
 611 392 l 257
 417 247 l 257
 510 99 l 257
 369 -10 l 257
 283 140 l 257
 92 -9 l 257
EndSplineSet
EndChar

StartChar: Oslash
Encoding: 216 216 124
GlifName: O_slash
Width: 743
VWidth: 0
Flags: HMW
LayerCount: 2
Fore
SplineSet
315 350 m 256
 286 276 292 181 390 179 c 256
 490 176 572 263 606 350 c 256
 635 424 629 519 531 521 c 256
 431 524 349 437 315 350 c 256
90 350 m 256
 154 556 355 721 574 720 c 256
 783 719 891 543 831 350 c 256
 767 144 564 -31 343 -30 c 256
 130 -29 30 158 90 350 c 256
856 759 m 257
 921 690 l 257
 57 -60 l 257
 -5 0 l 257
 856 759 l 257
EndSplineSet
EndChar

StartChar: Thorn
Encoding: 222 222 125
GlifName: T_horn
Width: 611
VWidth: 0
Flags: HMW
LayerCount: 2
Fore
SplineSet
257 700 m 257
 438 700 l 257
 198 0 l 257
 17 0 l 257
 257 700 l 257
276 425 m 257
 335 590 l 257
 450 590 l 256
 594 586 708 511 661 354 c 256
 614 197 469 124 314 120 c 256
 172 120 l 257
 231 285 l 257
 347 285 l 258
 399 287 457 302 478 356 c 256
 498 408 460 421 416 424 c 258
 276 425 l 257
EndSplineSet
EndChar

StartChar: divide
Encoding: 247 247 126
GlifName: divide
Width: 611
VWidth: 0
Flags: HMW
LayerCount: 2
Fore
SplineSet
348 617 m 256
 365 677 428 729 491 729 c 256
 555 729 592 672 575 613 c 256
 558 553 495 501 432 501 c 256
 368 501 331 558 348 617 c 256
177 117 m 256
 194 177 258 229 321 229 c 256
 385 229 421 172 404 113 c 256
 387 53 324 1 261 1 c 256
 197 1 160 58 177 117 c 256
42 280 m 257
 102 450 l 257
 711 450 l 257
 651 280 l 257
 42 280 l 257
EndSplineSet
EndChar

StartChar: oslash
Encoding: 248 248 127
GlifName: oslash
Width: 513
VWidth: 0
Flags: HMW
LayerCount: 2
Fore
SplineSet
49 231 m 256
 92 375 236 470 384 470 c 256
 524 470 621 370 579 229 c 256
 536 85 392 -10 244 -10 c 256
 104 -10 7 90 49 231 c 256
224 229 m 256
 207 185 220 138 272 136 c 256
 327 133 387 181 405 231 c 256
 420 272 406 321 356 324 c 256
 303 327 243 276 224 229 c 256
546 509 m 257
 607 461 l 257
 67 -53 l 257
 10 -10 l 257
 546 509 l 257
EndSplineSet
EndChar

StartChar: circumflex
Encoding: 710 710 128
GlifName: circumflex
Width: 451
VWidth: 0
Flags: HMW
LayerCount: 2
Fore
SplineSet
391 617 m 257
 290 540 l 257
 180 637 l 257
 424 770 l 257
 593 623 l 257
 439 538 l 257
 391 617 l 257
EndSplineSet
EndChar

StartChar: ogonek
Encoding: 731 731 129
GlifName: ogonek
Width: 244
VWidth: 0
Flags: HMW
LayerCount: 2
Fore
SplineSet
115 -99 m 257
 126 -183 l 257
 94 -205 58 -221 18 -220 c 256
 -39 -218 -81 -177 -68 -118 c 256
 -51 -41 42 -5 105 25 c 257
 145 0 l 257
 112 -24 60 -49 48 -91 c 256
 45 -102 45 -115 59 -118 c 256
 76 -121 101 -106 115 -99 c 257
EndSplineSet
EndChar

StartChar: tilde
Encoding: 732 732 130
GlifName: tilde
Width: 498
VWidth: 0
Flags: HMW
LayerCount: 2
Fore
SplineSet
218 648 m 257
 250 697 299 749 363 746 c 256
 409 744 436 691 482 694 c 256
 517 696 544 726 568 748 c 257
 631 652 l 257
 592 608 531 558 468 563 c 256
 422 567 391 625 344 617 c 256
 315 612 299 589 283 568 c 257
 218 648 l 257
EndSplineSet
EndChar

StartChar: ring
Encoding: 730 730 131
GlifName: ring
Width: 336
VWidth: 0
Flags: HMW
LayerCount: 2
Fore
SplineSet
240 762 m 256
 259 831 334 884 405 884 c 256
 476 884 527 829 507 758 c 256
 488 688 412 636 340 636 c 256
 269 636 220 692 240 762 c 256
332 758 m 256
 327 743 332 719 351 717 c 256
 373 715 407 743 414 762 c 256
 419 777 413 802 394 804 c 256
 372 806 339 777 332 758 c 256
EndSplineSet
EndChar

StartChar: dotaccent
Encoding: 729 729 132
GlifName: dotaccent
Width: 282
VWidth: 0
Flags: HMW
LayerCount: 2
Fore
SplineSet
265 830 m 256
 280 883 340 924 394 924 c 256
 449 924 488 879 473 824 c 256
 458 771 398 730 344 730 c 256
 289 730 250 775 265 830 c 256
EndSplineSet
EndChar

StartChar: uni2010
Encoding: 8208 8208 133
GlifName: uni2010
Width: 216
VWidth: 0
Flags: HMW
LayerCount: 2
Fore
SplineSet
-1 155 m 257
 57 320 l 257
 271 320 l 257
 213 155 l 257
 -1 155 l 257
EndSplineSet
EndChar

StartChar: endash
Encoding: 8211 8211 134
GlifName: endash
Width: 762
VWidth: 0
Flags: HMW
LayerCount: 2
Fore
SplineSet
60 155 m 257
 118 320 l 257
 746 320 l 257
 688 155 l 257
 60 155 l 257
EndSplineSet
EndChar

StartChar: figuredash
Encoding: 8210 8210 135
GlifName: figuredash
Width: 611
VWidth: 0
Flags: HMW
LayerCount: 2
Fore
SplineSet
60 155 m 257
 118 320 l 257
 591 320 l 257
 533 155 l 257
 60 155 l 257
EndSplineSet
EndChar

StartChar: emdash
Encoding: 8212 8212 136
GlifName: emdash
Width: 912
VWidth: 0
Flags: HMW
LayerCount: 2
Fore
SplineSet
60 155 m 257
 118 320 l 257
 901 320 l 257
 843 155 l 257
 60 155 l 257
EndSplineSet
EndChar

StartChar: minus
Encoding: 8722 8722 137
GlifName: minus
Width: 559
VWidth: 0
Flags: HMW
LayerCount: 2
Fore
SplineSet
41 155 m 257
 99 320 l 257
 572 320 l 257
 514 155 l 257
 41 155 l 257
EndSplineSet
EndChar

StartChar: quoteright
Encoding: 8217 8217 138
GlifName: quoteright
Width: 343
VWidth: 0
Flags: HMW
LayerCount: 2
Fore
SplineSet
274 700 m 257
 471 699 l 257
 278 431 l 257
 133 431 l 257
 274 700 l 257
EndSplineSet
EndChar

StartChar: quoteleft
Encoding: 8216 8216 139
GlifName: quoteleft
Width: 343
VWidth: 0
Flags: HMW
LayerCount: 2
Fore
SplineSet
346 430 m 257
 150 431 l 257
 343 699 l 257
 488 699 l 257
 346 430 l 257
EndSplineSet
EndChar

StartChar: quotesinglbase
Encoding: 8218 8218 140
GlifName: quotesinglbase
Width: 343
VWidth: 0
Flags: HMW
LayerCount: 2
Fore
SplineSet
72 80 m 257
 268 79 l 257
 75 -189 l 257
 -69 -189 l 257
 72 80 l 257
EndSplineSet
EndChar

StartChar: quotedblleft
Encoding: 8220 8220 141
GlifName: quotedblleft
Width: 578
VWidth: 0
Flags: HMW
LayerCount: 2
Fore
SplineSet
346 430 m 257
 150 431 l 257
 343 699 l 257
 488 699 l 257
 346 430 l 257
581 430 m 257
 385 431 l 257
 578 699 l 257
 723 699 l 257
 581 430 l 257
EndSplineSet
EndChar

StartChar: quotedblright
Encoding: 8221 8221 142
GlifName: quotedblright
Width: 578
VWidth: 0
Flags: HMW
LayerCount: 2
Fore
SplineSet
274 700 m 257
 471 699 l 257
 278 431 l 257
 133 431 l 257
 274 700 l 257
510 700 m 257
 706 699 l 257
 513 431 l 257
 368 431 l 257
 510 700 l 257
EndSplineSet
EndChar

StartChar: perthousand
Encoding: 8240 8240 143
GlifName: perthousand
Width: 1431
VWidth: 0
Flags: HMW
LayerCount: 2
Fore
SplineSet
1028 177 m 256
 1058 283 1172 375 1284 375 c 256
 1393 375 1455 276 1426 175 c 256
 1396 69 1283 -23 1171 -23 c 256
 1062 -23 999 76 1028 177 c 256
1179 173 m 256
 1174 155 1183 131 1204 128 c 256
 1228 125 1269 157 1275 179 c 256
 1280 197 1271 221 1250 224 c 256
 1226 227 1185 195 1179 173 c 256
136 526 m 256
 166 632 279 724 391 724 c 256
 500 724 563 625 534 524 c 256
 504 418 390 326 278 326 c 256
 169 326 107 425 136 526 c 256
286 522 m 256
 281 504 291 480 312 477 c 256
 336 474 377 506 383 528 c 256
 388 546 379 570 358 573 c 256
 334 576 292 544 286 522 c 256
558 177 m 256
 588 283 701 375 813 375 c 256
 922 375 984 276 955 175 c 256
 925 69 812 -23 700 -23 c 256
 591 -23 529 76 558 177 c 256
708 173 m 256
 703 155 713 131 734 128 c 256
 758 125 799 157 805 179 c 256
 810 197 801 221 780 224 c 256
 756 227 714 195 708 173 c 256
837 699 m 257
 1049 699 l 257
 254 0 l 257
 42 0 l 257
 837 699 l 257
EndSplineSet
EndChar

StartChar: guilsinglleft
Encoding: 8249 8249 144
GlifName: guilsinglleft
Width: 329
VWidth: 0
Flags: HMW
LayerCount: 2
Fore
SplineSet
183 250 m 257
 258 57 l 257
 126 -13 l 257
 52 266 l 257
 294 519 l 257
 391 436 l 257
 183 250 l 257
EndSplineSet
EndChar

StartChar: guilsinglright
Encoding: 8250 8250 145
GlifName: guilsinglright
Width: 329
VWidth: 0
Flags: HMW
LayerCount: 2
Fore
SplineSet
212 260 m 257
 137 453 l 257
 269 523 l 257
 343 244 l 257
 101 -9 l 257
 4 74 l 257
 212 260 l 257
EndSplineSet
EndChar

StartChar: uni2031
Encoding: 8241 8241 146
GlifName: uni2031
Width: 1901
VWidth: 0
Flags: HMW
LayerCount: 2
Fore
SplineSet
1499 177 m 256
 1529 283 1642 375 1754 375 c 256
 1863 375 1925 276 1896 175 c 256
 1866 69 1753 -23 1641 -23 c 256
 1532 -23 1470 76 1499 177 c 256
1649 173 m 256
 1644 155 1653 131 1674 128 c 256
 1698 125 1740 157 1746 179 c 256
 1751 197 1742 221 1721 224 c 256
 1697 227 1655 195 1649 173 c 256
1028 177 m 256
 1058 283 1172 375 1284 375 c 256
 1393 375 1455 276 1426 175 c 256
 1396 69 1283 -23 1171 -23 c 256
 1062 -23 999 76 1028 177 c 256
1179 173 m 256
 1174 155 1183 131 1204 128 c 256
 1228 125 1269 157 1275 179 c 256
 1280 197 1271 221 1250 224 c 256
 1226 227 1185 195 1179 173 c 256
136 526 m 256
 166 632 279 724 391 724 c 256
 500 724 563 625 534 524 c 256
 504 418 390 326 278 326 c 256
 169 326 107 425 136 526 c 256
286 522 m 256
 281 504 291 480 312 477 c 256
 336 474 377 506 383 528 c 256
 388 546 379 570 358 573 c 256
 334 576 292 544 286 522 c 256
558 177 m 256
 588 283 701 375 813 375 c 256
 922 375 984 276 955 175 c 256
 925 69 812 -23 700 -23 c 256
 591 -23 529 76 558 177 c 256
708 173 m 256
 703 155 713 131 734 128 c 256
 758 125 799 157 805 179 c 256
 810 197 801 221 780 224 c 256
 756 227 714 195 708 173 c 256
837 699 m 257
 1049 699 l 257
 254 0 l 257
 42 0 l 257
 837 699 l 257
EndSplineSet
EndChar

StartChar: uni203D
Encoding: 8253 8253 147
GlifName: uni203D_
Width: 629
VWidth: 0
Flags: HMW
LayerCount: 2
Fore
SplineSet
524 471 m 256
 547 531 507 563 450 564 c 256
 379 566 321 525 273 477 c 257
 181 591 l 257
 265 671 381 724 499 723 c 256
 625 722 742 635 702 499 c 256
 655 340 476 279 327 271 c 257
 349 349 l 257
 419 362 497 399 524 471 c 256
327 500 m 257
 496 499 l 257
 368 220 l 257
 259 220 l 257
 327 500 l 257
157 77 m 256
 173 136 240 179 299 179 c 256
 358 179 404 133 388 73 c 256
 372 14 305 -29 246 -29 c 256
 187 -29 141 17 157 77 c 256
EndSplineSet
EndChar

StartChar: Euro
Encoding: 8364 8364 148
GlifName: E_uro
Width: 658
VWidth: 0
Flags: HMW
LayerCount: 2
Fore
SplineSet
139 366 m 257
 177 472 l 257
 641 472 l 257
 603 366 l 257
 139 366 l 257
71 228 m 257
 109 334 l 257
 579 334 l 257
 541 228 l 257
 71 228 l 257
355 350 m 256
 331 286 297 158 401 152 c 256
 461 148 520 182 570 210 c 257
 513 16 l 257
 466 -6 416 -25 363 -25 c 256
 155 -26 125 191 175 350 c 256
 232 532 389 727 596 726 c 256
 647 726 690 708 734 684 c 257
 675 488 l 257
 644 525 609 551 559 550 c 256
 453 548 388 437 355 350 c 256
EndSplineSet
EndChar

StartChar: fraction
Encoding: 8260 8260 149
GlifName: fraction
Width: 700
VWidth: 0
Flags: HMW
LayerCount: 2
Fore
SplineSet
721 699 m 257
 886 699 l 257
 157 0 l 257
 -8 0 l 257
 721 699 l 257
EndSplineSet
EndChar

StartChar: onequarter
Encoding: 188 188 150
GlifName: onequarter
Width: 812
VWidth: 0
Flags: HMW
LayerCount: 2
Fore
SplineSet
776 699 m 257
 904 699 l 257
 174 0 l 257
 46 0 l 257
 776 699 l 257
147 546 m 257
 187 661 l 257
 433 706 l 257
 284 274 l 257
 158 274 l 257
 261 570 l 257
 147 546 l 257
345 70 m 257
 479 158 l 257
 654 159 l 257
 672 180 l 257
 799 180 l 257
 759 69 l 257
 345 70 l 257
505 116 m 257
 335 60 l 257
 704 419 l 257
 819 420 l 257
 673 0 l 257
 536 0 l 257
 567 90 l 257
 586 96 l 257
 636 234 l 257
 505 116 l 257
EndSplineSet
EndChar

StartChar: onehalf
Encoding: 189 189 151
GlifName: onehalf
Width: 883
VWidth: 0
Flags: HMW
LayerCount: 2
Fore
SplineSet
776 699 m 257
 904 699 l 257
 174 0 l 257
 46 0 l 257
 776 699 l 257
147 546 m 257
 187 661 l 257
 433 706 l 257
 284 274 l 257
 158 274 l 257
 261 570 l 257
 147 546 l 257
418 3 m 257
 653 185 l 258
 685 209 741 240 752 282 c 256
 756 298 751 318 732 320 c 256
 699 324 677 283 663 260 c 257
 534 262 l 257
 571 355 649 431 755 431 c 256
 834 431 909 376 885 290 c 256
 872 243 833 208 795 181 c 258
 705 123 l 257
 843 121 l 257
 801 2 l 257
 418 3 l 257
EndSplineSet
EndChar

StartChar: threequarters
Encoding: 190 190 152
GlifName: threequarters
Width: 860
VWidth: 0
Flags: HMW
LayerCount: 2
Fore
SplineSet
834 699 m 257
 962 699 l 257
 232 0 l 257
 105 0 l 257
 834 699 l 257
273 482 m 257
 289 533 l 257
 317 539 368 548 377 582 c 256
 380 595 369 606 357 606 c 256
 331 605 314 584 299 567 c 257
 177 569 l 257
 213 649 281 706 373 708 c 256
 442 709 526 671 502 588 c 256
 475 493 354 485 273 482 c 257
238 268 m 256
 141 270 99 336 109 427 c 257
 230 426 l 257
 230 402 226 375 258 371 c 256
 280 368 317 391 324 412 c 256
 338 452 285 454 260 458 c 257
 279 518 l 257
 353 515 476 499 448 395 c 256
 425 308 320 266 238 268 c 256
394 70 m 257
 528 158 l 257
 703 159 l 257
 721 180 l 257
 848 180 l 257
 808 69 l 257
 394 70 l 257
554 116 m 257
 384 60 l 257
 753 419 l 257
 868 420 l 257
 722 0 l 257
 585 0 l 257
 616 90 l 257
 635 96 l 257
 685 234 l 257
 554 116 l 257
EndSplineSet
EndChar

StartChar: uni2150
Encoding: 8528 8528 153
GlifName: uni2150
Width: 942
VWidth: 0
Flags: HMW
LayerCount: 2
Fore
SplineSet
767 699 m 257
 932 699 l 257
 202 0 l 257
 37 0 l 257
 767 699 l 257
147 546 m 257
 187 661 l 257
 433 706 l 257
 284 274 l 257
 158 274 l 257
 261 570 l 257
 147 546 l 257
620 297 m 257
 663 420 l 257
 1024 419 l 257
 688 0 l 257
 537 0 l 257
 784 296 l 257
 620 297 l 257
EndSplineSet
EndChar

StartChar: uni2151
Encoding: 8529 8529 154
GlifName: uni2151
Width: 888
VWidth: 0
Flags: HMW
LayerCount: 2
Fore
SplineSet
757 699 m 257
 922 699 l 257
 193 0 l 257
 28 0 l 257
 757 699 l 257
147 546 m 257
 187 661 l 257
 433 706 l 257
 284 274 l 257
 158 274 l 257
 261 570 l 257
 147 546 l 257
778 271 m 256
 785 294 777 319 751 322 c 256
 722 326 680 293 672 267 c 256
 665 244 674 218 700 215 c 256
 729 211 770 245 778 271 c 256
661 6 m 257
 482 6 l 257
 663 139 l 257
 704 156 l 257
 683 144 662 134 637 134 c 256
 562 134 529 204 546 270 c 256
 572 368 672 433 770 433 c 256
 866 433 934 365 905 268 c 256
 889 214 846 171 806 134 c 258
 661 6 l 257
EndSplineSet
EndChar

StartChar: uni2152
Encoding: 8530 8530 155
GlifName: uni2152
Width: 1213
VWidth: 0
Flags: HMW
LayerCount: 2
Fore
SplineSet
757 699 m 257
 922 699 l 257
 193 0 l 257
 28 0 l 257
 757 699 l 257
147 546 m 257
 187 661 l 257
 433 706 l 257
 284 274 l 257
 158 274 l 257
 261 570 l 257
 147 546 l 257
588 273 m 257
 629 388 l 257
 874 433 l 257
 725 1 l 257
 599 1 l 257
 702 297 l 257
 588 273 l 257
968 209 m 256
 958 184 933 109 978 103 c 256
 1026 97 1065 176 1079 211 c 256
 1089 236 1114 311 1069 317 c 256
 1021 323 982 244 968 209 c 256
845 211 m 256
 877 318 965 429 1086 429 c 256
 1212 429 1231 308 1201 209 c 256
 1168 101 1083 -9 960 -9 c 256
 836 -9 815 113 845 211 c 256
EndSplineSet
EndChar

StartChar: onethird
Encoding: 8531 8531 156
GlifName: onethird
Width: 889
VWidth: 0
Flags: HMW
LayerCount: 2
Fore
SplineSet
756 699 m 257
 921 699 l 257
 192 0 l 257
 27 0 l 257
 756 699 l 257
147 546 m 257
 187 661 l 257
 433 706 l 257
 284 274 l 257
 158 274 l 257
 261 570 l 257
 147 546 l 257
680 202 m 257
 696 253 l 257
 724 259 776 268 785 302 c 256
 788 315 777 326 765 326 c 256
 739 325 722 304 707 287 c 257
 585 289 l 257
 621 369 688 426 780 428 c 256
 849 429 934 391 910 308 c 256
 883 213 761 205 680 202 c 257
646 -12 m 256
 549 -10 507 56 517 147 c 257
 638 146 l 257
 638 122 634 95 666 91 c 256
 688 88 725 111 732 132 c 256
 746 172 693 174 668 178 c 257
 687 238 l 257
 761 235 884 219 856 115 c 256
 833 28 728 -14 646 -12 c 256
EndSplineSet
EndChar

StartChar: twothirds
Encoding: 8532 8532 157
GlifName: twothirds
Width: 1018
VWidth: 0
Flags: HMW
LayerCount: 2
Fore
SplineSet
905 699 m 257
 1070 699 l 257
 340 0 l 257
 175 0 l 257
 905 699 l 257
59 283 m 257
 294 465 l 258
 326 489 382 520 393 562 c 256
 397 578 392 598 373 600 c 256
 340 604 318 563 304 540 c 257
 175 542 l 257
 212 635 290 711 396 711 c 256
 475 711 550 656 526 570 c 256
 513 523 474 488 436 461 c 258
 346 403 l 257
 484 401 l 257
 442 282 l 257
 59 283 l 257
809 202 m 257
 825 253 l 257
 853 259 905 268 914 302 c 256
 917 315 906 326 894 326 c 256
 868 325 851 304 836 287 c 257
 714 289 l 257
 750 369 817 426 909 428 c 256
 978 429 1063 391 1039 308 c 256
 1012 213 890 205 809 202 c 257
775 -12 m 256
 678 -10 635 56 645 147 c 257
 767 146 l 257
 767 122 763 95 795 91 c 256
 817 88 854 111 861 132 c 256
 875 172 822 174 797 178 c 257
 816 238 l 257
 890 235 1013 219 985 115 c 256
 962 28 857 -14 775 -12 c 256
EndSplineSet
EndChar

StartChar: uni2155
Encoding: 8533 8533 158
GlifName: uni2155
Width: 878
VWidth: 0
Flags: HMW
LayerCount: 2
Fore
SplineSet
757 699 m 257
 922 699 l 257
 193 0 l 257
 28 0 l 257
 757 699 l 257
147 546 m 257
 187 661 l 257
 433 706 l 257
 284 274 l 257
 158 274 l 257
 261 570 l 257
 147 546 l 257
854 129 m 256
 828 39 729 -8 642 -10 c 256
 583 -12 527 5 473 26 c 257
 540 138 l 257
 568 123 596 109 629 109 c 256
 654 109 716 117 721 151 c 256
 725 178 690 183 672 184 c 256
 628 187 584 176 541 167 c 257
 638 221 l 258
 677 243 718 267 765 265 c 256
 839 261 873 197 854 129 c 256
743 303 m 257
 673 210 l 257
 528 157 l 257
 678 417 l 257
 942 418 l 257
 901 304 l 257
 743 303 l 257
EndSplineSet
EndChar

StartChar: uni2156
Encoding: 8534 8534 159
GlifName: uni2156
Width: 1021
VWidth: 0
Flags: HMW
LayerCount: 2
Fore
SplineSet
905 699 m 257
 1070 699 l 257
 340 0 l 257
 175 0 l 257
 905 699 l 257
59 283 m 257
 294 465 l 258
 326 489 382 520 393 562 c 256
 397 578 392 598 373 600 c 256
 340 604 318 563 304 540 c 257
 175 542 l 257
 212 635 290 711 396 711 c 256
 475 711 550 656 526 570 c 256
 513 523 474 488 436 461 c 258
 346 403 l 257
 484 401 l 257
 442 282 l 257
 59 283 l 257
983 129 m 256
 957 39 858 -8 771 -10 c 256
 712 -12 656 5 602 26 c 257
 669 138 l 257
 697 123 725 109 758 109 c 256
 783 109 845 117 850 151 c 256
 854 178 819 183 801 184 c 256
 757 187 712 176 669 167 c 257
 767 221 l 258
 806 243 847 267 894 265 c 256
 968 261 1002 197 983 129 c 256
872 303 m 257
 802 210 l 257
 657 157 l 257
 807 417 l 257
 1070 418 l 257
 1030 304 l 257
 872 303 l 257
EndSplineSet
EndChar

StartChar: uni2157
Encoding: 8535 8535 160
GlifName: uni2157
Width: 932
VWidth: 0
Flags: HMW
LayerCount: 2
Fore
SplineSet
820 699 m 257
 985 699 l 257
 256 0 l 257
 91 0 l 257
 820 699 l 257
268 482 m 257
 284 533 l 257
 312 539 363 548 372 582 c 256
 375 595 364 606 352 606 c 256
 326 605 309 584 294 567 c 257
 172 569 l 257
 208 649 276 706 368 708 c 256
 437 709 522 671 498 588 c 256
 471 493 349 485 268 482 c 257
234 268 m 256
 137 270 94 336 104 427 c 257
 226 426 l 257
 226 402 221 375 253 371 c 256
 275 368 313 391 320 412 c 256
 334 452 280 454 255 458 c 257
 275 518 l 257
 349 515 471 499 443 395 c 256
 420 308 316 266 234 268 c 256
889 129 m 256
 863 39 764 -8 677 -10 c 256
 618 -12 562 5 508 26 c 257
 575 138 l 257
 603 123 631 109 664 109 c 256
 689 109 751 117 756 151 c 256
 760 178 725 183 707 184 c 256
 663 187 618 176 575 167 c 257
 673 221 l 258
 712 243 753 267 800 265 c 256
 874 261 908 197 889 129 c 256
778 303 m 257
 708 210 l 257
 562 157 l 257
 713 417 l 257
 976 418 l 257
 936 304 l 257
 778 303 l 257
EndSplineSet
EndChar

StartChar: uni2158
Encoding: 8536 8536 161
GlifName: uni2158
Width: 1040
VWidth: 0
Flags: HMW
LayerCount: 2
Fore
SplineSet
890 698 m 257
 1055 698 l 257
 326 0 l 257
 161 0 l 257
 890 698 l 257
69 350 m 257
 202 438 l 257
 378 439 l 257
 396 460 l 257
 523 460 l 257
 483 349 l 257
 69 350 l 257
229 396 m 257
 59 340 l 257
 428 699 l 257
 543 700 l 257
 397 280 l 257
 260 280 l 257
 291 370 l 257
 310 376 l 257
 360 514 l 257
 229 396 l 257
1006 128 m 256
 980 38 881 -9 794 -11 c 256
 735 -13 679 4 625 25 c 257
 693 137 l 257
 721 122 748 108 781 108 c 256
 806 108 868 116 873 150 c 256
 877 177 842 182 824 183 c 256
 780 186 736 175 693 166 c 257
 790 220 l 258
 829 242 870 266 917 264 c 256
 991 260 1025 196 1006 128 c 256
895 302 m 257
 825 209 l 257
 680 156 l 257
 830 416 l 257
 1094 417 l 257
 1053 303 l 257
 895 302 l 257
EndSplineSet
EndChar

StartChar: uni2159
Encoding: 8537 8537 162
GlifName: uni2159
Width: 897
VWidth: 0
Flags: HMW
LayerCount: 2
Fore
SplineSet
785 699 m 257
 950 699 l 257
 221 0 l 257
 56 0 l 257
 785 699 l 257
147 546 m 257
 187 661 l 257
 433 706 l 257
 284 274 l 257
 158 274 l 257
 261 570 l 257
 147 546 l 257
636 149 m 256
 629 126 638 101 664 98 c 256
 693 94 734 127 742 153 c 256
 749 176 742 201 716 205 c 256
 687 209 644 175 636 149 c 256
754 414 m 257
 933 414 l 257
 753 281 l 257
 711 264 l 257
 732 275 752 285 777 286 c 256
 852 289 886 215 869 150 c 256
 844 52 743 -13 645 -13 c 256
 549 -13 481 55 510 152 c 256
 526 206 568 249 608 286 c 258
 754 414 l 257
EndSplineSet
EndChar

StartChar: uni215A
Encoding: 8538 8538 163
GlifName: uni215A_
Width: 918
VWidth: 0
Flags: HMW
LayerCount: 2
Fore
SplineSet
834 699 m 257
 999 699 l 257
 270 0 l 257
 105 0 l 257
 834 699 l 257
457 409 m 256
 431 319 333 272 246 270 c 256
 187 268 131 285 77 306 c 257
 144 418 l 257
 172 403 200 389 233 389 c 256
 258 389 320 397 325 431 c 256
 329 458 294 463 276 464 c 256
 232 467 187 456 144 447 c 257
 242 501 l 258
 281 523 321 547 368 545 c 256
 442 541 476 477 457 409 c 256
346 583 m 257
 276 490 l 257
 131 437 l 257
 281 697 l 257
 545 698 l 257
 504 584 l 257
 346 583 l 257
657 149 m 256
 650 126 659 101 685 98 c 256
 714 94 755 127 763 153 c 256
 770 176 762 201 736 205 c 256
 707 209 665 175 657 149 c 256
775 414 m 257
 953 414 l 257
 774 281 l 257
 732 264 l 257
 753 275 773 285 798 286 c 256
 873 289 907 215 890 150 c 256
 865 52 764 -13 666 -13 c 256
 570 -13 502 55 531 152 c 256
 547 206 589 249 629 286 c 258
 775 414 l 257
EndSplineSet
EndChar

StartChar: oneeighth
Encoding: 8539 8539 164
GlifName: oneeighth
Width: 912
VWidth: 0
Flags: HMW
LayerCount: 2
Fore
SplineSet
785 699 m 257
 950 699 l 257
 221 0 l 257
 56 0 l 257
 785 699 l 257
147 546 m 257
 187 661 l 257
 433 705 l 257
 284 274 l 257
 158 274 l 257
 261 570 l 257
 147 546 l 257
624 321 m 256
 644 396 732 431 803 431 c 256
 869 431 949 396 927 317 c 256
 907 243 818 202 746 202 c 256
 679 202 604 244 624 321 c 256
740 305 m 256
 736 294 737 272 753 270 c 256
 771 268 798 294 803 309 c 256
 807 321 804 340 789 342 c 256
 771 344 746 320 740 305 c 256
540 116 m 256
 562 198 660 239 738 239 c 256
 811 239 894 197 871 112 c 256
 849 31 751 -11 673 -11 c 256
 601 -11 517 32 540 116 c 256
675 133 m 256
 669 119 673 95 692 93 c 256
 713 91 744 119 750 137 c 256
 755 151 749 172 732 174 c 256
 712 176 682 150 675 133 c 256
EndSplineSet
EndChar

StartChar: threeeighths
Encoding: 8540 8540 165
GlifName: threeeighths
Width: 956
VWidth: 0
Flags: HMW
LayerCount: 2
Fore
SplineSet
830 699 m 257
 995 699 l 257
 265 0 l 257
 100 0 l 257
 830 699 l 257
268 482 m 257
 284 533 l 257
 312 539 363 548 372 582 c 256
 375 595 364 606 352 606 c 256
 326 605 309 584 294 567 c 257
 173 569 l 257
 209 649 276 706 368 708 c 256
 437 709 522 671 498 588 c 256
 471 493 349 485 268 482 c 257
234 268 m 256
 137 270 94 336 104 427 c 257
 226 426 l 257
 226 402 221 375 253 371 c 256
 275 368 313 391 320 412 c 256
 334 452 280 454 255 458 c 257
 275 518 l 257
 349 515 471 499 443 395 c 256
 420 308 316 266 234 268 c 256
668 321 m 256
 688 396 777 431 848 431 c 256
 914 431 993 396 971 317 c 256
 951 243 862 202 790 202 c 256
 723 202 648 244 668 321 c 256
784 305 m 256
 780 294 781 272 797 270 c 256
 815 268 842 294 847 309 c 256
 851 321 849 340 834 342 c 256
 816 344 790 320 784 305 c 256
584 116 m 256
 606 198 704 239 782 239 c 256
 855 239 938 197 915 112 c 256
 893 31 795 -11 717 -11 c 256
 645 -11 561 32 584 116 c 256
719 133 m 256
 713 119 717 95 736 93 c 256
 757 91 789 119 795 137 c 256
 800 151 793 172 776 174 c 256
 756 176 726 150 719 133 c 256
EndSplineSet
EndChar

StartChar: fiveeighths
Encoding: 8541 8541 166
GlifName: fiveeighths
Width: 961
VWidth: 0
Flags: HMW
LayerCount: 2
Fore
SplineSet
834 699 m 257
 999 699 l 257
 270 0 l 257
 105 0 l 257
 834 699 l 257
448 409 m 256
 422 319 323 272 236 270 c 256
 177 268 121 285 67 306 c 257
 134 418 l 257
 162 403 190 389 223 389 c 256
 248 389 310 397 315 431 c 256
 319 458 284 463 266 464 c 256
 222 467 178 456 135 447 c 257
 232 501 l 258
 271 523 312 547 359 545 c 256
 433 541 467 477 448 409 c 256
337 583 m 257
 267 490 l 257
 122 437 l 257
 272 697 l 257
 536 698 l 257
 495 584 l 257
 337 583 l 257
673 321 m 256
 693 396 781 431 852 431 c 256
 918 431 998 396 976 317 c 256
 956 243 867 202 795 202 c 256
 728 202 653 244 673 321 c 256
788 305 m 256
 784 294 786 272 802 270 c 256
 820 268 847 294 852 309 c 256
 856 321 853 340 838 342 c 256
 820 344 794 320 788 305 c 256
589 116 m 256
 611 198 708 239 786 239 c 256
 859 239 943 197 920 112 c 256
 898 31 800 -11 722 -11 c 256
 650 -11 566 32 589 116 c 256
724 133 m 256
 718 119 722 95 741 93 c 256
 762 91 793 119 799 137 c 256
 804 151 798 172 781 174 c 256
 761 176 731 150 724 133 c 256
EndSplineSet
EndChar

StartChar: seveneighths
Encoding: 8542 8542 167
GlifName: seveneighths
Width: 858
VWidth: 0
Flags: HMW
LayerCount: 2
Fore
SplineSet
721 699 m 257
 886 699 l 257
 157 0 l 257
 -8 0 l 257
 721 699 l 257
156 577 m 257
 200 700 l 257
 561 699 l 257
 224 281 l 257
 74 281 l 257
 321 576 l 257
 156 577 l 257
570 321 m 256
 590 396 678 431 749 431 c 256
 815 431 894 396 872 317 c 256
 852 243 763 202 691 202 c 256
 624 202 550 244 570 321 c 256
685 305 m 256
 681 294 682 272 698 270 c 256
 716 268 744 294 749 309 c 256
 753 321 750 340 735 342 c 256
 717 344 691 320 685 305 c 256
485 116 m 256
 507 198 605 239 683 239 c 256
 756 239 839 197 816 112 c 256
 794 31 697 -11 619 -11 c 256
 547 -11 462 32 485 116 c 256
621 133 m 256
 615 119 619 95 638 93 c 256
 659 91 690 119 696 137 c 256
 701 151 695 172 678 174 c 256
 658 176 628 150 621 133 c 256
EndSplineSet
EndChar

StartChar: uni2074
Encoding: 8308 8308 168
GlifName: uni2074
Width: 424
VWidth: 0
Flags: HMW
LayerCount: 2
Fore
SplineSet
60 350 m 257
 193 438 l 257
 369 439 l 257
 386 460 l 257
 514 460 l 257
 474 349 l 257
 60 350 l 257
220 396 m 257
 49 340 l 257
 419 699 l 257
 533 700 l 257
 388 280 l 257
 251 280 l 257
 282 370 l 257
 300 376 l 257
 351 514 l 257
 220 396 l 257
EndSplineSet
EndChar

StartChar: uni2075
Encoding: 8309 8309 169
GlifName: uni2075
Width: 382
VWidth: 0
Flags: HMW
LayerCount: 2
Fore
SplineSet
448 409 m 256
 422 319 323 272 236 270 c 256
 177 268 121 285 67 306 c 257
 134 418 l 257
 162 403 190 389 223 389 c 256
 248 389 310 397 315 431 c 256
 319 458 284 463 266 464 c 256
 222 467 178 456 135 447 c 257
 232 501 l 258
 271 523 312 547 359 545 c 256
 433 541 467 477 448 409 c 256
337 583 m 257
 267 490 l 257
 122 437 l 257
 272 697 l 257
 536 698 l 257
 495 584 l 257
 337 583 l 257
EndSplineSet
EndChar

StartChar: uni2076
Encoding: 8310 8310 170
GlifName: uni2076
Width: 382
VWidth: 0
Flags: HMW
LayerCount: 2
Fore
SplineSet
229 429 m 256
 222 406 232 381 258 378 c 256
 287 374 327 407 335 433 c 256
 342 456 335 481 309 485 c 256
 280 489 237 455 229 429 c 256
348 694 m 257
 526 694 l 257
 346 561 l 257
 304 544 l 257
 325 555 345 565 370 566 c 256
 445 569 480 495 463 430 c 256
 438 332 336 267 238 267 c 256
 142 267 74 335 103 432 c 256
 119 486 161 529 201 566 c 258
 348 694 l 257
EndSplineSet
EndChar

StartChar: uni2077
Encoding: 8311 8311 171
GlifName: uni2077
Width: 370
VWidth: 0
Flags: HMW
LayerCount: 2
Fore
SplineSet
156 577 m 257
 200 700 l 257
 561 699 l 257
 224 281 l 257
 74 281 l 257
 321 576 l 257
 156 577 l 257
EndSplineSet
EndChar

StartChar: uni2078
Encoding: 8312 8312 172
GlifName: uni2078
Width: 363
VWidth: 0
Flags: HMW
LayerCount: 2
Fore
SplineSet
179 601 m 256
 199 676 287 711 358 711 c 256
 424 711 503 676 481 597 c 256
 461 523 372 482 300 482 c 256
 233 482 159 524 179 601 c 256
294 585 m 256
 290 574 291 552 307 550 c 256
 325 548 353 574 358 589 c 256
 362 601 359 620 344 622 c 256
 326 624 300 600 294 585 c 256
95 396 m 256
 117 478 214 519 292 519 c 256
 365 519 448 477 425 392 c 256
 403 311 306 269 228 269 c 256
 156 269 72 312 95 396 c 256
230 413 m 256
 224 399 228 375 247 373 c 256
 268 371 299 399 305 417 c 256
 310 431 304 452 287 454 c 256
 267 456 237 430 230 413 c 256
EndSplineSet
EndChar

StartChar: uni2079
Encoding: 8313 8313 173
GlifName: uni2079
Width: 377
VWidth: 0
Flags: HMW
LayerCount: 2
Fore
SplineSet
374 551 m 256
 381 574 373 599 347 602 c 256
 318 606 276 573 268 547 c 256
 261 524 270 498 296 495 c 256
 325 491 366 525 374 551 c 256
257 286 m 257
 78 286 l 257
 258 419 l 257
 300 436 l 257
 279 424 258 414 233 414 c 256
 158 414 125 484 142 550 c 256
 168 648 268 713 366 713 c 256
 462 713 530 645 501 548 c 256
 485 494 442 451 402 414 c 258
 257 286 l 257
EndSplineSet
EndChar

StartChar: uni2070
Encoding: 8304 8304 174
GlifName: uni2070
Width: 378
VWidth: 0
Flags: HMW
LayerCount: 2
Fore
SplineSet
247 489 m 256
 237 464 212 389 257 383 c 256
 305 377 344 456 358 491 c 256
 368 516 393 591 348 597 c 256
 300 603 261 524 247 489 c 256
124 491 m 256
 156 598 244 709 365 709 c 256
 491 709 510 588 480 489 c 256
 447 381 362 271 239 271 c 256
 115 271 94 393 124 491 c 256
EndSplineSet
EndChar

StartChar: uni2080
Encoding: 8320 8320 175
GlifName: uni2080
Width: 378
VWidth: 0
Flags: HMW
LayerCount: 2
Fore
SplineSet
151 209 m 256
 141 184 116 109 161 103 c 256
 209 97 248 176 262 211 c 256
 272 236 297 311 252 317 c 256
 204 323 165 244 151 209 c 256
28 211 m 256
 60 318 149 429 270 429 c 256
 396 429 415 308 385 209 c 256
 352 101 266 -9 143 -9 c 256
 19 -9 -2 113 28 211 c 256
EndSplineSet
EndChar

StartChar: uni2084
Encoding: 8324 8324 176
GlifName: uni2084
Width: 431
VWidth: 0
Flags: HMW
LayerCount: 2
Fore
SplineSet
-37 70 m 257
 96 158 l 257
 271 159 l 257
 289 180 l 257
 416 180 l 257
 376 69 l 257
 -37 70 l 257
122 116 m 257
 -48 60 l 257
 321 419 l 257
 436 420 l 257
 291 0 l 257
 153 0 l 257
 184 90 l 257
 203 96 l 257
 254 234 l 257
 122 116 l 257
EndSplineSet
EndChar

StartChar: uni2085
Encoding: 8325 8325 177
GlifName: uni2085
Width: 395
VWidth: 0
Flags: HMW
LayerCount: 2
Fore
SplineSet
357 129 m 256
 331 39 232 -8 145 -10 c 256
 86 -12 30 5 -24 26 c 257
 44 138 l 257
 72 123 99 109 132 109 c 256
 157 109 219 117 224 151 c 256
 228 178 193 183 175 184 c 256
 131 187 87 176 44 167 c 257
 141 221 l 258
 180 243 221 267 268 265 c 256
 342 261 376 197 357 129 c 256
246 303 m 257
 176 210 l 257
 31 157 l 257
 181 417 l 257
 445 418 l 257
 404 304 l 257
 246 303 l 257
EndSplineSet
EndChar

StartChar: uni2086
Encoding: 8326 8326 178
GlifName: uni2086
Width: 398
VWidth: 0
Flags: HMW
LayerCount: 2
Fore
SplineSet
139 149 m 256
 132 126 142 101 168 98 c 256
 197 94 238 127 246 153 c 256
 253 176 245 201 219 205 c 256
 190 209 147 175 139 149 c 256
258 414 m 257
 436 414 l 257
 256 281 l 257
 214 264 l 257
 235 275 255 285 280 286 c 256
 355 289 390 215 373 150 c 256
 348 52 246 -13 148 -13 c 256
 52 -13 -16 55 13 152 c 256
 29 206 72 249 112 286 c 258
 258 414 l 257
EndSplineSet
EndChar

StartChar: uni2087
Encoding: 8327 8327 179
GlifName: uni2087
Width: 378
VWidth: 0
Flags: HMW
LayerCount: 2
Fore
SplineSet
67 297 m 257
 110 420 l 257
 471 419 l 257
 135 0 l 257
 -16 0 l 257
 231 296 l 257
 67 297 l 257
EndSplineSet
EndChar

StartChar: uni2088
Encoding: 8328 8328 180
GlifName: uni2088
Width: 372
VWidth: 0
Flags: HMW
LayerCount: 2
Fore
SplineSet
90 321 m 256
 110 396 198 431 269 431 c 256
 335 431 414 396 392 317 c 256
 372 243 283 202 211 202 c 256
 144 202 70 244 90 321 c 256
205 305 m 256
 201 294 202 272 218 270 c 256
 236 268 264 294 269 309 c 256
 273 321 270 340 255 342 c 256
 237 344 211 320 205 305 c 256
6 116 m 256
 28 198 125 239 203 239 c 256
 276 239 359 197 336 112 c 256
 314 31 217 -11 139 -11 c 256
 67 -11 -17 32 6 116 c 256
141 133 m 256
 135 119 139 95 158 93 c 256
 179 91 210 119 216 137 c 256
 221 151 215 172 198 174 c 256
 178 176 148 150 141 133 c 256
EndSplineSet
EndChar

StartChar: uni2089
Encoding: 8329 8329 181
GlifName: uni2089
Width: 404
VWidth: 0
Flags: HMW
LayerCount: 2
Fore
SplineSet
291 271 m 256
 298 294 289 319 263 322 c 256
 234 326 192 293 184 267 c 256
 177 244 186 218 212 215 c 256
 241 211 283 245 291 271 c 256
173 6 m 257
 -6 6 l 257
 175 139 l 257
 217 156 l 257
 196 144 175 134 150 134 c 256
 75 134 41 204 58 270 c 256
 84 368 185 433 283 433 c 256
 379 433 447 365 418 268 c 256
 402 214 359 171 319 134 c 258
 173 6 l 257
EndSplineSet
EndChar

StartChar: uni2081
Encoding: 8321 8321 182
GlifName: uni2081
Width: 366
VWidth: 0
Flags: HMW
LayerCount: 2
Fore
SplineSet
119 273 m 257
 160 388 l 257
 405 433 l 257
 256 1 l 257
 131 1 l 257
 233 297 l 257
 119 273 l 257
EndSplineSet
EndChar

StartChar: uni2082
Encoding: 8322 8322 183
GlifName: uni2082
Width: 423
VWidth: 0
Flags: HMW
LayerCount: 2
Fore
SplineSet
-36 3 m 257
 199 185 l 258
 231 209 286 240 297 282 c 256
 301 298 297 318 278 320 c 256
 245 324 222 283 208 260 c 257
 80 262 l 257
 117 355 194 431 300 431 c 256
 379 431 455 376 431 290 c 256
 418 243 379 208 341 181 c 258
 250 123 l 257
 388 121 l 257
 346 2 l 257
 -36 3 l 257
EndSplineSet
EndChar

StartChar: uni2083
Encoding: 8323 8323 184
GlifName: uni2083
Width: 383
VWidth: 0
Flags: HMW
LayerCount: 2
Fore
SplineSet
174 202 m 257
 190 253 l 257
 218 259 270 268 279 302 c 256
 282 315 271 326 259 326 c 256
 233 325 216 304 201 287 c 257
 79 289 l 257
 115 369 182 426 274 428 c 256
 343 429 428 391 404 308 c 256
 377 213 255 205 174 202 c 257
140 -12 m 256
 43 -10 0 56 10 147 c 257
 132 146 l 257
 132 122 128 95 160 91 c 256
 182 88 219 111 226 132 c 256
 240 172 186 174 161 178 c 257
 181 238 l 257
 255 235 378 219 350 115 c 256
 327 28 222 -14 140 -12 c 256
EndSplineSet
EndChar

StartChar: Agrave
Encoding: 192 192 185
GlifName: A_grave
Width: 733
VWidth: 0
Flags: HMW
LayerCount: 2
Fore
SplineSet
167 90 m 257
 223 248 l 257
 578 248 l 257
 522 90 l 257
 167 90 l 257
451 382 m 257
 301 188 l 257
 301 137 l 257
 184 0 l 257
 -68 0 l 257
 566 755 l 257
 682 0 l 257
 452 0 l 257
 424 133 l 257
 459 189 l 257
 451 382 l 257
473 966 m 257
 616 1021 l 257
 708 853 l 257
 598 810 l 257
 473 966 l 257
EndSplineSet
EndChar

StartChar: Aacute
Encoding: 193 193 186
GlifName: A_acute
Width: 733
VWidth: 0
Flags: HMW
LayerCount: 2
Fore
SplineSet
167 90 m 257
 223 248 l 257
 578 248 l 257
 522 90 l 257
 167 90 l 257
451 382 m 257
 301 188 l 257
 301 137 l 257
 184 0 l 257
 -68 0 l 257
 566 755 l 257
 682 0 l 257
 452 0 l 257
 424 133 l 257
 459 189 l 257
 451 382 l 257
808 953 m 257
 595 811 l 257
 495 867 l 257
 684 1018 l 257
 808 953 l 257
EndSplineSet
EndChar

StartChar: Acircumflex
Encoding: 194 194 187
GlifName: A_circumflex
Width: 733
VWidth: 0
Flags: HMW
LayerCount: 2
Fore
SplineSet
167 90 m 257
 223 248 l 257
 578 248 l 257
 522 90 l 257
 167 90 l 257
451 382 m 257
 301 188 l 257
 301 137 l 257
 184 0 l 257
 -68 0 l 257
 566 755 l 257
 682 0 l 257
 452 0 l 257
 424 133 l 257
 459 189 l 257
 451 382 l 257
625 887 m 257
 523 810 l 257
 413 907 l 257
 658 1040 l 257
 827 893 l 257
 672 808 l 257
 625 887 l 257
EndSplineSet
EndChar

StartChar: Atilde
Encoding: 195 195 188
GlifName: A_tilde
Width: 733
VWidth: 0
Flags: HMW
LayerCount: 2
Fore
SplineSet
167 90 m 257
 223 248 l 257
 578 248 l 257
 522 90 l 257
 167 90 l 257
451 382 m 257
 301 188 l 257
 301 137 l 257
 184 0 l 257
 -68 0 l 257
 566 755 l 257
 682 0 l 257
 452 0 l 257
 424 133 l 257
 459 189 l 257
 451 382 l 257
413 897 m 257
 446 946 496 997 560 994 c 256
 605 992 632 939 677 942 c 256
 712 944 740 974 765 996 c 257
 826 899 l 257
 787 856 724 806 661 811 c 256
 616 815 585 873 539 865 c 256
 510 860 492 837 475 816 c 257
 413 897 l 257
EndSplineSet
EndChar

StartChar: Adieresis
Encoding: 196 196 189
GlifName: A_dieresis
Width: 733
VWidth: 0
Flags: HMW
LayerCount: 2
Fore
SplineSet
167 90 m 257
 223 248 l 257
 578 248 l 257
 522 90 l 257
 167 90 l 257
451 382 m 257
 301 188 l 257
 301 137 l 257
 184 0 l 257
 -68 0 l 257
 566 755 l 257
 682 0 l 257
 452 0 l 257
 424 133 l 257
 459 189 l 257
 451 382 l 257
643 821 m 256
 658 874 718 915 772 915 c 256
 827 915 866 870 851 815 c 256
 836 762 776 721 722 721 c 256
 667 721 628 766 643 821 c 256
327 831 m 256
 342 884 402 925 456 925 c 256
 511 925 550 880 535 825 c 256
 520 772 460 731 406 731 c 256
 351 731 312 776 327 831 c 256
EndSplineSet
EndChar

StartChar: Aring
Encoding: 197 197 190
GlifName: A_ring
Width: 733
VWidth: 0
Flags: HMW
LayerCount: 2
Fore
SplineSet
167 90 m 257
 223 248 l 257
 578 248 l 257
 522 90 l 257
 167 90 l 257
451 382 m 257
 301 188 l 257
 301 137 l 257
 184 0 l 257
 -68 0 l 257
 566 755 l 257
 682 0 l 257
 452 0 l 257
 424 133 l 257
 459 189 l 257
 451 382 l 257
453 804 m 256
 472 873 547 926 618 926 c 256
 689 926 740 871 720 800 c 256
 701 730 625 678 553 678 c 256
 482 678 433 734 453 804 c 256
545 800 m 256
 540 785 545 761 564 759 c 256
 586 757 620 785 627 804 c 256
 632 819 626 844 607 846 c 256
 585 848 552 819 545 800 c 256
EndSplineSet
EndChar

StartChar: AE
Encoding: 198 198 191
GlifName: A_E_
Width: 1091
VWidth: 0
Flags: HMW
LayerCount: 2
Fore
SplineSet
264 115 m 257
 344 315 l 257
 633 315 l 257
 563 115 l 257
 264 115 l 257
607 700 m 257
 797 656 l 257
 241 0 l 257
 -45 0 l 257
 607 700 l 257
588 0 m 257
 649 175 l 257
 1035 175 l 257
 974 0 l 257
 588 0 l 257
788 525 m 257
 607 700 l 257
 1214 700 l 257
 1153 525 l 257
 788 525 l 257
682 275 m 257
 742 445 l 257
 1109 445 l 257
 1049 275 l 257
 682 275 l 257
732 700 m 257
 965 700 l 257
 725 0 l 257
 492 0 l 257
 732 700 l 257
EndSplineSet
EndChar

StartChar: Ccedilla
Encoding: 199 199 192
GlifName: C_cedilla
Width: 668
VWidth: 0
Flags: HMW
LayerCount: 2
Fore
SplineSet
323 350 m 256
 290 265 329 191 423 188 c 256
 505 186 579 230 646 271 c 257
 580 47 l 257
 512 8 440 -20 361 -20 c 256
 148 -20 27 148 90 350 c 256
 156 563 365 721 589 720 c 256
 662 720 722 695 779 652 c 257
 711 427 l 257
 673 480 625 512 557 512 c 256
 457 511 359 443 323 350 c 256
276 40 m 257
 424 35 l 257
 275 -93 l 257
 289 -90 305 -87 319 -88 c 256
 378 -92 406 -146 390 -200 c 256
 369 -272 291 -311 221 -315 c 256
 162 -318 107 -299 55 -272 c 257
 127 -192 l 257
 151 -205 176 -218 205 -217 c 256
 223 -216 275 -203 278 -180 c 256
 281 -159 245 -155 233 -154 c 256
 199 -152 163 -160 129 -166 c 257
 276 40 l 257
EndSplineSet
EndChar

StartChar: Egrave
Encoding: 200 200 193
GlifName: E_grave
Width: 597
VWidth: 0
Flags: HMW
LayerCount: 2
Fore
SplineSet
150 0 m 257
 212 175 l 257
 551 175 l 257
 489 0 l 257
 150 0 l 257
330 525 m 257
 391 700 l 257
 730 700 l 257
 669 525 l 257
 330 525 l 257
244 275 m 257
 304 445 l 257
 624 445 l 257
 564 275 l 257
 244 275 l 257
248 700 m 257
 452 700 l 257
 212 0 l 257
 8 0 l 257
 248 700 l 257
402 946 m 257
 545 1001 l 257
 637 833 l 257
 527 790 l 257
 402 946 l 257
EndSplineSet
EndChar

StartChar: Eacute
Encoding: 201 201 194
GlifName: E_acute
Width: 597
VWidth: 0
Flags: HMW
LayerCount: 2
Fore
SplineSet
150 0 m 257
 212 175 l 257
 551 175 l 257
 489 0 l 257
 150 0 l 257
330 525 m 257
 391 700 l 257
 730 700 l 257
 669 525 l 257
 330 525 l 257
244 275 m 257
 304 445 l 257
 624 445 l 257
 564 275 l 257
 244 275 l 257
248 700 m 257
 452 700 l 257
 212 0 l 257
 8 0 l 257
 248 700 l 257
738 933 m 257
 525 791 l 257
 425 847 l 257
 614 998 l 257
 738 933 l 257
EndSplineSet
EndChar

StartChar: Ecircumflex
Encoding: 202 202 195
GlifName: E_circumflex
Width: 597
VWidth: 0
Flags: HMW
LayerCount: 2
Fore
SplineSet
150 0 m 257
 212 175 l 257
 551 175 l 257
 489 0 l 257
 150 0 l 257
330 525 m 257
 391 700 l 257
 730 700 l 257
 669 525 l 257
 330 525 l 257
244 275 m 257
 304 445 l 257
 624 445 l 257
 564 275 l 257
 244 275 l 257
248 700 m 257
 452 700 l 257
 212 0 l 257
 8 0 l 257
 248 700 l 257
565 893 m 257
 426 800 l 257
 383 846 l 257
 575 981 l 257
 688 835 l 257
 635 800 l 257
 565 893 l 257
EndSplineSet
EndChar

StartChar: Edieresis
Encoding: 203 203 196
GlifName: E_dieresis
Width: 597
VWidth: 0
Flags: HMW
LayerCount: 2
Fore
SplineSet
150 0 m 257
 212 175 l 257
 551 175 l 257
 489 0 l 257
 150 0 l 257
330 525 m 257
 391 700 l 257
 730 700 l 257
 669 525 l 257
 330 525 l 257
244 275 m 257
 304 445 l 257
 624 445 l 257
 564 275 l 257
 244 275 l 257
248 700 m 257
 452 700 l 257
 212 0 l 257
 8 0 l 257
 248 700 l 257
572 881 m 256
 587 934 647 975 701 975 c 256
 756 975 795 930 780 875 c 256
 765 822 705 781 651 781 c 256
 596 781 557 826 572 881 c 256
318 881 m 256
 333 934 393 975 447 975 c 256
 502 975 541 930 526 875 c 256
 511 822 451 781 397 781 c 256
 342 781 303 826 318 881 c 256
EndSplineSet
EndChar

StartChar: Igrave
Encoding: 204 204 197
GlifName: I_grave
Width: 343
VWidth: 0
Flags: HMW
LayerCount: 2
Fore
SplineSet
248 700 m 257
 466 700 l 257
 226 0 l 257
 8 0 l 257
 248 700 l 257
261 946 m 257
 404 1001 l 257
 496 833 l 257
 386 790 l 257
 261 946 l 257
EndSplineSet
EndChar

StartChar: Iacute
Encoding: 205 205 198
GlifName: I_acute
Width: 343
VWidth: 0
Flags: HMW
LayerCount: 2
Fore
SplineSet
248 700 m 257
 466 700 l 257
 226 0 l 257
 8 0 l 257
 248 700 l 257
597 933 m 257
 384 791 l 257
 284 847 l 257
 473 998 l 257
 597 933 l 257
EndSplineSet
EndChar

StartChar: Icircumflex
Encoding: 206 206 199
GlifName: I_circumflex
Width: 343
VWidth: 0
Flags: HMW
LayerCount: 2
Fore
SplineSet
248 700 m 257
 466 700 l 257
 226 0 l 257
 8 0 l 257
 248 700 l 257
423 893 m 257
 285 800 l 257
 242 846 l 257
 434 981 l 257
 547 835 l 257
 494 800 l 257
 423 893 l 257
EndSplineSet
EndChar

StartChar: Idieresis
Encoding: 207 207 200
GlifName: I_dieresis
Width: 343
VWidth: 0
Flags: HMW
LayerCount: 2
Fore
SplineSet
248 700 m 257
 466 700 l 257
 226 0 l 257
 8 0 l 257
 248 700 l 257
441 881 m 256
 456 934 516 975 570 975 c 256
 625 975 664 930 649 875 c 256
 634 822 574 781 520 781 c 256
 465 781 426 826 441 881 c 256
187 881 m 256
 202 934 261 975 315 975 c 256
 370 975 410 930 395 875 c 256
 380 822 320 781 266 781 c 256
 211 781 172 826 187 881 c 256
EndSplineSet
EndChar

StartChar: Ntilde
Encoding: 209 209 201
GlifName: N_tilde
Width: 757
VWidth: 0
Flags: HMW
LayerCount: 2
Fore
SplineSet
676 700 m 257
 880 700 l 257
 630 -31 l 257
 322 320 l 257
 212 0 l 257
 8 0 l 257
 258 731 l 257
 565 380 l 257
 676 700 l 257
373 862 m 257
 406 911 456 962 520 959 c 256
 565 957 591 904 636 907 c 256
 671 909 700 939 725 961 c 257
 785 864 l 257
 746 821 684 771 621 776 c 256
 576 780 544 838 498 830 c 256
 469 825 452 802 435 781 c 257
 373 862 l 257
EndSplineSet
EndChar

StartChar: Eth
Encoding: 208 208 202
GlifName: E_th
Width: 719
VWidth: 0
Flags: HMW
LayerCount: 2
Fore
SplineSet
49 298 m 257
 90 413 l 257
 454 413 l 257
 413 298 l 257
 49 298 l 257
248 700 m 257
 470 700 l 257
 230 0 l 257
 8 0 l 257
 248 700 l 257
282 0 m 256
 150 0 l 257
 217 190 l 257
 314 190 l 256
 418 194 500 253 538 350 c 256
 573 439 545 504 446 509 c 258
 324 511 l 257
 391 700 l 257
 497 700 l 256
 702 695 823 552 760 350 c 256
 695 139 500 5 282 0 c 256
EndSplineSet
EndChar

StartChar: Ograve
Encoding: 210 210 203
GlifName: O_grave
Width: 790
VWidth: 0
Flags: HMW
LayerCount: 2
Fore
SplineSet
315 350 m 256
 287 277 293 182 390 179 c 256
 489 176 572 264 606 350 c 256
 635 424 629 519 531 521 c 256
 432 523 348 436 315 350 c 256
90 350 m 256
 154 555 356 720 574 720 c 256
 784 720 891 543 831 350 c 256
 767 143 565 -31 343 -30 c 256
 129 -29 30 157 90 350 c 256
509 946 m 257
 651 1001 l 257
 743 833 l 257
 634 790 l 257
 509 946 l 257
EndSplineSet
EndChar

StartChar: Oacute
Encoding: 211 211 204
GlifName: O_acute
Width: 790
VWidth: 0
Flags: HMW
LayerCount: 2
Fore
SplineSet
315 350 m 256
 287 277 293 182 390 179 c 256
 489 176 572 264 606 350 c 256
 635 424 629 519 531 521 c 256
 432 523 348 436 315 350 c 256
90 350 m 256
 154 555 356 720 574 720 c 256
 784 720 891 543 831 350 c 256
 767 143 565 -31 343 -30 c 256
 129 -29 30 157 90 350 c 256
843 933 m 257
 630 791 l 257
 530 847 l 257
 719 998 l 257
 843 933 l 257
EndSplineSet
EndChar

StartChar: Ocircumflex
Encoding: 212 212 205
GlifName: O_circumflex
Width: 790
VWidth: 0
Flags: HMW
LayerCount: 2
Fore
SplineSet
315 350 m 256
 287 277 293 182 390 179 c 256
 489 176 572 264 606 350 c 256
 635 424 629 519 531 521 c 256
 432 523 348 436 315 350 c 256
90 350 m 256
 154 555 356 720 574 720 c 256
 784 720 891 543 831 350 c 256
 767 143 565 -31 343 -30 c 256
 129 -29 30 157 90 350 c 256
671 893 m 257
 533 800 l 257
 489 846 l 257
 682 981 l 257
 795 835 l 257
 741 800 l 257
 671 893 l 257
EndSplineSet
EndChar

StartChar: Otilde
Encoding: 213 213 206
GlifName: O_tilde
Width: 790
VWidth: 0
Flags: HMW
LayerCount: 2
Fore
SplineSet
315 350 m 256
 287 277 293 182 390 179 c 256
 489 176 572 264 606 350 c 256
 635 424 629 519 531 521 c 256
 432 523 348 436 315 350 c 256
90 350 m 256
 154 555 356 720 574 720 c 256
 784 720 891 543 831 350 c 256
 767 143 565 -31 343 -30 c 256
 129 -29 30 157 90 350 c 256
483 867 m 257
 473 906 572 945 600 944 c 256
 639 943 662 897 701 900 c 256
 729 902 753 929 773 946 c 257
 811 898 l 257
 783 867 741 827 695 831 c 256
 657 834 636 878 598 876 c 256
 568 874 546 847 529 826 c 257
 483 867 l 257
EndSplineSet
EndChar

StartChar: Odieresis
Encoding: 214 214 207
GlifName: O_dieresis
Width: 790
VWidth: 0
Flags: HMW
LayerCount: 2
Fore
SplineSet
315 350 m 256
 287 277 293 182 390 179 c 256
 489 176 572 264 606 350 c 256
 635 424 629 519 531 521 c 256
 432 523 348 436 315 350 c 256
90 350 m 256
 154 555 356 720 574 720 c 256
 784 720 891 543 831 350 c 256
 767 143 565 -31 343 -30 c 256
 129 -29 30 157 90 350 c 256
664 881 m 256
 679 934 739 975 793 975 c 256
 848 975 887 930 872 875 c 256
 857 822 797 781 743 781 c 256
 688 781 649 826 664 881 c 256
410 881 m 256
 425 934 484 975 538 975 c 256
 593 975 633 930 618 875 c 256
 603 822 543 781 489 781 c 256
 434 781 395 826 410 881 c 256
EndSplineSet
EndChar

StartChar: Ugrave
Encoding: 217 217 208
GlifName: U_grave
Width: 701
VWidth: 0
Flags: HMW
LayerCount: 2
Fore
SplineSet
243 700 m 257
 457 700 l 257
 299 250 l 258
 287 209 285 159 339 156 c 256
 395 153 440 204 460 251 c 257
 616 700 l 257
 829 700 l 257
 670 230 l 258
 612 68 469 -40 295 -40 c 256
 132 -40 37 69 84 230 c 256
 243 700 l 257
447 936 m 257
 590 991 l 257
 681 823 l 257
 572 780 l 257
 447 936 l 257
EndSplineSet
EndChar

StartChar: Uacute
Encoding: 218 218 209
GlifName: U_acute
Width: 701
VWidth: 0
Flags: HMW
LayerCount: 2
Fore
SplineSet
243 700 m 257
 457 700 l 257
 299 250 l 258
 287 209 285 159 339 156 c 256
 395 153 440 204 460 251 c 257
 616 700 l 257
 829 700 l 257
 670 230 l 258
 612 68 469 -40 295 -40 c 256
 132 -40 37 69 84 230 c 256
 243 700 l 257
786 923 m 257
 573 781 l 257
 473 837 l 257
 662 988 l 257
 786 923 l 257
EndSplineSet
EndChar

StartChar: Ucircumflex
Encoding: 219 219 210
GlifName: U_circumflex
Width: 701
VWidth: 0
Flags: HMW
LayerCount: 2
Fore
SplineSet
243 700 m 257
 457 700 l 257
 299 250 l 258
 287 209 285 159 339 156 c 256
 395 153 440 204 460 251 c 257
 616 700 l 257
 829 700 l 257
 670 230 l 258
 612 68 469 -40 295 -40 c 256
 132 -40 37 69 84 230 c 256
 243 700 l 257
598 857 m 257
 497 780 l 257
 387 877 l 257
 632 1010 l 257
 800 863 l 257
 646 778 l 257
 598 857 l 257
EndSplineSet
EndChar

StartChar: Udieresis
Encoding: 220 220 211
GlifName: U_dieresis
Width: 701
VWidth: 0
Flags: HMW
LayerCount: 2
Fore
SplineSet
243 700 m 257
 457 700 l 257
 299 250 l 258
 287 209 285 159 339 156 c 256
 395 153 440 204 460 251 c 257
 616 700 l 257
 829 700 l 257
 670 230 l 258
 612 68 469 -40 295 -40 c 256
 132 -40 37 69 84 230 c 256
 243 700 l 257
648 881 m 256
 663 934 723 975 777 975 c 256
 832 975 871 930 856 875 c 256
 841 822 781 781 727 781 c 256
 672 781 633 826 648 881 c 256
337 881 m 256
 352 934 412 975 466 975 c 256
 521 975 560 930 545 875 c 256
 530 822 470 781 416 781 c 256
 361 781 322 826 337 881 c 256
EndSplineSet
EndChar

StartChar: Yacute
Encoding: 221 221 212
GlifName: Y_acute
Width: 677
VWidth: 0
Flags: HMW
LayerCount: 2
Fore
SplineSet
774 923 m 257
 561 781 l 257
 461 837 l 257
 650 988 l 257
 774 923 l 257
620 699 m 257
 876 699 l 257
 485 265 l 257
 394 0 l 257
 175 0 l 257
 274 285 l 257
 183 700 l 257
 418 700 l 257
 442 481 l 257
 620 699 l 257
EndSplineSet
EndChar

StartChar: agrave
Encoding: 224 224 213
GlifName: agrave
Width: 545
VWidth: 0
Flags: HMW
LayerCount: 2
Fore
SplineSet
196 137 m 256
 192 119 207 109 222 107 c 256
 274 102 309 152 334 189 c 257
 332 128 l 257
 295 47 227 -8 135 -9 c 256
 52 -10 -19 42 6 131 c 256
 34 228 143 273 236 274 c 256
 290 275 338 262 382 231 c 257
 357 148 l 257
 332 168 308 182 274 180 c 256
 250 178 203 164 196 137 c 256
167 297 m 257
 145 426 l 257
 218 452 294 475 372 475 c 256
 465 475 582 435 555 320 c 257
 447 0 l 257
 266 0 l 257
 365 273 l 257
 373 307 360 326 325 331 c 256
 273 338 215 314 167 297 c 257
288 691 m 257
 431 746 l 257
 523 578 l 257
 413 535 l 257
 288 691 l 257
EndSplineSet
Substitution2: "alt a" agrave.alt
EndChar

StartChar: aacute
Encoding: 225 225 214
GlifName: aacute
Width: 545
VWidth: 0
Flags: HMW
LayerCount: 2
Fore
SplineSet
196 137 m 256
 192 119 207 109 222 107 c 256
 274 102 309 152 334 189 c 257
 332 128 l 257
 295 47 227 -8 135 -9 c 256
 52 -10 -19 42 6 131 c 256
 34 228 143 273 236 274 c 256
 290 275 338 262 382 231 c 257
 357 148 l 257
 332 168 308 182 274 180 c 256
 250 178 203 164 196 137 c 256
167 297 m 257
 145 426 l 257
 218 452 294 475 372 475 c 256
 465 475 582 435 555 320 c 257
 447 0 l 257
 266 0 l 257
 365 273 l 257
 373 307 360 326 325 331 c 256
 273 338 215 314 167 297 c 257
627 678 m 257
 414 536 l 257
 315 592 l 257
 504 743 l 257
 627 678 l 257
EndSplineSet
Substitution2: "alt a" aacute.alt
EndChar

StartChar: acircumflex
Encoding: 226 226 215
GlifName: acircumflex
Width: 545
VWidth: 0
Flags: HMW
LayerCount: 2
Fore
SplineSet
196 137 m 256
 192 119 207 109 222 107 c 256
 274 102 309 152 334 189 c 257
 332 128 l 257
 295 47 227 -8 135 -9 c 256
 52 -10 -19 42 6 131 c 256
 34 228 143 273 236 274 c 256
 290 275 338 262 382 231 c 257
 357 148 l 257
 332 168 308 182 274 180 c 256
 250 178 203 164 196 137 c 256
167 297 m 257
 145 426 l 257
 218 452 294 475 372 475 c 256
 465 475 582 435 555 320 c 257
 447 0 l 257
 266 0 l 257
 365 273 l 257
 373 307 360 326 325 331 c 256
 273 338 215 314 167 297 c 257
439 612 m 257
 338 535 l 257
 228 632 l 257
 473 765 l 257
 642 618 l 257
 487 533 l 257
 439 612 l 257
EndSplineSet
Substitution2: "alt a" acircumflex.alt
EndChar

StartChar: atilde
Encoding: 227 227 216
GlifName: atilde
Width: 545
VWidth: 0
Flags: HMW
LayerCount: 2
Fore
SplineSet
196 137 m 256
 192 119 207 109 222 107 c 256
 274 102 309 152 334 189 c 257
 332 128 l 257
 295 47 227 -8 135 -9 c 256
 52 -10 -19 42 6 131 c 256
 34 228 143 273 236 274 c 256
 290 275 338 262 382 231 c 257
 357 148 l 257
 332 168 308 182 274 180 c 256
 250 178 203 164 196 137 c 256
167 297 m 257
 145 426 l 257
 218 452 294 475 372 475 c 256
 465 475 582 435 555 320 c 257
 447 0 l 257
 266 0 l 257
 365 273 l 257
 373 307 360 326 325 331 c 256
 273 338 215 314 167 297 c 257
228 622 m 257
 261 671 311 722 375 719 c 256
 420 717 447 664 492 667 c 256
 527 669 555 699 580 721 c 257
 640 624 l 257
 601 581 539 531 476 536 c 256
 431 540 399 598 353 590 c 256
 324 585 307 562 290 541 c 257
 228 622 l 257
EndSplineSet
Substitution2: "alt a" atilde.alt
EndChar

StartChar: adieresis
Encoding: 228 228 217
GlifName: adieresis
Width: 545
VWidth: 0
Flags: HMW
LayerCount: 2
Fore
SplineSet
196 137 m 256
 192 119 207 109 222 107 c 256
 274 102 309 152 334 189 c 257
 332 128 l 257
 295 47 227 -8 135 -9 c 256
 52 -10 -19 42 6 131 c 256
 34 228 143 273 236 274 c 256
 290 275 338 262 382 231 c 257
 357 148 l 257
 332 168 308 182 274 180 c 256
 250 178 203 164 196 137 c 256
167 297 m 257
 145 426 l 257
 218 452 294 475 372 475 c 256
 465 475 582 435 555 320 c 257
 447 0 l 257
 266 0 l 257
 365 273 l 257
 373 307 360 326 325 331 c 256
 273 338 215 314 167 297 c 257
461 636 m 256
 476 689 535 730 589 730 c 256
 644 730 683 685 668 630 c 256
 653 577 594 536 540 536 c 256
 485 536 446 581 461 636 c 256
207 636 m 256
 222 689 281 730 335 730 c 256
 390 730 429 685 414 630 c 256
 399 577 340 536 286 536 c 256
 231 536 192 581 207 636 c 256
EndSplineSet
Substitution2: "alt a" adieresis.alt
EndChar

StartChar: aring
Encoding: 229 229 218
GlifName: aring
Width: 545
VWidth: 0
Flags: HMW
LayerCount: 2
Fore
SplineSet
196 137 m 256
 192 119 207 109 222 107 c 256
 274 102 309 152 334 189 c 257
 332 128 l 257
 295 47 227 -8 135 -9 c 256
 52 -10 -19 42 6 131 c 256
 34 228 143 273 236 274 c 256
 290 275 338 262 382 231 c 257
 357 148 l 257
 332 168 308 182 274 180 c 256
 250 178 203 164 196 137 c 256
167 297 m 257
 145 426 l 257
 218 452 294 475 372 475 c 256
 465 475 582 435 555 320 c 257
 447 0 l 257
 266 0 l 257
 365 273 l 257
 373 307 360 326 325 331 c 256
 273 338 215 314 167 297 c 257
313 662 m 256
 332 731 407 784 478 784 c 256
 549 784 600 729 580 658 c 256
 561 588 485 536 413 536 c 256
 342 536 293 592 313 662 c 256
405 658 m 256
 400 643 406 619 425 617 c 256
 447 615 480 643 487 662 c 256
 492 677 486 702 467 704 c 256
 445 706 412 677 405 658 c 256
EndSplineSet
Substitution2: "alt a" aring.alt
EndChar

StartChar: germandbls
Encoding: 223 223 219
GlifName: germandbls
Width: 569
VWidth: 0
Flags: HMW
LayerCount: 2
Fore
SplineSet
266 164 m 257
 328 175 387 203 410 267 c 256
 434 335 375 340 323 345 c 257
 365 479 l 257
 508 470 631 382 585 224 c 256
 536 56 375 -2 215 -9 c 257
 266 164 l 257
342 406 m 257
 377 519 l 257
 413 524 472 533 481 578 c 256
 487 607 466.074 625 439 625 c 256
 402 625 370.685 608.763 359 575 c 258
 160 0 l 257
 -21 0 l 257
 185 607 l 258
 227 730 353 800 481 800 c 256
 595 800 704 732 668 605 c 256
 628 461 476 413 342 406 c 257
EndSplineSet
EndChar

StartChar: ae
Encoding: 230 230 220
GlifName: ae
Width: 883
VWidth: 0
Flags: HMW
LayerCount: 2
Fore
SplineSet
195 137 m 256
 190 119 206 109 221 107 c 256
 272 102 305 152 328 190 c 257
 398 127 l 257
 354 30 268 -10 164 -9 c 256
 81 -9 -22 29 6 131 c 256
 33 228 144 273 236 274 c 256
 290 275 338 262 382 231 c 257
 357 148 l 257
 332 168 307 182 273 180 c 256
 249 178 202 164 195 137 c 256
167 297 m 257
 145 426 l 257
 217 451 294 476 372 475 c 256
 473 473 516 418 489 320 c 257
 426 130 l 257
 310 131 l 257
 365 273 l 257
 373 307 361 326 326 331 c 256
 274 338 215 314 167 297 c 257
414 191 m 257
 443 284 l 257
 883 284 l 257
 866 190 l 257
 414 191 l 257
689 240 m 258
 700 273 726 342 671 348 c 256
 615 354 580 291 559 250 c 258
 548 229 l 257
 532 190 521 130 577 122 c 256
 616 117 653 142 682 164 c 257
 851 133 l 257
 778 47 679 -10 564 -10 c 256
 414 -9 366 95 407 230 c 256
 412 247 418 263 425 279 c 256
 479 393 597 470 723 470 c 256
 860 470 917 364 883 239 c 256
 879 223 872 207 867 191 c 257
 679 212 l 257
 689 240 l 258
EndSplineSet
EndChar

StartChar: ccedilla
Encoding: 231 231 221
GlifName: ccedilla
Width: 473
VWidth: 0
Flags: HMW
LayerCount: 2
Fore
SplineSet
243 229 m 256
 225 182 246 143 297 140 c 256
 348 136 396 168 436 195 c 257
 386 21 l 257
 342 2 297 -10 249 -10 c 256
 111 -10 7 89 49 231 c 256
 92 377 241 470 389 470 c 256
 436 470 478 458 521 440 c 257
 469 264 l 257
 447 298 423 323 380 322 c 256
 326 321 262 280 243 229 c 256
170 60 m 257
 318 55 l 257
 169 -73 l 257
 183 -70 199 -67 213 -68 c 256
 272 -72 300 -126 284 -180 c 256
 263 -252 184 -291 114 -295 c 256
 55 -298 1 -279 -51 -252 c 257
 21 -172 l 257
 45 -185 70 -198 99 -197 c 256
 117 -196 169 -183 172 -160 c 256
 175 -139 139 -135 127 -134 c 256
 93 -132 57 -140 23 -146 c 257
 170 60 l 257
EndSplineSet
EndChar

StartChar: egrave
Encoding: 232 232 222
GlifName: egrave
Width: 573
VWidth: 0
Flags: HMW
LayerCount: 2
Fore
SplineSet
141 191 m 257
 170 283 l 257
 385 285 l 257
 388 312 394 345 358 349 c 256
 302 355 269 289 248 249 c 258
 237 229 l 257
 221 190 211 130 266 122 c 256
 305 117 343 142 372 164 c 257
 541 133 l 257
 468 46 370 -10 254 -10 c 256
 110 -10 8 82 50 230 c 256
 55 247 61 263 68 279 c 256
 125 401 252 470 384 470 c 256
 526 470 609 381 572 239 c 256
 568 223 562 207 557 191 c 257
 141 191 l 257
301 687 m 257
 444 742 l 257
 535 574 l 257
 426 531 l 257
 301 687 l 257
EndSplineSet
EndChar

StartChar: eacute
Encoding: 233 233 223
GlifName: eacute
Width: 573
VWidth: 0
Flags: HMW
LayerCount: 2
Fore
SplineSet
141 191 m 257
 170 283 l 257
 385 285 l 257
 388 312 394 345 358 349 c 256
 302 355 269 289 248 249 c 258
 237 229 l 257
 221 190 211 130 266 122 c 256
 305 117 343 142 372 164 c 257
 541 133 l 257
 468 46 370 -10 254 -10 c 256
 110 -10 8 82 50 230 c 256
 55 247 61 263 68 279 c 256
 125 401 252 470 384 470 c 256
 526 470 609 381 572 239 c 256
 568 223 562 207 557 191 c 257
 141 191 l 257
640 674 m 257
 427 532 l 257
 327 588 l 257
 516 739 l 257
 640 674 l 257
EndSplineSet
EndChar

StartChar: ecircumflex
Encoding: 234 234 224
GlifName: ecircumflex
Width: 573
VWidth: 0
Flags: HMW
LayerCount: 2
Fore
SplineSet
141 191 m 257
 170 283 l 257
 385 285 l 257
 388 312 394 345 358 349 c 256
 302 355 269 289 248 249 c 258
 237 229 l 257
 221 190 211 130 266 122 c 256
 305 117 343 142 372 164 c 257
 541 133 l 257
 468 46 370 -10 254 -10 c 256
 110 -10 8 82 50 230 c 256
 55 247 61 263 68 279 c 256
 125 401 252 470 384 470 c 256
 526 470 609 381 572 239 c 256
 568 223 562 207 557 191 c 257
 141 191 l 257
452 608 m 257
 351 531 l 257
 241 628 l 257
 485 761 l 257
 654 614 l 257
 500 529 l 257
 452 608 l 257
EndSplineSet
EndChar

StartChar: edieresis
Encoding: 235 235 225
GlifName: edieresis
Width: 573
VWidth: 0
Flags: HMW
LayerCount: 2
Fore
SplineSet
141 191 m 257
 170 283 l 257
 385 285 l 257
 388 312 394 345 358 349 c 256
 302 355 269 289 248 249 c 258
 237 229 l 257
 221 190 211 130 266 122 c 256
 305 117 343 142 372 164 c 257
 541 133 l 257
 468 46 370 -10 254 -10 c 256
 110 -10 8 82 50 230 c 256
 55 247 61 263 68 279 c 256
 125 401 252 470 384 470 c 256
 526 470 609 381 572 239 c 256
 568 223 562 207 557 191 c 257
 141 191 l 257
473 632 m 256
 488 685 548 726 602 726 c 256
 657 726 696 681 681 626 c 256
 666 573 606 532 552 532 c 256
 497 532 458 577 473 632 c 256
219 632 m 256
 234 685 294 726 348 726 c 256
 403 726 442 681 427 626 c 256
 412 573 352 532 298 532 c 256
 243 532 204 577 219 632 c 256
EndSplineSet
EndChar

StartChar: igrave
Encoding: 236 236 226
GlifName: igrave
Width: 269
VWidth: 0
Flags: HMW
LayerCount: 2
Fore
SplineSet
146 460 m 257
 329 460 l 257
 171 0 l 257
 -12 0 l 257
 146 460 l 257
133 687 m 257
 276 742 l 257
 368 574 l 257
 258 531 l 257
 133 687 l 257
EndSplineSet
EndChar

StartChar: dotlessi
Encoding: 305 305 227
GlifName: dotlessi
Width: 269
VWidth: 0
Flags: HMW
LayerCount: 2
Fore
SplineSet
146 460 m 257
 329 460 l 257
 171 0 l 257
 -12 0 l 257
 146 460 l 257
EndSplineSet
EndChar

StartChar: kgreenlandic
Encoding: 312 312 228
GlifName: kgreenlandic
Width: 620
VWidth: 0
Flags: HMW
LayerCount: 2
Fore
SplineSet
147 460 m 257
 328 460 l 257
 170 0 l 257
 -11 0 l 257
 147 460 l 257
470 459 m 257
 707 459 l 257
 445 262 l 257
 552 0 l 257
 351 0 l 257
 232 280 l 257
 470 459 l 257
EndSplineSet
EndChar

StartChar: iacute
Encoding: 237 237 229
GlifName: iacute
Width: 269
VWidth: 0
Flags: HMW
LayerCount: 2
Fore
SplineSet
146 460 m 257
 329 460 l 257
 171 0 l 257
 -12 0 l 257
 146 460 l 257
484 674 m 257
 271 532 l 257
 171 588 l 257
 360 739 l 257
 484 674 l 257
EndSplineSet
EndChar

StartChar: icircumflex
Encoding: 238 238 230
GlifName: icircumflex
Width: 269
VWidth: 0
Flags: HMW
LayerCount: 2
Fore
SplineSet
146 460 m 257
 329 460 l 257
 171 0 l 257
 -12 0 l 257
 146 460 l 257
296 608 m 257
 195 531 l 257
 85 628 l 257
 329 761 l 257
 498 614 l 257
 344 529 l 257
 296 608 l 257
EndSplineSet
EndChar

StartChar: idieresis
Encoding: 239 239 231
GlifName: idieresis
Width: 269
VWidth: 0
Flags: HMW
LayerCount: 2
Fore
SplineSet
146 460 m 257
 329 460 l 257
 171 0 l 257
 -12 0 l 257
 146 460 l 257
318 632 m 256
 333 685 393 726 447 726 c 256
 502 726 541 681 526 626 c 256
 511 573 451 532 397 532 c 256
 342 532 303 577 318 632 c 256
64 632 m 256
 79 685 139 726 193 726 c 256
 248 726 287 681 272 626 c 256
 257 573 197 532 143 532 c 256
 88 532 49 577 64 632 c 256
EndSplineSet
EndChar

StartChar: ntilde
Encoding: 241 241 232
GlifName: ntilde
Width: 569
VWidth: 0
Flags: HMW
LayerCount: 2
Fore
SplineSet
337 460 m 257
 179 0 l 257
 -11 0 l 257
 147 460 l 257
 337 460 l 257
372 280 m 257
 378 302 388 336 356 344 c 256
 320 352 291 304 275 281 c 257
 244 272 l 257
 279 370 343 469 459 471 c 256
 567 473 598 394 572 300 c 257
 471 0 l 257
 271 0 l 257
 372 280 l 257
236 618 m 257
 269 667 318 718 382 715 c 256
 428 713 453 660 499 663 c 256
 534 665 563 695 588 717 c 257
 648 620 l 257
 608 577 546 527 483 532 c 256
 438 536 407 594 361 586 c 256
 332 581 314 558 297 537 c 257
 236 618 l 257
EndSplineSet
EndChar

StartChar: ograve
Encoding: 242 242 233
GlifName: ograve
Width: 579
VWidth: 0
Flags: HMW
LayerCount: 2
Fore
SplineSet
49 231 m 256
 91 374 237 471 384 471 c 256
 522 471 620 368 579 229 c 256
 537 86 390 -10 244 -10 c 256
 106 -10 8 92 49 231 c 256
242 229 m 256
 229 196 232 149 276 146 c 256
 323 143 370 191 386 231 c 256
 399 264 396 312 352 315 c 256
 305 318 258 269 242 229 c 256
320 687 m 257
 462 742 l 257
 554 574 l 257
 444 531 l 257
 320 687 l 257
EndSplineSet
EndChar

StartChar: oacute
Encoding: 243 243 234
GlifName: oacute
Width: 579
VWidth: 0
Flags: HMW
LayerCount: 2
Fore
SplineSet
49 231 m 256
 91 374 237 471 384 471 c 256
 522 471 620 368 579 229 c 256
 537 86 390 -10 244 -10 c 256
 106 -10 8 92 49 231 c 256
242 229 m 256
 229 196 232 149 276 146 c 256
 323 143 370 191 386 231 c 256
 399 264 396 312 352 315 c 256
 305 318 258 269 242 229 c 256
621 674 m 257
 408 532 l 257
 308 588 l 257
 497 739 l 257
 621 674 l 257
EndSplineSet
EndChar

StartChar: ocircumflex
Encoding: 244 244 235
GlifName: ocircumflex
Width: 579
VWidth: 0
Flags: HMW
LayerCount: 2
Fore
SplineSet
49 231 m 256
 91 374 237 471 384 471 c 256
 522 471 620 368 579 229 c 256
 537 86 390 -10 244 -10 c 256
 106 -10 8 92 49 231 c 256
242 229 m 256
 229 196 232 149 276 146 c 256
 323 143 370 191 386 231 c 256
 399 264 396 312 352 315 c 256
 305 318 258 269 242 229 c 256
452 608 m 257
 351 531 l 257
 241 628 l 257
 485 761 l 257
 654 614 l 257
 500 529 l 257
 452 608 l 257
EndSplineSet
EndChar

StartChar: otilde
Encoding: 245 245 236
GlifName: otilde
Width: 579
VWidth: 0
Flags: HMW
LayerCount: 2
Fore
SplineSet
49 231 m 256
 91 374 237 471 384 471 c 256
 522 471 620 368 579 229 c 256
 537 86 390 -10 244 -10 c 256
 106 -10 8 92 49 231 c 256
242 229 m 256
 229 196 232 149 276 146 c 256
 323 143 370 191 386 231 c 256
 399 264 396 312 352 315 c 256
 305 318 258 269 242 229 c 256
241 617 m 257
 231 670 349 716 388 715 c 256
 434 714 458 660 504 663 c 256
 539 665 568 695 593 717 c 257
 653 620 l 257
 614 577 552 527 489 532 c 256
 444 536 412 594 366 586 c 256
 337 581 320 558 303 537 c 257
 241 617 l 257
EndSplineSet
EndChar

StartChar: odieresis
Encoding: 246 246 237
GlifName: odieresis
Width: 579
VWidth: 0
Flags: HMW
LayerCount: 2
Fore
SplineSet
49 231 m 256
 91 374 237 471 384 471 c 256
 522 471 620 368 579 229 c 256
 537 86 390 -10 244 -10 c 256
 106 -10 8 92 49 231 c 256
242 229 m 256
 229 196 232 149 276 146 c 256
 323 143 370 191 386 231 c 256
 399 264 396 312 352 315 c 256
 305 318 258 269 242 229 c 256
473 632 m 256
 488 685 548 726 602 726 c 256
 657 726 696 681 681 626 c 256
 666 573 606 532 552 532 c 256
 497 532 458 577 473 632 c 256
219 632 m 256
 234 685 294 726 348 726 c 256
 403 726 442 681 427 626 c 256
 412 573 352 532 298 532 c 256
 243 532 204 577 219 632 c 256
EndSplineSet
EndChar

StartChar: ugrave
Encoding: 249 249 238
GlifName: ugrave
Width: 569
VWidth: 0
Flags: HMW
LayerCount: 2
Fore
SplineSet
280 0 m 257
 439 460 l 257
 629 460 l 257
 471 0 l 257
 280 0 l 257
246 180 m 257
 240 158 229 124 261 116 c 256
 297 108 327 156 343 179 c 257
 374 188 l 257
 339 90 274 -9 158 -11 c 256
 50 -13 20 66 46 160 c 257
 147 460 l 257
 347 460 l 257
 246 180 l 257
314 687 m 257
 457 742 l 257
 548 574 l 257
 439 531 l 257
 314 687 l 257
EndSplineSet
EndChar

StartChar: uacute
Encoding: 250 250 239
GlifName: uacute
Width: 569
VWidth: 0
Flags: HMW
LayerCount: 2
Fore
SplineSet
280 0 m 257
 439 460 l 257
 629 460 l 257
 471 0 l 257
 280 0 l 257
246 180 m 257
 240 158 229 124 261 116 c 256
 297 108 327 156 343 179 c 257
 374 188 l 257
 339 90 274 -9 158 -11 c 256
 50 -13 20 66 46 160 c 257
 147 460 l 257
 347 460 l 257
 246 180 l 257
615 674 m 257
 403 532 l 257
 303 588 l 257
 492 739 l 257
 615 674 l 257
EndSplineSet
EndChar

StartChar: ucircumflex
Encoding: 251 251 240
GlifName: ucircumflex
Width: 569
VWidth: 0
Flags: HMW
LayerCount: 2
Fore
SplineSet
280 0 m 257
 439 460 l 257
 629 460 l 257
 471 0 l 257
 280 0 l 257
246 180 m 257
 240 158 229 124 261 116 c 256
 297 108 327 156 343 179 c 257
 374 188 l 257
 339 90 274 -9 158 -11 c 256
 50 -13 20 66 46 160 c 257
 147 460 l 257
 347 460 l 257
 246 180 l 257
447 608 m 257
 345 531 l 257
 235 628 l 257
 480 761 l 257
 649 614 l 257
 494 529 l 257
 447 608 l 257
EndSplineSet
EndChar

StartChar: udieresis
Encoding: 252 252 241
GlifName: udieresis
Width: 569
VWidth: 0
Flags: HMW
LayerCount: 2
Fore
SplineSet
280 0 m 257
 439 460 l 257
 629 460 l 257
 471 0 l 257
 280 0 l 257
246 180 m 257
 240 158 229 124 261 116 c 256
 297 108 327 156 343 179 c 257
 374 188 l 257
 339 90 274 -9 158 -11 c 256
 50 -13 20 66 46 160 c 257
 147 460 l 257
 347 460 l 257
 246 180 l 257
469 632 m 256
 484 685 543 726 597 726 c 256
 652 726 692 681 677 626 c 256
 662 573 602 532 548 532 c 256
 493 532 454 577 469 632 c 256
215 632 m 256
 230 685 289 726 343 726 c 256
 398 726 437 681 422 626 c 256
 407 573 348 532 294 532 c 256
 239 532 200 577 215 632 c 256
EndSplineSet
EndChar

StartChar: yacute
Encoding: 253 253 242
GlifName: yacute
Width: 536
VWidth: 0
Flags: HMW
LayerCount: 2
Fore
SplineSet
662 459 m 257
 146 -219 l 257
 -48 -219 l 257
 141 31 l 257
 91 460 l 257
 285 460 l 257
 297 85 l 257
 192 86 l 257
 463 459 l 257
 662 459 l 257
618 674 m 257
 405 532 l 257
 306 588 l 257
 495 739 l 257
 618 674 l 257
EndSplineSet
EndChar

StartChar: thorn
Encoding: 254 254 243
GlifName: thorn
Width: 606
VWidth: 0
Flags: HMW
LayerCount: 2
Fore
SplineSet
104 -220 m 257
 -86 -220 l 257
 256 780 l 257
 447 780 l 257
 104 -220 l 257
606 229 m 256
 571 112 464 -10 333 -10 c 256
 201 -10 177 128 208 231 c 256
 243 346 343 469 473 469 c 256
 605 469 638 336 606 229 c 256
409 231 m 256
 422 265 416 316 371 319 c 256
 323 322 271 270 255 229 c 256
 242 195 248 144 293 141 c 256
 341 138 393 190 409 231 c 256
EndSplineSet
EndChar

StartChar: ydieresis
Encoding: 255 255 244
GlifName: ydieresis
Width: 536
VWidth: 0
Flags: HMW
LayerCount: 2
Fore
SplineSet
662 459 m 257
 146 -219 l 257
 -48 -219 l 257
 141 31 l 257
 91 460 l 257
 285 460 l 257
 297 85 l 257
 192 86 l 257
 463 459 l 257
 662 459 l 257
452 632 m 256
 467 685 527 726 581 726 c 256
 636 726 675 681 660 626 c 256
 645 573 585 532 531 532 c 256
 476 532 437 577 452 632 c 256
198 632 m 256
 213 685 272 726 326 726 c 256
 381 726 421 681 406 626 c 256
 391 573 331 532 277 532 c 256
 222 532 183 577 198 632 c 256
EndSplineSet
EndChar

StartChar: Amacron
Encoding: 256 256 245
GlifName: A_macron
Width: 733
VWidth: 0
Flags: HMW
LayerCount: 2
Fore
SplineSet
167 90 m 257
 223 248 l 257
 578 248 l 257
 522 90 l 257
 167 90 l 257
451 382 m 257
 301 188 l 257
 301 137 l 257
 184 0 l 257
 -68 0 l 257
 566 755 l 257
 682 0 l 257
 452 0 l 257
 424 133 l 257
 459 189 l 257
 451 382 l 257
404 810 m 257
 462 975 l 257
 830 975 l 257
 772 810 l 257
 404 810 l 257
EndSplineSet
EndChar

StartChar: amacron
Encoding: 257 257 246
GlifName: amacron
Width: 545
VWidth: 0
Flags: HMW
LayerCount: 2
Fore
SplineSet
196 137 m 256
 192 119 207 109 222 107 c 256
 274 102 309 152 334 189 c 257
 332 128 l 257
 295 47 227 -8 135 -9 c 256
 52 -10 -19 42 6 131 c 256
 34 228 143 273 236 274 c 256
 290 275 338 262 382 231 c 257
 357 148 l 257
 332 168 308 182 274 180 c 256
 250 178 203 164 196 137 c 256
167 297 m 257
 145 426 l 257
 218 452 294 475 372 475 c 256
 465 475 582 435 555 320 c 257
 447 0 l 257
 266 0 l 257
 365 273 l 257
 373 307 360 326 325 331 c 256
 273 338 215 314 167 297 c 257
218 535 m 257
 276 700 l 257
 646 700 l 257
 588 535 l 257
 218 535 l 257
EndSplineSet
Substitution2: "alt a" amacron.alt
EndChar

StartChar: breve
Encoding: 728 728 247
GlifName: breve
Width: 513
VWidth: 0
Flags: HMW
LayerCount: 2
Fore
SplineSet
322 850 m 257
 429 850 l 257
 432 829 431 805 458 801 c 256
 487 797 510 830 525 849 c 257
 642 848 l 257
 609 764 543 702 448 701 c 256
 354 700 313 762 322 850 c 257
EndSplineSet
EndChar

StartChar: Abreve
Encoding: 258 258 248
GlifName: A_breve
Width: 733
VWidth: 0
Flags: HMW
LayerCount: 2
Fore
SplineSet
167 90 m 257
 223 248 l 257
 578 248 l 257
 522 90 l 257
 167 90 l 257
451 382 m 257
 301 188 l 257
 301 137 l 257
 184 0 l 257
 -68 0 l 257
 566 755 l 257
 682 0 l 257
 452 0 l 257
 424 133 l 257
 459 189 l 257
 451 382 l 257
478 960 m 257
 585 960 l 257
 587 939 585 915 612 911 c 256
 641 907 664 940 680 959 c 257
 798 957 l 257
 763 873 695 812 600 811 c 256
 505 810 467 873 478 960 c 257
EndSplineSet
EndChar

StartChar: abreve
Encoding: 259 259 249
GlifName: abreve
Width: 545
VWidth: 0
Flags: HMW
LayerCount: 2
Fore
SplineSet
196 137 m 256
 192 119 207 109 222 107 c 256
 274 102 309 152 334 189 c 257
 332 128 l 257
 295 47 227 -8 135 -9 c 256
 52 -10 -19 42 6 131 c 256
 34 228 143 273 236 274 c 256
 290 275 338 262 382 231 c 257
 357 148 l 257
 332 168 308 182 274 180 c 256
 250 178 203 164 196 137 c 256
167 297 m 257
 145 426 l 257
 218 452 294 475 372 475 c 256
 465 475 582 435 555 320 c 257
 447 0 l 257
 266 0 l 257
 365 273 l 257
 373 307 360 326 325 331 c 256
 273 338 215 314 167 297 c 257
293 685 m 257
 400 685 l 257
 402 664 400 640 427 636 c 256
 456 632 479 665 495 684 c 257
 613 682 l 257
 578 598 510 537 415 536 c 256
 320 535 282 598 293 685 c 257
EndSplineSet
Substitution2: "alt a" abreve.alt
EndChar

StartChar: Aogonek
Encoding: 260 260 250
GlifName: A_ogonek
Width: 733
VWidth: 0
Flags: HMW
LayerCount: 2
Fore
SplineSet
167 90 m 257
 223 248 l 257
 578 248 l 257
 522 90 l 257
 167 90 l 257
451 382 m 257
 301 188 l 257
 301 137 l 257
 184 0 l 257
 -68 0 l 257
 566 755 l 257
 682 0 l 257
 452 0 l 257
 424 133 l 257
 459 189 l 257
 451 382 l 257
577 -99 m 257
 585 -183 l 257
 552 -205 517 -221 477 -220 c 256
 420 -218 379 -177 394 -118 c 256
 414 -41 506 -5 570 25 c 257
 611 0 l 257
 578 -25 524 -48 510 -91 c 256
 507 -102 506 -116 520 -119 c 256
 537 -122 562 -106 577 -99 c 257
EndSplineSet
EndChar

StartChar: aogonek
Encoding: 261 261 251
GlifName: aogonek
Width: 545
VWidth: 0
Flags: HMW
LayerCount: 2
Fore
SplineSet
196 137 m 256
 192 119 207 109 222 107 c 256
 274 102 309 152 334 189 c 257
 332 128 l 257
 295 47 227 -8 135 -9 c 256
 52 -10 -19 42 6 131 c 256
 34 228 143 273 236 274 c 256
 290 275 338 262 382 231 c 257
 357 148 l 257
 332 168 308 182 274 180 c 256
 250 178 203 164 196 137 c 256
167 297 m 257
 145 426 l 257
 218 452 294 475 372 475 c 256
 465 475 582 435 555 320 c 257
 447 0 l 257
 266 0 l 257
 365 273 l 257
 373 307 360 326 325 331 c 256
 273 338 215 314 167 297 c 257
365 -99 m 257
 373 -183 l 257
 340 -205 305 -221 265 -220 c 256
 208 -218 167 -177 182 -118 c 256
 202 -41 294 -5 358 25 c 257
 399 0 l 257
 366 -25 313 -48 299 -91 c 256
 296 -102 295 -116 309 -119 c 256
 326 -122 350 -106 365 -99 c 257
EndSplineSet
Substitution2: "alt a" aogonek.alt
EndChar

StartChar: Cacute
Encoding: 262 262 252
GlifName: C_acute
Width: 668
VWidth: 0
Flags: HMW
LayerCount: 2
Fore
SplineSet
323 350 m 256
 290 265 329 191 423 188 c 256
 505 186 579 230 646 271 c 257
 580 47 l 257
 512 8 440 -20 361 -20 c 256
 148 -20 27 148 90 350 c 256
 156 563 365 721 589 720 c 256
 662 720 722 695 779 652 c 257
 711 427 l 257
 673 480 625 512 557 512 c 256
 457 511 359 443 323 350 c 256
797 923 m 257
 584 781 l 257
 485 837 l 257
 674 988 l 257
 797 923 l 257
EndSplineSet
EndChar

StartChar: cacute
Encoding: 263 263 253
GlifName: cacute
Width: 473
VWidth: 0
Flags: HMW
LayerCount: 2
Fore
SplineSet
243 229 m 256
 225 182 246 143 297 140 c 256
 348 136 396 168 436 195 c 257
 386 21 l 257
 342 2 297 -10 249 -10 c 256
 111 -10 7 89 49 231 c 256
 92 377 241 470 389 470 c 256
 436 470 478 458 521 440 c 257
 469 264 l 257
 447 298 423 323 380 322 c 256
 326 321 262 280 243 229 c 256
598 674 m 257
 385 532 l 257
 285 588 l 257
 474 739 l 257
 598 674 l 257
EndSplineSet
EndChar

StartChar: Ccircumflex
Encoding: 264 264 254
GlifName: C_circumflex
Width: 668
VWidth: 0
Flags: HMW
LayerCount: 2
Fore
SplineSet
323 350 m 256
 290 265 329 191 423 188 c 256
 505 186 579 230 646 271 c 257
 580 47 l 257
 512 8 440 -20 361 -20 c 256
 148 -20 27 148 90 350 c 256
 156 563 365 721 589 720 c 256
 662 720 722 695 779 652 c 257
 711 427 l 257
 673 480 625 512 557 512 c 256
 457 511 359 443 323 350 c 256
657 857 m 257
 555 780 l 257
 445 877 l 257
 690 1010 l 257
 859 863 l 257
 704 778 l 257
 657 857 l 257
EndSplineSet
EndChar

StartChar: ccircumflex
Encoding: 265 265 255
GlifName: ccircumflex
Width: 473
VWidth: 0
Flags: HMW
LayerCount: 2
Fore
SplineSet
243 229 m 256
 225 182 246 143 297 140 c 256
 348 136 396 168 436 195 c 257
 386 21 l 257
 342 2 297 -10 249 -10 c 256
 111 -10 7 89 49 231 c 256
 92 377 241 470 389 470 c 256
 436 470 478 458 521 440 c 257
 469 264 l 257
 447 298 423 323 380 322 c 256
 326 321 262 280 243 229 c 256
410 608 m 257
 308 531 l 257
 198 628 l 257
 443 761 l 257
 612 614 l 257
 458 529 l 257
 410 608 l 257
EndSplineSet
EndChar

StartChar: Cdotaccent
Encoding: 266 266 256
GlifName: C_dotaccent
Width: 668
VWidth: 0
Flags: HMW
LayerCount: 2
Fore
SplineSet
323 350 m 256
 290 265 329 191 423 188 c 256
 505 186 579 230 646 271 c 257
 580 47 l 257
 512 8 440 -20 361 -20 c 256
 148 -20 27 148 90 350 c 256
 156 563 365 721 589 720 c 256
 662 720 722 695 779 652 c 257
 711 427 l 257
 673 480 625 512 557 512 c 256
 457 511 359 443 323 350 c 256
513 881 m 256
 528 934 588 975 642 975 c 256
 697 975 736 930 721 875 c 256
 706 822 646 781 592 781 c 256
 537 781 498 826 513 881 c 256
EndSplineSet
EndChar

StartChar: cdotaccent
Encoding: 267 267 257
GlifName: cdotaccent
Width: 473
VWidth: 0
Flags: HMW
LayerCount: 2
Fore
SplineSet
243 229 m 256
 225 182 246 143 297 140 c 256
 348 136 396 168 436 195 c 257
 386 21 l 257
 342 2 297 -10 249 -10 c 256
 111 -10 7 89 49 231 c 256
 92 377 241 470 389 470 c 256
 436 470 478 458 521 440 c 257
 469 264 l 257
 447 298 423 323 380 322 c 256
 326 321 262 280 243 229 c 256
317 642 m 256
 332 695 392 736 446 736 c 256
 501 736 540 691 525 636 c 256
 510 583 450 542 396 542 c 256
 341 542 302 587 317 642 c 256
EndSplineSet
EndChar

StartChar: Ccaron
Encoding: 268 268 258
GlifName: C_caron
Width: 668
VWidth: 0
Flags: HMW
LayerCount: 2
Fore
SplineSet
323 350 m 256
 290 265 329 191 423 188 c 256
 505 186 579 230 646 271 c 257
 580 47 l 257
 512 8 440 -20 361 -20 c 256
 148 -20 27 148 90 350 c 256
 156 563 365 721 589 720 c 256
 662 720 722 695 779 652 c 257
 711 427 l 257
 673 480 625 512 557 512 c 256
 457 511 359 443 323 350 c 256
664 933 m 257
 766 1010 l 257
 876 913 l 257
 631 780 l 257
 462 927 l 257
 617 1012 l 257
 664 933 l 257
EndSplineSet
EndChar

StartChar: ccaron
Encoding: 269 269 259
GlifName: ccaron
Width: 473
VWidth: 0
Flags: HMW
LayerCount: 2
Fore
SplineSet
243 229 m 256
 225 182 246 143 297 140 c 256
 348 136 396 168 436 195 c 257
 386 21 l 257
 342 2 297 -10 249 -10 c 256
 111 -10 7 89 49 231 c 256
 92 377 241 470 389 470 c 256
 436 470 478 458 521 440 c 257
 469 264 l 257
 447 298 423 323 380 322 c 256
 326 321 262 280 243 229 c 256
418 684 m 257
 519 761 l 257
 629 664 l 257
 384 531 l 257
 215 678 l 257
 370 763 l 257
 418 684 l 257
EndSplineSet
EndChar

StartChar: Dcaron
Encoding: 270 270 260
GlifName: D_caron
Width: 719
VWidth: 0
Flags: HMW
LayerCount: 2
Fore
SplineSet
248 700 m 257
 470 700 l 257
 230 0 l 257
 8 0 l 257
 248 700 l 257
282 0 m 256
 150 0 l 257
 217 190 l 257
 314 190 l 256
 418 194 500 253 538 350 c 256
 573 439 545 504 446 509 c 258
 324 511 l 257
 391 700 l 257
 497 700 l 256
 702 695 823 552 760 350 c 256
 695 139 500 5 282 0 c 256
634 933 m 257
 735 1010 l 257
 845 913 l 257
 601 780 l 257
 432 927 l 257
 586 1012 l 257
 634 933 l 257
EndSplineSet
EndChar

StartChar: dcaron
Encoding: 271 271 261
GlifName: dcaron
Width: 606
VWidth: 0
Flags: HMW
LayerCount: 2
Fore
SplineSet
586 780 m 257
 776 780 l 257
 508 0 l 257
 318 0 l 257
 586 780 l 257
49 231 m 256
 84 348 192 470 323 470 c 256
 455 470 478 332 447 229 c 256
 412 114 313 -9 183 -9 c 256
 51 -9 17 124 49 231 c 256
247 229 m 256
 234 195 239 144 284 141 c 256
 332 138 384 190 400 231 c 256
 413 265 408 316 363 319 c 256
 315 322 263 270 247 229 c 256
876 778 m 257
 1061 742 l 257
 850 498 l 257
 706 525 l 257
 876 778 l 257
EndSplineSet
EndChar

StartChar: Dcroat
Encoding: 272 272 262
GlifName: D_croat
Width: 719
VWidth: 0
Flags: HMW
LayerCount: 2
Fore
SplineSet
45 290 m 257
 86 405 l 257
 441 405 l 257
 400 290 l 257
 45 290 l 257
248 700 m 257
 470 700 l 257
 230 0 l 257
 8 0 l 257
 248 700 l 257
282 0 m 256
 150 0 l 257
 217 190 l 257
 314 190 l 256
 418 194 500 253 538 350 c 256
 573 439 545 504 446 509 c 258
 324 511 l 257
 391 700 l 257
 497 700 l 256
 702 695 823 552 760 350 c 256
 695 139 500 5 282 0 c 256
EndSplineSet
EndChar

StartChar: dcroat
Encoding: 273 273 263
GlifName: dcroat
Width: 606
VWidth: 0
Flags: HMW
LayerCount: 2
Fore
SplineSet
407 550 m 257
 448 665 l 257
 822 665 l 257
 781 550 l 257
 407 550 l 257
586 780 m 257
 776 780 l 257
 508 0 l 257
 318 0 l 257
 586 780 l 257
49 231 m 256
 84 348 192 470 323 470 c 256
 455 470 478 332 447 229 c 256
 412 114 313 -9 183 -9 c 256
 51 -9 17 124 49 231 c 256
247 229 m 256
 234 195 239 144 284 141 c 256
 332 138 384 190 400 231 c 256
 413 265 408 316 363 319 c 256
 315 322 263 270 247 229 c 256
EndSplineSet
EndChar

StartChar: Emacron
Encoding: 274 274 264
GlifName: E_macron
Width: 597
VWidth: 0
Flags: HMW
LayerCount: 2
Fore
SplineSet
150 0 m 257
 212 175 l 257
 551 175 l 257
 489 0 l 257
 150 0 l 257
330 525 m 257
 391 700 l 257
 730 700 l 257
 669 525 l 257
 330 525 l 257
244 275 m 257
 304 445 l 257
 624 445 l 257
 564 275 l 257
 244 275 l 257
248 700 m 257
 452 700 l 257
 212 0 l 257
 8 0 l 257
 248 700 l 257
330 780 m 257
 388 945 l 257
 757 945 l 257
 699 780 l 257
 330 780 l 257
EndSplineSet
EndChar

StartChar: emacron
Encoding: 275 275 265
GlifName: emacron
Width: 573
VWidth: 0
Flags: HMW
LayerCount: 2
Fore
SplineSet
141 191 m 257
 170 283 l 257
 385 285 l 257
 388 312 394 345 358 349 c 256
 302 355 269 289 248 249 c 258
 237 229 l 257
 221 190 211 130 266 122 c 256
 305 117 343 142 372 164 c 257
 541 133 l 257
 468 46 370 -10 254 -10 c 256
 110 -10 8 82 50 230 c 256
 55 247 61 263 68 279 c 256
 125 401 252 470 384 470 c 256
 526 470 609 381 572 239 c 256
 568 223 562 207 557 191 c 257
 141 191 l 257
231 531 m 257
 289 696 l 257
 659 696 l 257
 600 531 l 257
 231 531 l 257
EndSplineSet
EndChar

StartChar: Ebreve
Encoding: 276 276 266
GlifName: E_breve
Width: 597
VWidth: 0
Flags: HMW
LayerCount: 2
Fore
SplineSet
150 0 m 257
 212 175 l 257
 551 175 l 257
 489 0 l 257
 150 0 l 257
330 525 m 257
 391 700 l 257
 730 700 l 257
 669 525 l 257
 330 525 l 257
244 275 m 257
 304 445 l 257
 624 445 l 257
 564 275 l 257
 244 275 l 257
248 700 m 257
 452 700 l 257
 212 0 l 257
 8 0 l 257
 248 700 l 257
403 930 m 257
 511 930 l 257
 513 909 510 885 537 881 c 256
 566 877 590 910 606 929 c 257
 724 927 l 257
 689 843 621 782 526 781 c 256
 431 780 392 843 403 930 c 257
EndSplineSet
EndChar

StartChar: ebreve
Encoding: 277 277 267
GlifName: ebreve
Width: 573
VWidth: 0
Flags: HMW
LayerCount: 2
Fore
SplineSet
141 191 m 257
 170 283 l 257
 385 285 l 257
 388 312 394 345 358 349 c 256
 302 355 269 289 248 249 c 258
 237 229 l 257
 221 190 211 130 266 122 c 256
 305 117 343 142 372 164 c 257
 541 133 l 257
 468 46 370 -10 254 -10 c 256
 110 -10 8 82 50 230 c 256
 55 247 61 263 68 279 c 256
 125 401 252 470 384 470 c 256
 526 470 609 381 572 239 c 256
 568 223 562 207 557 191 c 257
 141 191 l 257
305 681 m 257
 413 681 l 257
 415 660 412 636 439 632 c 256
 468 628 492 661 508 680 c 257
 626 678 l 257
 591 594 523 533 428 532 c 256
 333 531 294 594 305 681 c 257
EndSplineSet
EndChar

StartChar: Edotaccent
Encoding: 278 278 268
GlifName: E_dotaccent
Width: 597
VWidth: 0
Flags: HMW
LayerCount: 2
Fore
SplineSet
150 0 m 257
 212 175 l 257
 551 175 l 257
 489 0 l 257
 150 0 l 257
330 525 m 257
 391 700 l 257
 730 700 l 257
 669 525 l 257
 330 525 l 257
244 275 m 257
 304 445 l 257
 624 445 l 257
 564 275 l 257
 244 275 l 257
248 700 m 257
 452 700 l 257
 212 0 l 257
 8 0 l 257
 248 700 l 257
444 881 m 256
 459 934 519 975 573 975 c 256
 628 975 667 930 652 875 c 256
 637 822 578 781 524 781 c 256
 469 781 429 826 444 881 c 256
EndSplineSet
EndChar

StartChar: edotaccent
Encoding: 279 279 269
GlifName: edotaccent
Width: 573
VWidth: 0
Flags: HMW
LayerCount: 2
Fore
SplineSet
141 191 m 257
 170 283 l 257
 385 285 l 257
 388 312 394 345 358 349 c 256
 302 355 269 289 248 249 c 258
 237 229 l 257
 221 190 211 130 266 122 c 256
 305 117 343 142 372 164 c 257
 541 133 l 257
 468 46 370 -10 254 -10 c 256
 110 -10 8 82 50 230 c 256
 55 247 61 263 68 279 c 256
 125 401 252 470 384 470 c 256
 526 470 609 381 572 239 c 256
 568 223 562 207 557 191 c 257
 141 191 l 257
346 632 m 256
 361 685 421 726 475 726 c 256
 530 726 569 681 554 626 c 256
 539 573 479 532 425 532 c 256
 370 532 331 577 346 632 c 256
EndSplineSet
EndChar

StartChar: Eogonek
Encoding: 280 280 270
GlifName: E_ogonek
Width: 597
VWidth: 0
Flags: HMW
LayerCount: 2
Fore
SplineSet
150 0 m 257
 212 175 l 257
 551 175 l 257
 489 0 l 257
 150 0 l 257
330 525 m 257
 391 700 l 257
 730 700 l 257
 669 525 l 257
 330 525 l 257
244 275 m 257
 304 445 l 257
 624 445 l 257
 564 275 l 257
 244 275 l 257
248 700 m 257
 452 700 l 257
 212 0 l 257
 8 0 l 257
 248 700 l 257
304 -99 m 257
 312 -183 l 257
 279 -205 244 -221 204 -220 c 256
 147 -218 106 -177 121 -118 c 256
 141 -41 233 -5 297 25 c 257
 338 0 l 257
 305 -25 252 -48 238 -91 c 256
 235 -102 233 -116 247 -119 c 256
 264 -122 289 -106 304 -99 c 257
EndSplineSet
EndChar

StartChar: eogonek
Encoding: 281 281 271
GlifName: eogonek
Width: 573
VWidth: 0
Flags: HMW
LayerCount: 2
Fore
SplineSet
141 191 m 257
 170 283 l 257
 385 285 l 257
 388 312 394 345 358 349 c 256
 302 355 269 289 248 249 c 258
 237 229 l 257
 221 190 211 130 266 122 c 256
 305 117 343 142 372 164 c 257
 541 133 l 257
 468 46 370 -10 254 -10 c 256
 110 -10 8 82 50 230 c 256
 55 247 61 263 68 279 c 256
 125 401 252 470 384 470 c 256
 526 470 609 381 572 239 c 256
 568 223 562 207 557 191 c 257
 141 191 l 257
237 -86 m 257
 245 -170 l 257
 213 -192 177 -207 137 -206 c 256
 80 -204 39 -164 54 -105 c 256
 74 -28 166 9 230 39 c 257
 270 8 l 257
 235 -12 184 -36 170 -77 c 256
 166 -88 166 -102 180 -105 c 256
 197 -108 222 -93 237 -86 c 257
EndSplineSet
EndChar

StartChar: Ecaron
Encoding: 282 282 272
GlifName: E_caron
Width: 597
VWidth: 0
Flags: HMW
LayerCount: 2
Fore
SplineSet
150 0 m 257
 212 175 l 257
 551 175 l 257
 489 0 l 257
 150 0 l 257
330 525 m 257
 391 700 l 257
 730 700 l 257
 669 525 l 257
 330 525 l 257
244 275 m 257
 304 445 l 257
 624 445 l 257
 564 275 l 257
 244 275 l 257
248 700 m 257
 452 700 l 257
 212 0 l 257
 8 0 l 257
 248 700 l 257
558 933 m 257
 660 1010 l 257
 769 913 l 257
 525 780 l 257
 356 927 l 257
 510 1012 l 257
 558 933 l 257
EndSplineSet
EndChar

StartChar: ecaron
Encoding: 283 283 273
GlifName: ecaron
Width: 573
VWidth: 0
Flags: HMW
LayerCount: 2
Fore
SplineSet
141 191 m 257
 170 283 l 257
 385 285 l 257
 388 312 394 345 358 349 c 256
 302 355 269 289 248 249 c 258
 237 229 l 257
 221 190 211 130 266 122 c 256
 305 117 343 142 372 164 c 257
 541 133 l 257
 468 46 370 -10 254 -10 c 256
 110 -10 8 82 50 230 c 256
 55 247 61 263 68 279 c 256
 125 401 252 470 384 470 c 256
 526 470 609 381 572 239 c 256
 568 223 562 207 557 191 c 257
 141 191 l 257
460 684 m 257
 561 761 l 257
 671 664 l 257
 427 531 l 257
 258 678 l 257
 412 763 l 257
 460 684 l 257
EndSplineSet
EndChar

StartChar: Gcircumflex
Encoding: 284 284 274
GlifName: G_circumflex
Width: 788
VWidth: 0
Flags: HMW
LayerCount: 2
Fore
SplineSet
427 240 m 257
 484 400 l 257
 834 399 l 257
 778 176 597 -29 353 -30 c 256
 137 -30 28 152 90 350 c 256
 157 563 369 722 593 720 c 256
 719 719 805 650 860 541 c 257
 642 452 l 257
 628 498 607 532 554 534 c 256
 446 539 349 444 312 350 c 256
 279 265 291 159 401 156 c 256
 474 154 531 195 582 242 c 257
 427 240 l 257
661 857 m 257
 560 780 l 257
 450 877 l 257
 695 1010 l 257
 863 863 l 257
 709 778 l 257
 661 857 l 257
EndSplineSet
EndChar

StartChar: gcircumflex
Encoding: 285 285 275
GlifName: gcircumflex
Width: 597
VWidth: 0
Flags: HMW
LayerCount: 2
Fore
SplineSet
-34 -34 m 257
 140 -36 l 257
 144 -71 148 -93 189 -94 c 256
 251 -96 298 -41 320 11 c 257
 476 460 l 257
 657 460 l 257
 504 9 l 258
 451 -139 334 -243 172 -244 c 256
 34 -245 -43 -173 -34 -34 c 257
53 241 m 256
 88 358 194 470 323 470 c 256
 453 470 483 344 451 239 c 256
 417 125 318 10 190 10 c 256
 61 10 21 133 53 241 c 256
250 238 m 256
 237 201 249 165 291 161 c 256
 336 157 390 202 404 242 c 256
 417 279 405 315 363 319 c 256
 318 323 264 278 250 238 c 256
495 608 m 257
 393 531 l 257
 283 628 l 257
 528 761 l 257
 697 614 l 257
 542 529 l 257
 495 608 l 257
EndSplineSet
EndChar

StartChar: Gbreve
Encoding: 286 286 276
GlifName: G_breve
Width: 788
VWidth: 0
Flags: HMW
LayerCount: 2
Fore
SplineSet
427 240 m 257
 484 400 l 257
 834 399 l 257
 778 176 597 -29 353 -30 c 256
 137 -30 28 152 90 350 c 256
 157 563 369 722 593 720 c 256
 719 719 805 650 860 541 c 257
 642 452 l 257
 628 498 607 532 554 534 c 256
 446 539 349 444 312 350 c 256
 279 265 291 159 401 156 c 256
 474 154 531 195 582 242 c 257
 427 240 l 257
514 930 m 257
 622 930 l 257
 624 909 621 885 648 881 c 256
 677 877 701 910 717 929 c 257
 835 927 l 257
 800 843 732 782 637 781 c 256
 542 780 503 843 514 930 c 257
EndSplineSet
EndChar

StartChar: gbreve
Encoding: 287 287 277
GlifName: gbreve
Width: 597
VWidth: 0
Flags: HMW
LayerCount: 2
Fore
SplineSet
-34 -34 m 257
 140 -36 l 257
 144 -71 148 -93 189 -94 c 256
 251 -96 298 -41 320 11 c 257
 476 460 l 257
 657 460 l 257
 504 9 l 258
 451 -139 334 -243 172 -244 c 256
 34 -245 -43 -173 -34 -34 c 257
53 241 m 256
 88 358 194 470 323 470 c 256
 453 470 483 344 451 239 c 256
 417 125 318 10 190 10 c 256
 61 10 21 133 53 241 c 256
250 238 m 256
 237 201 249 165 291 161 c 256
 336 157 390 202 404 242 c 256
 417 279 405 315 363 319 c 256
 318 323 264 278 250 238 c 256
348 681 m 257
 455 681 l 257
 457 660 455 636 482 632 c 256
 511 628 534 661 550 680 c 257
 668 678 l 257
 633 594 565 533 470 532 c 256
 375 531 337 594 348 681 c 257
EndSplineSet
EndChar

StartChar: Gdotaccent
Encoding: 288 288 278
GlifName: G_dotaccent
Width: 788
VWidth: 0
Flags: HMW
LayerCount: 2
Fore
SplineSet
427 240 m 257
 484 400 l 257
 834 399 l 257
 778 176 597 -29 353 -30 c 256
 137 -30 28 152 90 350 c 256
 157 563 369 722 593 720 c 256
 719 719 805 650 860 541 c 257
 642 452 l 257
 628 498 607 532 554 534 c 256
 446 539 349 444 312 350 c 256
 279 265 291 159 401 156 c 256
 474 154 531 195 582 242 c 257
 427 240 l 257
556 881 m 256
 571 934 630 975 684 975 c 256
 739 975 778 930 763 875 c 256
 748 822 689 781 635 781 c 256
 580 781 541 826 556 881 c 256
EndSplineSet
EndChar

StartChar: gdotaccent
Encoding: 289 289 279
GlifName: gdotaccent
Width: 597
VWidth: 0
Flags: HMW
LayerCount: 2
Fore
SplineSet
-34 -34 m 257
 140 -36 l 257
 144 -71 148 -93 189 -94 c 256
 251 -96 298 -41 320 11 c 257
 476 460 l 257
 657 460 l 257
 504 9 l 258
 451 -139 334 -243 172 -244 c 256
 34 -245 -43 -173 -34 -34 c 257
53 241 m 256
 88 358 194 470 323 470 c 256
 453 470 483 344 451 239 c 256
 417 125 318 10 190 10 c 256
 61 10 21 133 53 241 c 256
250 238 m 256
 237 201 249 165 291 161 c 256
 336 157 390 202 404 242 c 256
 417 279 405 315 363 319 c 256
 318 323 264 278 250 238 c 256
360 632 m 256
 375 685 435 726 489 726 c 256
 544 726 583 681 568 626 c 256
 553 573 493 532 439 532 c 256
 384 532 345 577 360 632 c 256
EndSplineSet
EndChar

StartChar: uni0122
Encoding: 290 290 280
GlifName: uni0122
Width: 788
VWidth: 0
Flags: HMW
LayerCount: 2
Fore
SplineSet
427 240 m 257
 484 400 l 257
 834 399 l 257
 778 176 597 -29 353 -30 c 256
 137 -30 28 152 90 350 c 256
 157 563 369 722 593 720 c 256
 719 719 805 650 860 541 c 257
 642 452 l 257
 628 498 607 532 554 534 c 256
 446 539 349 444 312 350 c 256
 279 265 291 159 401 156 c 256
 474 154 531 195 582 242 c 257
 427 240 l 257
216 -92 m 257
 401 -128 l 257
 190 -372 l 257
 45 -345 l 257
 216 -92 l 257
EndSplineSet
EndChar

StartChar: Hcircumflex
Encoding: 292 292 281
GlifName: H_circumflex
Width: 780
VWidth: 0
Flags: HMW
LayerCount: 2
Fore
SplineSet
142 265 m 257
 210 460 l 257
 744 460 l 257
 676 265 l 257
 142 265 l 257
690 700 m 257
 904 700 l 257
 664 0 l 257
 450 0 l 257
 690 700 l 257
248 700 m 257
 462 700 l 257
 221 0 l 257
 8 0 l 257
 248 700 l 257
638 857 m 257
 536 780 l 257
 426 877 l 257
 671 1010 l 257
 840 863 l 257
 686 778 l 257
 638 857 l 257
EndSplineSet
EndChar

StartChar: hcircumflex
Encoding: 293 293 282
GlifName: hcircumflex
Width: 559
VWidth: 0
Flags: HMW
LayerCount: 2
Fore
SplineSet
447 780 m 257
 179 0 l 257
 -11 0 l 257
 256 780 l 257
 447 780 l 257
372 280 m 257
 378 302 389 336 357 344 c 256
 321 352 292 304 276 281 c 257
 246 282 l 257
 282 380 347 479 463 481 c 256
 572 483 592 401 566 310 c 256
 461 0 l 257
 271 0 l 257
 372 280 l 257
548 917 m 257
 447 840 l 257
 337 937 l 257
 581 1070 l 257
 750 923 l 257
 596 838 l 257
 548 917 l 257
EndSplineSet
EndChar

StartChar: Itilde
Encoding: 296 296 283
GlifName: I_tilde
Width: 343
VWidth: 0
Flags: HMW
LayerCount: 2
Fore
SplineSet
248 700 m 257
 466 700 l 257
 226 0 l 257
 8 0 l 257
 248 700 l 257
208 867 m 257
 241 916 290 967 354 964 c 256
 400 962 425 909 471 912 c 256
 506 914 535 944 560 966 c 257
 621 869 l 257
 581 826 518 776 455 781 c 256
 410 785 380 843 334 835 c 256
 305 830 286 807 269 786 c 257
 208 867 l 257
EndSplineSet
EndChar

StartChar: itilde
Encoding: 297 297 284
GlifName: itilde
Width: 269
VWidth: 0
Flags: HMW
LayerCount: 2
Fore
SplineSet
146 460 m 257
 329 460 l 257
 171 0 l 257
 -12 0 l 257
 146 460 l 257
85 618 m 257
 118 667 168 718 232 715 c 256
 278 713 302 660 348 663 c 256
 383 665 413 695 438 717 c 257
 498 620 l 257
 458 577 395 527 332 532 c 256
 287 536 257 594 211 586 c 256
 182 581 164 558 147 537 c 257
 85 618 l 257
EndSplineSet
EndChar

StartChar: Imacron
Encoding: 298 298 285
GlifName: I_macron
Width: 343
VWidth: 0
Flags: HMW
LayerCount: 2
Fore
SplineSet
248 700 m 257
 466 700 l 257
 226 0 l 257
 8 0 l 257
 248 700 l 257
198 780 m 257
 256 945 l 257
 625 945 l 257
 567 780 l 257
 198 780 l 257
EndSplineSet
EndChar

StartChar: imacron
Encoding: 299 299 286
GlifName: imacron
Width: 269
VWidth: 0
Flags: HMW
LayerCount: 2
Fore
SplineSet
146 460 m 257
 329 460 l 257
 171 0 l 257
 -12 0 l 257
 146 460 l 257
76 531 m 257
 134 696 l 257
 503 696 l 257
 445 531 l 257
 76 531 l 257
EndSplineSet
EndChar

StartChar: Ibreve
Encoding: 300 300 287
GlifName: I_breve
Width: 343
VWidth: 0
Flags: HMW
LayerCount: 2
Fore
SplineSet
248 700 m 257
 466 700 l 257
 226 0 l 257
 8 0 l 257
 248 700 l 257
272 930 m 257
 379 930 l 257
 381 909 379 885 406 881 c 256
 435 877 459 910 475 929 c 257
 592 927 l 257
 557 843 489 782 394 781 c 256
 299 780 261 843 272 930 c 257
EndSplineSet
EndChar

StartChar: ibreve
Encoding: 301 301 288
GlifName: ibreve
Width: 269
VWidth: 0
Flags: HMW
LayerCount: 2
Fore
SplineSet
146 460 m 257
 329 460 l 257
 171 0 l 257
 -12 0 l 257
 146 460 l 257
149 681 m 257
 256 681 l 257
 258 660 256 636 283 632 c 256
 312 628 336 661 352 680 c 257
 470 678 l 257
 435 594 367 533 272 532 c 256
 177 531 138 594 149 681 c 257
EndSplineSet
EndChar

StartChar: Iogonek
Encoding: 302 302 289
GlifName: I_ogonek
Width: 343
VWidth: 0
Flags: HMW
LayerCount: 2
Fore
SplineSet
248 700 m 257
 466 700 l 257
 226 0 l 257
 8 0 l 257
 248 700 l 257
152 -96 m 257
 162 -180 l 257
 129 -202 94 -218 54 -217 c 256
 -3 -215 -46 -174 -31 -115 c 256
 -12 -38 81 -2 145 28 c 257
 187 -2 l 257
 151 -22 100 -46 86 -88 c 256
 82 -99 82 -113 96 -116 c 256
 113 -119 137 -103 152 -96 c 257
EndSplineSet
EndChar

StartChar: iogonek
Encoding: 303 303 290
GlifName: iogonek
Width: 269
VWidth: 0
Flags: HMW
LayerCount: 2
Fore
SplineSet
189 625 m 256
 204 678 263 719 317 719 c 256
 372 719 412 674 397 619 c 256
 382 566 322 525 268 525 c 256
 213 525 174 570 189 625 c 256
146 460 m 257
 329 460 l 257
 171 0 l 257
 -12 0 l 257
 146 460 l 257
98 -99 m 257
 106 -183 l 257
 73 -205 38 -221 -2 -220 c 256
 -59 -218 -100 -177 -85 -118 c 256
 -65 -41 27 -5 91 25 c 257
 132 0 l 257
 99 -25 45 -48 31 -91 c 256
 28 -102 27 -116 41 -119 c 256
 58 -122 83 -106 98 -99 c 257
EndSplineSet
EndChar

StartChar: Idotaccent
Encoding: 304 304 291
GlifName: I_dotaccent
Width: 343
VWidth: 0
Flags: HMW
LayerCount: 2
Fore
SplineSet
248 700 m 257
 466 700 l 257
 226 0 l 257
 8 0 l 257
 248 700 l 257
313 881 m 256
 328 934 388 975 442 975 c 256
 497 975 536 930 521 875 c 256
 506 822 446 781 392 781 c 256
 337 781 298 826 313 881 c 256
EndSplineSet
EndChar

StartChar: uni0136
Encoding: 310 310 292
GlifName: uni0136
Width: 734
VWidth: 0
Flags: HMW
LayerCount: 2
Fore
SplineSet
248 700 m 257
 471 700 l 257
 231 0 l 257
 8 0 l 257
 248 700 l 257
660 699 m 257
 921 699 l 257
 540 363 l 257
 681 0 l 257
 440 0 l 257
 294 375 l 257
 660 699 l 257
233 -62 m 257
 419 -98 l 257
 207 -342 l 257
 62 -315 l 257
 233 -62 l 257
EndSplineSet
EndChar

StartChar: uni0137
Encoding: 311 311 293
GlifName: uni0137
Width: 620
VWidth: 0
Flags: HMW
LayerCount: 2
Fore
SplineSet
256 780 m 257
 437 780 l 257
 170 0 l 257
 -11 0 l 257
 256 780 l 257
470 459 m 257
 707 459 l 257
 445 262 l 257
 552 0 l 257
 351 0 l 257
 232 280 l 257
 470 459 l 257
160 -62 m 257
 345 -98 l 257
 134 -342 l 257
 -11 -315 l 257
 160 -62 l 257
EndSplineSet
EndChar

StartChar: Lacute
Encoding: 313 313 294
GlifName: L_acute
Width: 541
VWidth: 0
Flags: HMW
LayerCount: 2
Fore
SplineSet
248 700 m 257
 462 700 l 257
 285 185 l 257
 554 185 l 257
 489 0 l 257
 8 0 l 257
 248 700 l 257
739 923 m 257
 526 781 l 257
 426 837 l 257
 615 988 l 257
 739 923 l 257
EndSplineSet
EndChar

StartChar: lacute
Encoding: 314 314 295
GlifName: lacute
Width: 277
VWidth: 0
Flags: HMW
LayerCount: 2
Fore
SplineSet
256 780 m 257
 447 780 l 257
 179 0 l 257
 -11 0 l 257
 256 780 l 257
595 983 m 257
 382 841 l 257
 282 897 l 257
 471 1048 l 257
 595 983 l 257
EndSplineSet
EndChar

StartChar: uni013B
Encoding: 315 315 296
GlifName: uni013B_
Width: 541
VWidth: 0
Flags: HMW
LayerCount: 2
Fore
SplineSet
248 700 m 257
 462 700 l 257
 285 185 l 257
 554 185 l 257
 489 0 l 257
 8 0 l 257
 248 700 l 257
172 -62 m 257
 357 -98 l 257
 146 -342 l 257
 1 -315 l 257
 172 -62 l 257
EndSplineSet
EndChar

StartChar: uni013C
Encoding: 316 316 297
GlifName: uni013C_
Width: 277
VWidth: 0
Flags: HMW
LayerCount: 2
Fore
SplineSet
256 780 m 257
 447 780 l 257
 179 0 l 257
 -11 0 l 257
 256 780 l 257
7 -62 m 257
 192 -98 l 257
 -19 -342 l 257
 -164 -315 l 257
 7 -62 l 257
EndSplineSet
EndChar

StartChar: Lcaron
Encoding: 317 317 298
GlifName: L_caron
Width: 541
VWidth: 0
Flags: HMW
LayerCount: 2
Fore
SplineSet
248 700 m 257
 462 700 l 257
 285 185 l 257
 554 185 l 257
 489 0 l 257
 8 0 l 257
 248 700 l 257
621 718 m 257
 805 682 l 257
 595 438 l 257
 450 465 l 257
 621 718 l 257
EndSplineSet
EndChar

StartChar: lcaron
Encoding: 318 318 299
GlifName: lcaron
Width: 277
VWidth: 0
Flags: HMW
LayerCount: 2
Fore
SplineSet
256 780 m 257
 447 780 l 257
 179 0 l 257
 -11 0 l 257
 256 780 l 257
566 778 m 257
 751 742 l 257
 540 498 l 257
 395 525 l 257
 566 778 l 257
EndSplineSet
EndChar

StartChar: Ldot
Encoding: 319 319 300
GlifName: L_dot
Width: 541
VWidth: 0
Flags: HMW
LayerCount: 2
Fore
SplineSet
248 700 m 257
 462 700 l 257
 285 185 l 257
 554 185 l 257
 489 0 l 257
 8 0 l 257
 248 700 l 257
436 442 m 256
 453 502 517 554 580 554 c 256
 644 554 681 497 664 438 c 256
 647 378 583 326 520 326 c 256
 456 326 419 383 436 442 c 256
EndSplineSet
EndChar

StartChar: ldot
Encoding: 320 320 301
GlifName: ldot
Width: 509
VWidth: 0
Flags: HMW
LayerCount: 2
Fore
SplineSet
256 780 m 257
 447 780 l 257
 179 0 l 257
 -11 0 l 257
 256 780 l 257
340 407 m 256
 357 467 421 519 484 519 c 256
 548 519 584 462 567 403 c 256
 550 343 487 291 424 291 c 256
 360 291 323 348 340 407 c 256
EndSplineSet
EndChar

StartChar: eth
Encoding: 240 240 302
GlifName: eth
Width: 683
VWidth: 0
Flags: HMW
LayerCount: 2
Fore
SplineSet
462 256 m 256
 478 297 465 344 415 346 c 256
 362 349 305 301 287 254 c 256
 271 212 285 168 334 166 c 256
 386 164 444 209 462 256 c 256
545 695 m 257
 643 480 l 258
 675 408 695 333 672 255 c 256
 624 91 462 -20 293 -20 c 256
 133 -20 26 97 76 256 c 256
 113 374 228 480 355 484 c 256
 404 486 437 464 472 433 c 257
 433 462 l 257
 295 695 l 257
 545 695 l 257
243 521 m 257
 269 605 l 257
 764 605 l 257
 737 521 l 257
 243 521 l 257
EndSplineSet
EndChar

StartChar: racute
Encoding: 341 341 303
GlifName: racute
Width: 426
VWidth: 0
Flags: HMW
LayerCount: 2
Fore
SplineSet
333 460 m 257
 174 0 l 257
 -11 0 l 257
 147 460 l 257
 333 460 l 257
392 263 m 257
 380 276 369 289 349 290 c 256
 297 292 264 233 242 195 c 257
 232 282 l 257
 266 365 339 478 443 472 c 256
 477 470 496 451 516 426 c 257
 392 263 l 257
585 675 m 257
 372 533 l 257
 272 589 l 257
 461 740 l 257
 585 675 l 257
EndSplineSet
EndChar

StartChar: rcaron
Encoding: 345 345 304
GlifName: rcaron
Width: 426
VWidth: 0
Flags: HMW
LayerCount: 2
Fore
SplineSet
333 460 m 257
 174 0 l 257
 -11 0 l 257
 147 460 l 257
 333 460 l 257
392 263 m 257
 380 276 369 289 349 290 c 256
 297 292 264 233 242 195 c 257
 231 282 l 257
 265 365 339 478 443 472 c 256
 477 470 496 451 516 426 c 257
 392 263 l 257
405 685 m 257
 506 762 l 257
 616 665 l 257
 372 532 l 257
 203 679 l 257
 357 764 l 257
 405 685 l 257
EndSplineSet
EndChar

StartChar: Rcaron
Encoding: 344 344 305
GlifName: R_caron
Width: 658
VWidth: 0
Flags: HMW
LayerCount: 2
Fore
SplineSet
310 300 m 257
 515 300 l 257
 600 0 l 257
 367 0 l 257
 310 300 l 257
248 700 m 257
 462 700 l 257
 221 0 l 257
 8 0 l 257
 248 700 l 257
320 516 m 257
 382 700 l 257
 516 700 l 256
 659 696 770 614 725 460 c 256
 679 305 530 224 376 220 c 256
 216 220 l 257
 275 385 l 257
 391 385 l 257
 433 388 485 407 501 451 c 256
 515 490 492 510 455 514 c 257
 320 516 l 257
583 933 m 257
 684 1010 l 257
 794 913 l 257
 549 780 l 257
 380 927 l 257
 535 1012 l 257
 583 933 l 257
EndSplineSet
EndChar

StartChar: uni0213
Encoding: 531 531 306
GlifName: uni0213
Width: 426
VWidth: 0
Flags: HMW
LayerCount: 2
Fore
SplineSet
333 460 m 257
 174 0 l 257
 -11 0 l 257
 147 460 l 257
 333 460 l 257
392 263 m 257
 380 276 369 289 349 290 c 256
 297 292 264 233 242 195 c 257
 231 282 l 257
 265 365 339 478 443 472 c 256
 477 470 496 451 516 426 c 257
 392 263 l 257
201 530 m 257
 302 532 l 257
 317 551 339 585 368 582 c 256
 399 579 400 556 404 531 c 257
 514 532 l 257
 536 612 519 679 424 681 c 256
 322 683 249 612 201 530 c 257
EndSplineSet
EndChar

StartChar: uni0212
Encoding: 530 530 307
GlifName: uni0212
Width: 658
VWidth: 0
Flags: HMW
LayerCount: 2
Fore
SplineSet
310 300 m 257
 515 300 l 257
 600 0 l 257
 367 0 l 257
 310 300 l 257
248 700 m 257
 462 700 l 257
 221 0 l 257
 8 0 l 257
 248 700 l 257
320 516 m 257
 382 700 l 257
 516 700 l 256
 659 696 770 614 725 460 c 256
 679 305 530 224 376 220 c 256
 216 220 l 257
 275 385 l 257
 391 385 l 257
 433 388 485 407 501 451 c 256
 515 490 492 510 455 514 c 257
 320 516 l 257
388 778 m 257
 489 780 l 257
 504 799 526 832 555 829 c 256
 586 826 587 804 591 779 c 257
 701 780 l 257
 723 860 706 927 611 929 c 256
 509 931 436 860 388 778 c 257
EndSplineSet
EndChar

StartChar: OE
Encoding: 338 338 308
GlifName: O_E_
Width: 926
VWidth: 0
Flags: HMW
LayerCount: 2
Fore
SplineSet
564 275 m 257
 624 445 l 257
 996 445 l 257
 936 275 l 257
 564 275 l 257
609 670 m 257
 814 670 l 257
 594 30 l 257
 389 30 l 257
 609 670 l 257
917 174 m 257
 862 0 l 257
 325 0 l 256
 131 7 35 170 90 350 c 256
 150 544 335 694 539 700 c 256
 1102 700 l 257
 1040 525 l 257
 672 525 l 257
 650 510 l 257
 546 510 l 256
 439 506 352 452 312 350 c 256
 275 255 312 196 413 191 c 256
 515 190 l 257
 533 175 l 257
 917 174 l 257
EndSplineSet
EndChar

StartChar: oe
Encoding: 339 339 309
GlifName: oe
Width: 846
VWidth: 0
Flags: HMW
LayerCount: 2
Fore
SplineSet
655 250 m 258
 664 279 685 341 638 348 c 256
 588 356 549 296 530 259 c 258
 516 230 l 257
 501 194 483 122 541 117 c 256
 581 113 618 143 647 165 c 257
 814 133 l 257
 752 57 658 -11 555 -10 c 256
 422 -9 395 124 426 230 c 256
 431 247 437 263 444 279 c 256
 492 380 596 471 713 470 c 256
 842 469 873 338 844 234 c 256
 840 220 834 205 829 191 c 257
 649 232 l 257
 655 250 l 258
465 191 m 257
 494 283 l 257
 840 283 l 257
 828 190 l 257
 465 191 l 257
54 231 m 256
 91 354 207 471 342 470 c 256
 477 469 498 337 466 230 c 256
 430 113 335 -8 202 -9 c 256
 68 -10 20 117 54 231 c 256
238 229 m 256
 225 195 227 149 272 146 c 256
 321 143 365 189 381 231 c 256
 395 266 394 312 347 314 c 256
 299 316 254 270 238 229 c 256
EndSplineSet
EndChar

StartChar: a.alt
Encoding: 65536 -1 310
GlifName: a.alt
Width: 606
VWidth: 0
Flags: HMW
LayerCount: 2
Fore
SplineSet
476 460 m 257
 667 460 l 257
 508 0 l 257
 318 0 l 257
 476 460 l 257
49 231 m 256
 84 348 192 470 323 470 c 256
 455 470 475 332 444 229 c 256
 409 114 313 -9 183 -9 c 256
 51 -9 17 124 49 231 c 256
247 229 m 256
 234 195 239 144 284 141 c 256
 332 138 381 190 397 231 c 256
 410 265 408 316 363 319 c 256
 315 322 263 270 247 229 c 256
EndSplineSet
EndChar

StartChar: Jcircumflex
Encoding: 308 308 312
GlifName: J_circumflex
Width: 362
VWidth: 0
Flags: HMW
LayerCount: 2
Fore
SplineSet
-149 -40 m 257
 -130 -54 -108 -72 -83 -71 c 256
 -41 -70 -8 -29 8 6 c 257
 248 700 l 257
 485 700 l 257
 230 -51 l 258
 180 -187 46 -250 -93 -250 c 256
 -170 -250 -239 -224 -305 -186 c 257
 -149 -40 l 257
428 857 m 257
 327 780 l 257
 217 877 l 257
 461 1010 l 257
 630 863 l 257
 476 778 l 257
 428 857 l 257
EndSplineSet
EndChar

StartChar: jcircumflex
Encoding: 309 309 313
GlifName: jcircumflex
Width: 268
VWidth: 0
Flags: HMW
LayerCount: 2
Fore
SplineSet
-123 -56 m 257
 -115 -67 -106 -80 -90 -81 c 256
 -60 -82 -33 -48 -21 -24 c 257
 147 460 l 257
 328 460 l 257
 145 -81 l 258
 107 -182 17 -250 -93 -249 c 256
 -148 -249 -189 -226 -229 -190 c 257
 -123 -56 l 257
296 608 m 257
 195 531 l 257
 85 628 l 257
 329 761 l 257
 498 614 l 257
 344 529 l 257
 296 608 l 257
EndSplineSet
EndChar

StartChar: Nacute
Encoding: 323 323 314
GlifName: N_acute
Width: 757
VWidth: 0
Flags: HMW
LayerCount: 2
Fore
SplineSet
676 700 m 257
 880 700 l 257
 630 -31 l 257
 322 320 l 257
 212 0 l 257
 8 0 l 257
 258 731 l 257
 565 380 l 257
 676 700 l 257
769 908 m 257
 556 766 l 257
 456 822 l 257
 645 973 l 257
 769 908 l 257
EndSplineSet
EndChar

StartChar: nacute
Encoding: 324 324 315
GlifName: nacute
Width: 569
VWidth: 0
Flags: HMW
LayerCount: 2
Fore
SplineSet
337 460 m 257
 179 0 l 257
 -11 0 l 257
 147 460 l 257
 337 460 l 257
372 280 m 257
 378 302 388 336 356 344 c 256
 320 352 291 304 275 281 c 257
 244 272 l 257
 279 370 343 469 459 471 c 256
 567 473 598 394 572 300 c 257
 471 0 l 257
 271 0 l 257
 372 280 l 257
634 674 m 257
 421 532 l 257
 322 588 l 257
 511 739 l 257
 634 674 l 257
EndSplineSet
EndChar

StartChar: uni0145
Encoding: 325 325 316
GlifName: uni0145
Width: 757
VWidth: 0
Flags: HMW
LayerCount: 2
Fore
SplineSet
239 -67 m 257
 423 -103 l 257
 213 -347 l 257
 68 -320 l 257
 239 -67 l 257
676 700 m 257
 880 700 l 257
 630 -31 l 257
 322 320 l 257
 212 0 l 257
 8 0 l 257
 258 731 l 257
 565 380 l 257
 676 700 l 257
EndSplineSet
EndChar

StartChar: uni0146
Encoding: 326 326 317
GlifName: uni0146
Width: 569
VWidth: 0
Flags: HMW
LayerCount: 2
Fore
SplineSet
337 460 m 257
 179 0 l 257
 -11 0 l 257
 147 460 l 257
 337 460 l 257
372 280 m 257
 378 302 388 336 356 344 c 256
 320 352 291 304 275 281 c 257
 244 272 l 257
 279 370 343 469 459 471 c 256
 567 473 598 394 572 300 c 257
 471 0 l 257
 271 0 l 257
 372 280 l 257
153 -62 m 257
 338 -98 l 257
 127 -342 l 257
 -18 -315 l 257
 153 -62 l 257
EndSplineSet
EndChar

StartChar: Ncaron
Encoding: 327 327 318
GlifName: N_caron
Width: 757
VWidth: 0
Flags: HMW
LayerCount: 2
Fore
SplineSet
589 918 m 257
 690 995 l 257
 800 898 l 257
 556 765 l 257
 387 912 l 257
 541 997 l 257
 589 918 l 257
676 700 m 257
 880 700 l 257
 630 -31 l 257
 322 320 l 257
 212 0 l 257
 8 0 l 257
 258 731 l 257
 565 380 l 257
 676 700 l 257
EndSplineSet
EndChar

StartChar: ncaron
Encoding: 328 328 319
GlifName: ncaron
Width: 569
VWidth: 0
Flags: HMW
LayerCount: 2
Fore
SplineSet
337 460 m 257
 179 0 l 257
 -11 0 l 257
 147 460 l 257
 337 460 l 257
372 280 m 257
 378 302 388 336 356 344 c 256
 320 352 291 304 275 281 c 257
 244 272 l 257
 279 370 343 469 459 471 c 256
 567 473 598 394 572 300 c 257
 471 0 l 257
 271 0 l 257
 372 280 l 257
454 684 m 257
 556 761 l 257
 666 664 l 257
 421 531 l 257
 252 678 l 257
 406 763 l 257
 454 684 l 257
EndSplineSet
EndChar

StartChar: Omacron
Encoding: 332 332 320
GlifName: O_macron
Width: 790
VWidth: 0
Flags: HMW
LayerCount: 2
Fore
SplineSet
315 350 m 256
 287 277 293 182 390 179 c 256
 489 176 572 264 606 350 c 256
 635 424 629 519 531 521 c 256
 432 523 348 436 315 350 c 256
90 350 m 256
 154 555 356 720 574 720 c 256
 784 720 891 543 831 350 c 256
 767 143 565 -31 343 -30 c 256
 129 -29 30 157 90 350 c 256
422 780 m 257
 480 945 l 257
 848 945 l 257
 790 780 l 257
 422 780 l 257
EndSplineSet
EndChar

StartChar: omacron
Encoding: 333 333 321
GlifName: omacron
Width: 579
VWidth: 0
Flags: HMW
LayerCount: 2
Fore
SplineSet
49 231 m 256
 91 374 237 471 384 471 c 256
 522 471 620 368 579 229 c 256
 537 86 390 -10 244 -10 c 256
 106 -10 8 92 49 231 c 256
242 229 m 256
 229 196 232 149 276 146 c 256
 323 143 370 191 386 231 c 256
 399 264 396 312 352 315 c 256
 305 318 258 269 242 229 c 256
232 531 m 257
 290 696 l 257
 658 696 l 257
 600 531 l 257
 232 531 l 257
EndSplineSet
EndChar

StartChar: Obreve
Encoding: 334 334 322
GlifName: O_breve
Width: 790
VWidth: 0
Flags: HMW
LayerCount: 2
Fore
SplineSet
315 350 m 256
 287 277 293 182 390 179 c 256
 489 176 572 264 606 350 c 256
 635 424 629 519 531 521 c 256
 432 523 348 436 315 350 c 256
90 350 m 256
 154 555 356 720 574 720 c 256
 784 720 891 543 831 350 c 256
 767 143 565 -31 343 -30 c 256
 129 -29 30 157 90 350 c 256
496 930 m 257
 603 930 l 257
 605 909 603 885 630 881 c 256
 659 877 682 910 698 929 c 257
 816 927 l 257
 781 843 713 782 618 781 c 256
 523 780 485 843 496 930 c 257
EndSplineSet
EndChar

StartChar: obreve
Encoding: 335 335 323
GlifName: obreve
Width: 579
VWidth: 0
Flags: HMW
LayerCount: 2
Fore
SplineSet
49 231 m 256
 91 374 237 471 384 471 c 256
 522 471 620 368 579 229 c 256
 537 86 390 -10 244 -10 c 256
 106 -10 8 92 49 231 c 256
242 229 m 256
 229 196 232 149 276 146 c 256
 323 143 370 191 386 231 c 256
 399 264 396 312 352 315 c 256
 305 318 258 269 242 229 c 256
305 681 m 257
 413 681 l 257
 415 660 412 636 439 632 c 256
 468 628 492 661 508 680 c 257
 626 678 l 257
 591 594 523 533 428 532 c 256
 333 531 294 594 305 681 c 257
EndSplineSet
EndChar

StartChar: Racute
Encoding: 340 340 324
GlifName: R_acute
Width: 658
VWidth: 0
Flags: HMW
LayerCount: 2
Fore
SplineSet
310 300 m 257
 515 300 l 257
 600 0 l 257
 367 0 l 257
 310 300 l 257
248 700 m 257
 462 700 l 257
 221 0 l 257
 8 0 l 257
 248 700 l 257
320 516 m 257
 382 700 l 257
 516 700 l 256
 659 696 770 614 725 460 c 256
 679 305 530 224 376 220 c 256
 216 220 l 257
 275 385 l 257
 391 385 l 257
 433 388 485 407 501 451 c 256
 515 490 492 510 455 514 c 257
 320 516 l 257
744 923 m 257
 531 781 l 257
 431 837 l 257
 620 988 l 257
 744 923 l 257
EndSplineSet
EndChar

StartChar: uni0156
Encoding: 342 342 325
GlifName: uni0156
Width: 658
VWidth: 0
Flags: HMW
LayerCount: 2
Fore
SplineSet
310 300 m 257
 515 300 l 257
 600 0 l 257
 367 0 l 257
 310 300 l 257
248 700 m 257
 462 700 l 257
 221 0 l 257
 8 0 l 257
 248 700 l 257
320 516 m 257
 382 700 l 257
 516 700 l 256
 659 696 770 614 725 460 c 256
 679 305 530 224 376 220 c 256
 216 220 l 257
 275 385 l 257
 391 385 l 257
 433 388 485 407 501 451 c 256
 515 490 492 510 455 514 c 257
 320 516 l 257
231 -62 m 257
 415 -98 l 257
 205 -342 l 257
 60 -315 l 257
 231 -62 l 257
EndSplineSet
EndChar

StartChar: uni0157
Encoding: 343 343 326
GlifName: uni0157
Width: 426
VWidth: 0
Flags: HMW
LayerCount: 2
Fore
SplineSet
333 460 m 257
 174 0 l 257
 -11 0 l 257
 147 460 l 257
 333 460 l 257
392 263 m 257
 380 276 369 289 349 290 c 256
 297 292 264 233 242 195 c 257
 231 282 l 257
 265 365 339 478 443 472 c 256
 477 470 496 451 516 426 c 257
 392 263 l 257
5 -62 m 257
 189 -98 l 257
 -21 -342 l 257
 -165 -315 l 257
 5 -62 l 257
EndSplineSet
EndChar

StartChar: Scedilla
Encoding: 350 350 327
GlifName: S_cedilla
Width: 632
VWidth: 0
Flags: HMW
LayerCount: 2
Fore
SplineSet
195 266 m 257
 216 212 244 158 310 159 c 256
 339 159 380 171 393 201 c 256
 413 248 335 266 306 280 c 256
 214 324 157 408 187 511 c 256
 227 646 372 720 506 720 c 256
 616 720 704 672 731 561 c 257
 554 475 l 257
 537 510 519 538 476 538 c 256
 452 538 411 526 399 502 c 256
 377 456 486 434 512 423 c 256
 605 383 645 296 616 199 c 256
 571 47 415 -31 264 -30 c 256
 142 -29 50 41 25 161 c 257
 195 266 l 257
227 61 m 257
 376 55 l 257
 226 -73 l 257
 240 -70 256 -66 270 -67 c 256
 329 -71 357 -126 341 -180 c 256
 320 -252 242 -291 172 -295 c 256
 113 -298 59 -279 7 -252 c 257
 78 -172 l 257
 102 -185 128 -198 157 -197 c 256
 175 -196 226 -183 229 -160 c 256
 232 -139 196 -135 184 -134 c 256
 150 -132 115 -140 81 -146 c 257
 227 61 l 257
EndSplineSet
EndChar

StartChar: scedilla
Encoding: 351 351 328
GlifName: scedilla
Width: 459
VWidth: 0
Flags: HMW
LayerCount: 2
Fore
SplineSet
72 181 m 257
 109 149 156 102 210 110 c 256
 222 112 246 122 250 136 c 256
 259 169 207 177 187 185 c 256
 123 211 85 265 106 335 c 256
 133 426 231 468 319 469 c 256
 390 470 454 443 516 412 c 257
 432 284 l 257
 402 315 367 348 321 346 c 256
 308 346 279 339 273 325 c 256
 259 291 332 279 351 271 c 256
 412 246 451 197 433 129 c 256
 407 29 315 -22 217 -24 c 256
 129 -26 49 5 -26 49 c 257
 72 181 l 257
172 65 m 257
 320 60 l 257
 171 -68 l 257
 185 -65 200 -62 214 -63 c 256
 273 -67 302 -121 286 -175 c 256
 265 -247 186 -286 116 -290 c 256
 57 -293 3 -274 -49 -247 c 257
 22 -167 l 257
 46 -180 72 -193 101 -192 c 256
 119 -191 171 -178 174 -155 c 256
 177 -134 140 -130 128 -129 c 256
 94 -127 59 -135 25 -141 c 257
 172 65 l 257
EndSplineSet
EndChar

StartChar: Zcaron
Encoding: 381 381 329
GlifName: Z_caron
Width: 625
VWidth: 0
Flags: HMW
LayerCount: 2
Fore
SplineSet
180 505 m 257
 248 700 l 257
 810 699 l 257
 344 186 l 257
 587 185 l 257
 522 0 l 257
 -59 0 l 257
 398 504 l 257
 180 505 l 257
596 933 m 257
 697 1010 l 257
 807 913 l 257
 563 780 l 257
 394 927 l 257
 548 1012 l 257
 596 933 l 257
EndSplineSet
EndChar

StartChar: zcaron
Encoding: 382 382 330
GlifName: zcaron
Width: 517
VWidth: 0
Flags: HMW
LayerCount: 2
Fore
SplineSet
457 684 m 257
 558 760 l 257
 668 663 l 257
 424 530 l 257
 255 677 l 257
 409 762 l 257
 457 684 l 257
252 284 m 257
 100 286 l 257
 161 460 l 257
 625 459 l 257
 341 176 l 257
 485 175 l 257
 424 0 l 257
 -50 0 l 257
 252 284 l 257
EndSplineSet
EndChar

StartChar: Ydieresis
Encoding: 376 376 331
GlifName: Y_dieresis
Width: 677
VWidth: 0
Flags: HMW
LayerCount: 2
Fore
SplineSet
331 898 m 256
 346 951 406 992 460 992 c 256
 515 992 554 947 539 892 c 256
 524 839 464 798 410 798 c 256
 355 798 316 843 331 898 c 256
641 898 m 256
 656 951 716 992 770 992 c 256
 825 992 864 947 849 892 c 256
 834 839 774 798 720 798 c 256
 665 798 626 843 641 898 c 256
620 699 m 257
 876 699 l 257
 485 265 l 257
 394 0 l 257
 175 0 l 257
 274 285 l 257
 183 700 l 257
 418 700 l 257
 442 481 l 257
 620 699 l 257
EndSplineSet
EndChar

StartChar: Scaron
Encoding: 352 352 332
GlifName: S_caron
Width: 632
VWidth: 0
Flags: HMW
LayerCount: 2
Fore
SplineSet
195 266 m 257
 216 212 244 158 310 159 c 256
 339 159 380 171 393 201 c 256
 413 248 335 266 306 280 c 256
 214 324 157 408 187 511 c 256
 227 646 372 720 506 720 c 256
 616 720 704 672 731 561 c 257
 554 475 l 257
 537 510 519 538 476 538 c 256
 452 538 411 526 399 502 c 256
 377 456 486 434 512 423 c 256
 605 383 645 296 616 199 c 256
 571 47 415 -31 264 -30 c 256
 142 -29 50 41 25 161 c 257
 195 266 l 257
582 933 m 257
 683 1010 l 257
 793 913 l 257
 548 780 l 257
 380 927 l 257
 534 1012 l 257
 582 933 l 257
EndSplineSet
EndChar

StartChar: scaron
Encoding: 353 353 333
GlifName: scaron
Width: 459
VWidth: 0
Flags: HMW
LayerCount: 2
Fore
SplineSet
72 181 m 257
 113 151 159 115 212 117 c 256
 222 117 246 122 249 134 c 256
 256 160 165 177 149 185 c 256
 94 213 70 273 87 331 c 256
 116 429 226 468 319 469 c 256
 390 469 454 443 516 412 c 257
 433 284 l 257
 397 315 358 339 309 339 c 256
 297 339 266 335 262 321 c 256
 254 293 335 278 351 271 c 256
 412 246 451 197 433 129 c 256
 407 30 315 -22 217 -24 c 256
 129 -26 49 5 -26 49 c 257
 72 181 l 257
387 664 m 257
 489 741 l 257
 599 644 l 257
 354 511 l 257
 185 658 l 257
 339 743 l 257
 387 664 l 257
EndSplineSet
EndChar

StartChar: Lslash
Encoding: 321 321 334
GlifName: L_slash
Width: 550
VWidth: 0
Flags: HMW
LayerCount: 2
Fore
SplineSet
57 290 m 257
 34 384 l 257
 523 668 l 257
 547 577 l 257
 57 290 l 257
248 700 m 257
 462 700 l 257
 285 185 l 257
 554 185 l 257
 489 0 l 257
 8 0 l 257
 248 700 l 257
EndSplineSet
EndChar

StartChar: lslash
Encoding: 322 322 335
GlifName: lslash
Width: 277
VWidth: 0
Flags: HMW
LayerCount: 2
Fore
SplineSet
39 290 m 257
 15 384 l 257
 457 638 l 257
 480 547 l 257
 39 290 l 257
256 780 m 257
 447 780 l 257
 179 0 l 257
 -11 0 l 257
 256 780 l 257
EndSplineSet
EndChar

StartChar: uni0218
Encoding: 536 536 336
GlifName: uni0218
Width: 632
VWidth: 0
Flags: HMW
LayerCount: 2
Fore
SplineSet
195 266 m 257
 216 212 244 158 310 159 c 256
 339 159 380 171 393 201 c 256
 413 248 335 266 306 280 c 256
 214 324 157 408 187 511 c 256
 227 646 372 720 506 720 c 256
 616 720 704 672 731 561 c 257
 554 475 l 257
 537 510 519 538 476 538 c 256
 452 538 411 526 399 502 c 256
 377 456 486 434 512 423 c 256
 605 383 645 296 616 199 c 256
 571 47 415 -31 264 -30 c 256
 142 -29 50 41 25 161 c 257
 195 266 l 257
143 -72 m 257
 329 -108 l 257
 117 -352 l 257
 -28 -325 l 257
 143 -72 l 257
EndSplineSet
EndChar

StartChar: uni0219
Encoding: 537 537 337
GlifName: uni0219
Width: 459
VWidth: 0
Flags: HMW
LayerCount: 2
Fore
SplineSet
72 181 m 257
 113 151 159 115 212 117 c 256
 222 117 246 122 249 134 c 256
 256 160 165 177 149 185 c 256
 94 213 70 273 87 331 c 256
 116 429 226 468 319 469 c 256
 390 469 454 443 516 412 c 257
 433 284 l 257
 397 315 358 339 309 339 c 256
 297 339 266 335 262 321 c 256
 254 293 335 278 351 271 c 256
 412 246 451 197 433 129 c 256
 407 30 315 -22 217 -24 c 256
 129 -26 49 5 -26 49 c 257
 72 181 l 257
98 -67 m 257
 282 -103 l 257
 72 -347 l 257
 -73 -320 l 257
 98 -67 l 257
EndSplineSet
EndChar

StartChar: pi
Encoding: 960 960 338
GlifName: pi
Width: 602
VWidth: 0
Flags: HMW
LayerCount: 2
Fore
SplineSet
175 430 m 257
 351 430 l 257
 202 0 l 257
 26 0 l 257
 175 430 l 257
128 460 m 257
 672 460 l 257
 617 305 l 257
 74 305 l 257
 128 460 l 257
410 430 m 257
 586 430 l 257
 504 200 l 257
 492 160 494 146 532 131 c 257
 488 -8 l 257
 393 -9 273 -8 306 121 c 257
 410 430 l 257
EndSplineSet
EndChar

StartChar: trademark
Encoding: 8482 8482 339
GlifName: trademark
Width: 748
VWidth: 0
Flags: HMW
LayerCount: 2
Fore
SplineSet
174 602 m 257
 208 700 l 257
 507 700 l 257
 472 602 l 257
 379 602 l 257
 291 350 l 257
 181 350 l 257
 269 602 l 257
 174 602 l 257
736 598 m 257
 863 731 l 257
 793 350 l 257
 680 350 l 257
 736 598 l 257
562 720 m 257
 599 576 l 257
 492 351 l 257
 372 351 l 257
 562 720 l 257
869 734 m 257
 812 576 l 257
 602 379 l 257
 519 597 l 257
 562 716 l 257
 639 532 l 257
 869 734 l 257
EndSplineSet
EndChar

StartChar: uni2219
Encoding: 8729 8729 340
GlifName: uni2219
Width: 316
VWidth: 0
Flags: HMW
LayerCount: 2
Fore
SplineSet
147 462 m 256
 164 522 228 574 291 574 c 256
 355 574 392 517 375 458 c 256
 358 398 294 346 231 346 c 256
 167 346 130 403 147 462 c 256
EndSplineSet
EndChar

StartChar: agrave.alt
Encoding: 65537 -1 341
GlifName: agrave.alt
Width: 606
VWidth: 0
Flags: HMW
LayerCount: 2
Fore
SplineSet
476 460 m 257
 667 460 l 257
 508 0 l 257
 318 0 l 257
 476 460 l 257
49 231 m 256
 84 348 192 470 323 470 c 256
 455 470 475 332 444 229 c 256
 409 114 313 -9 183 -9 c 256
 51 -9 17 124 49 231 c 256
247 229 m 256
 234 195 239 144 284 141 c 256
 332 138 381 190 397 231 c 256
 410 265 408 316 363 319 c 256
 315 322 263 270 247 229 c 256
315 687 m 257
 458 742 l 257
 549 574 l 257
 440 531 l 257
 315 687 l 257
EndSplineSet
EndChar

StartChar: aacute.alt
Encoding: 65538 -1 342
GlifName: aacute.alt
Width: 606
VWidth: 0
Flags: HMW
LayerCount: 2
Fore
SplineSet
476 460 m 257
 667 460 l 257
 508 0 l 257
 318 0 l 257
 476 460 l 257
49 231 m 256
 84 348 192 470 323 470 c 256
 455 470 475 332 444 229 c 256
 409 114 313 -9 183 -9 c 256
 51 -9 17 124 49 231 c 256
247 229 m 256
 234 195 239 144 284 141 c 256
 332 138 381 190 397 231 c 256
 410 265 408 316 363 319 c 256
 315 322 263 270 247 229 c 256
635 674 m 257
 422 532 l 257
 323 588 l 257
 512 739 l 257
 635 674 l 257
EndSplineSet
EndChar

StartChar: acircumflex.alt
Encoding: 65539 -1 343
GlifName: acircumflex.alt
Width: 606
VWidth: 0
Flags: HMW
LayerCount: 2
Fore
SplineSet
476 460 m 257
 667 460 l 257
 508 0 l 257
 318 0 l 257
 476 460 l 257
49 231 m 256
 84 348 192 470 323 470 c 256
 455 470 475 332 444 229 c 256
 409 114 313 -9 183 -9 c 256
 51 -9 17 124 49 231 c 256
247 229 m 256
 234 195 239 144 284 141 c 256
 332 138 381 190 397 231 c 256
 410 265 408 316 363 319 c 256
 315 322 263 270 247 229 c 256
476 608 m 257
 374 531 l 257
 264 628 l 257
 509 761 l 257
 678 614 l 257
 524 529 l 257
 476 608 l 257
EndSplineSet
EndChar

StartChar: atilde.alt
Encoding: 65540 -1 344
GlifName: atilde.alt
Width: 606
VWidth: 0
Flags: HMW
LayerCount: 2
Fore
SplineSet
476 460 m 257
 667 460 l 257
 508 0 l 257
 318 0 l 257
 476 460 l 257
49 231 m 256
 84 348 192 470 323 470 c 256
 455 470 475 332 444 229 c 256
 409 114 313 -9 183 -9 c 256
 51 -9 17 124 49 231 c 256
247 229 m 256
 234 195 239 144 284 141 c 256
 332 138 381 190 397 231 c 256
 410 265 408 316 363 319 c 256
 315 322 263 270 247 229 c 256
274 617 m 257
 304 670 352 716 421 715 c 256
 467 714 491 660 537 663 c 256
 572 665 601 695 626 717 c 257
 686 620 l 257
 647 577 585 527 522 532 c 256
 477 536 445 594 399 586 c 256
 370 581 353 558 336 537 c 257
 274 617 l 257
EndSplineSet
EndChar

StartChar: adieresis.alt
Encoding: 65541 -1 345
GlifName: adieresis.alt
Width: 606
VWidth: 0
Flags: HMW
LayerCount: 2
Fore
SplineSet
476 460 m 257
 667 460 l 257
 508 0 l 257
 318 0 l 257
 476 460 l 257
49 231 m 256
 84 348 192 470 323 470 c 256
 455 470 475 332 444 229 c 256
 409 114 313 -9 183 -9 c 256
 51 -9 17 124 49 231 c 256
247 229 m 256
 234 195 239 144 284 141 c 256
 332 138 381 190 397 231 c 256
 410 265 408 316 363 319 c 256
 315 322 263 270 247 229 c 256
487 632 m 256
 502 685 562 726 616 726 c 256
 671 726 710 681 695 626 c 256
 680 573 621 532 567 532 c 256
 512 532 472 577 487 632 c 256
233 632 m 256
 248 685 308 726 362 726 c 256
 417 726 456 681 441 626 c 256
 426 573 366 532 312 532 c 256
 257 532 218 577 233 632 c 256
EndSplineSet
EndChar

StartChar: aring.alt
Encoding: 65542 -1 346
GlifName: aring.alt
Width: 606
VWidth: 0
Flags: HMW
LayerCount: 2
Fore
SplineSet
476 460 m 257
 667 460 l 257
 508 0 l 257
 318 0 l 257
 476 460 l 257
49 231 m 256
 84 348 192 470 323 470 c 256
 455 470 475 332 444 229 c 256
 409 114 313 -9 183 -9 c 256
 51 -9 17 124 49 231 c 256
247 229 m 256
 234 195 239 144 284 141 c 256
 332 138 381 190 397 231 c 256
 410 265 408 316 363 319 c 256
 315 322 263 270 247 229 c 256
340 658 m 256
 359 727 434 780 505 780 c 256
 576 780 627 725 607 654 c 256
 588 584 512 532 440 532 c 256
 369 532 320 588 340 658 c 256
432 654 m 256
 427 639 432 615 451 613 c 256
 473 611 507 639 514 658 c 256
 519 673 513 698 494 700 c 256
 472 702 439 673 432 654 c 256
EndSplineSet
EndChar

StartChar: amacron.alt
Encoding: 65543 -1 347
GlifName: amacron.alt
Width: 606
VWidth: 0
Flags: HMW
LayerCount: 2
Fore
SplineSet
476 460 m 257
 667 460 l 257
 508 0 l 257
 318 0 l 257
 476 460 l 257
49 231 m 256
 84 348 192 470 323 470 c 256
 455 470 475 332 444 229 c 256
 409 114 313 -9 183 -9 c 256
 51 -9 17 124 49 231 c 256
247 229 m 256
 234 195 239 144 284 141 c 256
 332 138 381 190 397 231 c 256
 410 265 408 316 363 319 c 256
 315 322 263 270 247 229 c 256
255 531 m 257
 313 696 l 257
 682 696 l 257
 624 531 l 257
 255 531 l 257
EndSplineSet
EndChar

StartChar: abreve.alt
Encoding: 65544 -1 348
GlifName: abreve.alt
Width: 606
VWidth: 0
Flags: HMW
LayerCount: 2
Fore
SplineSet
476 460 m 257
 667 460 l 257
 508 0 l 257
 318 0 l 257
 476 460 l 257
49 231 m 256
 84 348 192 470 323 470 c 256
 455 470 475 332 444 229 c 256
 409 114 313 -9 183 -9 c 256
 51 -9 17 124 49 231 c 256
247 229 m 256
 234 195 239 144 284 141 c 256
 332 138 381 190 397 231 c 256
 410 265 408 316 363 319 c 256
 315 322 263 270 247 229 c 256
319 681 m 257
 427 681 l 257
 429 660 426 636 453 632 c 256
 482 628 506 661 522 680 c 257
 640 678 l 257
 605 594 537 533 442 532 c 256
 347 531 308 594 319 681 c 257
EndSplineSet
EndChar

StartChar: aogonek.alt
Encoding: 65545 -1 349
GlifName: aogonek.alt
Width: 606
VWidth: 0
Flags: HMW
LayerCount: 2
Fore
SplineSet
476 460 m 257
 667 460 l 257
 508 0 l 257
 318 0 l 257
 476 460 l 257
49 231 m 256
 84 348 192 470 323 470 c 256
 455 470 475 332 444 229 c 256
 409 114 313 -9 183 -9 c 256
 51 -9 17 124 49 231 c 256
247 229 m 256
 234 195 239 144 284 141 c 256
 332 138 381 190 397 231 c 256
 410 265 408 316 363 319 c 256
 315 322 263 270 247 229 c 256
426 -99 m 257
 435 -183 l 257
 402 -205 366 -221 326 -220 c 256
 269 -218 228 -177 243 -118 c 256
 263 -41 356 -5 420 25 c 257
 460 0 l 257
 427 -25 374 -48 360 -91 c 256
 357 -102 356 -116 370 -119 c 256
 387 -122 411 -106 426 -99 c 257
EndSplineSet
EndChar

StartChar: dagger
Encoding: 8224 8224 350
GlifName: dagger
Width: 630
VWidth: 0
Flags: HMW
LayerCount: 2
Fore
SplineSet
214 540 m 257
 682 540 l 257
 632 385 l 257
 165 385 l 257
 214 540 l 257
409 700 m 257
 585 700 l 257
 322 -150 l 257
 146 -150 l 257
 409 700 l 257
EndSplineSet
EndChar

StartChar: daggerdbl
Encoding: 8225 8225 351
GlifName: daggerdbl
Width: 630
VWidth: 0
Flags: HMW
LayerCount: 2
Fore
SplineSet
103 180 m 257
 571 180 l 257
 522 25 l 257
 54 25 l 257
 103 180 l 257
214 540 m 257
 682 540 l 257
 632 385 l 257
 165 385 l 257
 214 540 l 257
409 700 m 257
 585 700 l 257
 322 -150 l 257
 146 -150 l 257
 409 700 l 257
EndSplineSet
EndChar

StartChar: ellipsis
Encoding: 8230 8230 352
GlifName: ellipsis
Width: 884
VWidth: 0
Flags: HMW
LayerCount: 2
Fore
SplineSet
19 87 m 256
 36 147 100 199 163 199 c 256
 227 199 264 142 247 83 c 256
 230 23 166 -29 103 -29 c 256
 39 -29 2 28 19 87 c 256
301 87 m 256
 318 147 382 199 445 199 c 256
 509 199 546 142 529 83 c 256
 512 23 448 -29 385 -29 c 256
 321 -29 284 28 301 87 c 256
584 87 m 256
 601 147 664 199 727 199 c 256
 791 199 828 142 811 83 c 256
 794 23 730 -29 667 -29 c 256
 603 -29 567 28 584 87 c 256
EndSplineSet
EndChar

StartChar: uniFF10
Encoding: 65296 65296 353
GlifName: uniF_F_10
Width: 620
VWidth: 0
Flags: HMW
LayerCount: 2
Fore
SplineSet
283 350 m 256
 267 307 222 176 302 171 c 256
 386 166 443 286 467 350 c 256
 483 393 527 524 447 529 c 256
 363 534 307 414 283 350 c 256
80 350 m 256
 137 530 282 715 487 715 c 256
 697 715 721 512 670 350 c 256
 613 168 470 -16 263 -15 c 256
 56 -14 29 190 80 350 c 256
EndSplineSet
EndChar

StartChar: uniFF11
Encoding: 65297 65297 354
GlifName: uniF_F_11
Width: 620
VWidth: 0
Flags: HMW
LayerCount: 2
Fore
SplineSet
196 456 m 257
 262 644 l 257
 665 718 l 257
 419 0 l 257
 215 0 l 257
 385 496 l 257
 196 456 l 257
EndSplineSet
EndChar

StartChar: uniFF12
Encoding: 65298 65298 355
GlifName: uniF_F_12
Width: 620
VWidth: 0
Flags: HMW
LayerCount: 2
Fore
SplineSet
-60 0 m 257
 328 305 l 258
 382 347 465 396 487 466 c 256
 497 497 488 527 451 530 c 256
 395 534 358 472 336 430 c 257
 127 432 l 257
 183 592 324 717 500 716 c 256
 632 716 750 621 709 480 c 256
 686 401 622 342 555 297 c 258
 403 201 l 257
 638 199 l 257
 569 0 l 257
 -60 0 l 257
EndSplineSet
EndChar

StartChar: uniFF13
Encoding: 65299 65299 356
GlifName: uniF_F_13
Width: 620
VWidth: 0
Flags: HMW
LayerCount: 2
Fore
SplineSet
320 336 m 257
 346 423 l 257
 391 430 480 446 492 502 c 256
 497 528 480 542 456 544 c 256
 412 547 381 509 359 476 c 257
 163 478 l 257
 215 618 342 714 493 715 c 256
 609 716 742 652 702 515 c 256
 656 356 458 338 320 336 c 257
257 -20 m 256
 101 -18 22 97 49 245 c 257
 253 244 l 257
 247 199 246 155 302 151 c 256
 345 148 394 176 410 217 c 256
 436 286 351 291 304 295 c 257
 334 398 l 257
 457 395 660 366 611 194 c 256
 569 46 399 -22 257 -20 c 256
EndSplineSet
EndChar

StartChar: uniFF14
Encoding: 65300 65300 357
GlifName: uniF_F_14
Width: 620
VWidth: 0
Flags: HMW
LayerCount: 2
Fore
SplineSet
-19 116 m 257
 202 264 l 257
 448 266 l 257
 477 300 l 257
 660 300 l 257
 595 115 l 257
 -19 116 l 257
215 194 m 257
 -29 105 l 257
 530 699 l 257
 712 700 l 257
 472 0 l 257
 248 0 l 257
 299 150 l 257
 330 161 l 257
 415 400 l 257
 215 194 l 257
EndSplineSet
EndChar

StartChar: uniFF15
Encoding: 65301 65301 358
GlifName: uniF_F_15
Width: 620
VWidth: 0
Flags: HMW
LayerCount: 2
Fore
SplineSet
613 219 m 256
 567 68 404 -13 255 -15 c 256
 159 -16 69 8 -19 44 c 257
 95 235 l 257
 141 207 189 186 244 185 c 256
 293 184 374 194 391 251 c 256
 407 304 344 308 308 309 c 256
 235 311 162 297 91 280 c 257
 261 373 l 258
 328 412 392 447 472 445 c 256
 595 441 646 328 613 219 c 256
422 509 m 257
 310 355 l 257
 78 270 l 257
 324 699 l 257
 757 700 l 257
 691 510 l 257
 422 509 l 257
EndSplineSet
EndChar

StartChar: uniFF16
Encoding: 65302 65302 359
GlifName: uniF_F_16
Width: 620
VWidth: 0
Flags: HMW
LayerCount: 2
Fore
SplineSet
255 254 m 256
 239 212 253 168 302 166 c 256
 354 164 412 209 430 256 c 256
 446 297 433 344 383 346 c 256
 330 349 273 301 255 254 c 256
457 694 m 257
 740 694 l 257
 442 467 l 257
 376 441 l 257
 412 464 450 482 494 482 c 256
 618 482 671 362 640 254 c 256
 593 89 429 -20 261 -20 c 256
 101 -20 -4 96 45 255 c 256
 73 346 144 418 213 480 c 258
 457 694 l 257
EndSplineSet
EndChar

StartChar: uniFF17
Encoding: 65303 65303 360
GlifName: uniF_F_17
Width: 620
VWidth: 0
Flags: HMW
LayerCount: 2
Fore
SplineSet
136 495 m 257
 207 700 l 257
 802 699 l 257
 242 0 l 257
 1 0 l 257
 414 494 l 257
 136 495 l 257
EndSplineSet
EndChar

StartChar: uniFF18
Encoding: 65304 65304 361
GlifName: uniF_F_18
Width: 620
VWidth: 0
Flags: HMW
LayerCount: 2
Fore
SplineSet
206 532 m 256
 243 660 386 720 509 720 c 256
 620 720 744 660 707 530 c 256
 671 403 525 335 402 335 c 256
 291 335 170 405 206 532 c 256
396 509 m 256
 388 486 393 455 422 451 c 256
 453 446 494 486 503 513 c 256
 511 537 506 565 477 569 c 256
 446 573 405 536 396 509 c 256
66 191 m 256
 106 330 264 400 399 400 c 256
 519 400 654 329 614 189 c 256
 574 51 414 -20 280 -20 c 256
 160 -20 26 52 66 191 c 256
289 223 m 256
 278 194 285 159 321 156 c 256
 359 153 403 193 415 227 c 256
 424 255 415 286 382 289 c 256
 346 292 302 255 289 223 c 256
EndSplineSet
EndChar

StartChar: uniFF19
Encoding: 65305 65305 362
GlifName: uniF_F_19
Width: 620
VWidth: 0
Flags: HMW
LayerCount: 2
Fore
SplineSet
495 446 m 256
 511 488 496 532 447 534 c 256
 395 536 338 491 320 444 c 256
 304 403 317 356 367 354 c 256
 420 351 477 399 495 446 c 256
293 6 m 257
 10 6 l 257
 308 233 l 257
 374 259 l 257
 338 236 299 218 255 218 c 256
 131 218 79 338 110 446 c 256
 157 611 321 720 489 720 c 256
 649 720 754 604 705 445 c 256
 677 354 606 282 537 220 c 258
 293 6 l 257
EndSplineSet
EndChar

StartChar: caron
Encoding: 711 711 363
GlifName: caron
Width: 451
VWidth: 0
Flags: HMW
LayerCount: 2
Fore
SplineSet
399 692 m 257
 500 769 l 257
 610 672 l 257
 365 539 l 257
 197 686 l 257
 351 771 l 257
 399 692 l 257
EndSplineSet
EndChar

StartChar: napostrophe
Encoding: 329 329 364
GlifName: napostrophe
Width: 766
VWidth: 0
Flags: HMW
LayerCount: 2
Fore
SplineSet
535 460 m 257
 377 0 l 257
 186 0 l 257
 345 460 l 257
 535 460 l 257
569 280 m 257
 575 302 586 336 554 344 c 256
 518 352 489 304 473 281 c 257
 442 272 l 257
 477 370 541 469 657 471 c 256
 765 473 795 394 769 300 c 257
 668 0 l 257
 468 0 l 257
 569 280 l 257
274 700 m 257
 471 699 l 257
 278 431 l 257
 133 431 l 257
 274 700 l 257
EndSplineSet
EndChar

StartChar: IJ
Encoding: 306 306 365
GlifName: I_J_
Width: 663
VWidth: 0
Flags: HMW
LayerCount: 2
Fore
SplineSet
152 -40 m 257
 171 -54 193 -72 218 -71 c 256
 260 -70 293 -29 309 6 c 257
 549 700 l 257
 786 700 l 257
 531 -51 l 258
 481 -187 347 -250 208 -250 c 256
 131 -250 62 -224 -4 -186 c 257
 152 -40 l 257
248 700 m 257
 466 700 l 257
 226 0 l 257
 8 0 l 257
 248 700 l 257
EndSplineSet
EndChar

StartChar: ij
Encoding: 307 307 366
GlifName: ij
Width: 532
VWidth: 0
Flags: HMW
LayerCount: 2
Fore
SplineSet
452 625 m 256
 467 678 527 719 581 719 c 256
 636 719 675 674 660 619 c 256
 645 566 585 525 531 525 c 256
 476 525 437 570 452 625 c 256
141 -56 m 257
 149 -55 164 -80 174 -81 c 256
 203 -85 231 -46 242 -24 c 257
 411 460 l 257
 591 460 l 257
 408 -81 l 258
 370 -182 280 -250 170 -249 c 256
 115 -249 75 -226 35 -190 c 257
 141 -56 l 257
189 625 m 256
 204 678 263 719 317 719 c 256
 372 719 412 674 397 619 c 256
 382 566 322 525 268 525 c 256
 213 525 174 570 189 625 c 256
146 460 m 257
 329 460 l 257
 171 0 l 257
 -12 0 l 257
 146 460 l 257
EndSplineSet
EndChar

StartChar: uni0237
Encoding: 567 567 367
GlifName: uni0237
Width: 268
VWidth: 0
Flags: HMW
LayerCount: 2
Fore
SplineSet
-123 -56 m 257
 -115 -67 -106 -80 -90 -81 c 256
 -60 -82 -33 -48 -21 -24 c 257
 147 460 l 257
 328 460 l 257
 145 -81 l 258
 107 -182 17 -250 -93 -249 c 256
 -148 -249 -189 -226 -229 -190 c 257
 -123 -56 l 257
EndSplineSet
EndChar

StartChar: Sacute
Encoding: 346 346 368
GlifName: S_acute
Width: 632
VWidth: 0
Flags: HMW
LayerCount: 2
Fore
SplineSet
195 266 m 257
 216 212 244 158 310 159 c 256
 339 159 380 171 393 201 c 256
 413 248 335 266 306 280 c 256
 214 324 157 408 187 511 c 256
 227 646 372 720 506 720 c 256
 616 720 704 672 731 561 c 257
 554 475 l 257
 537 510 519 538 476 538 c 256
 452 538 411 526 399 502 c 256
 377 456 486 434 512 423 c 256
 605 383 645 296 616 199 c 256
 571 47 415 -31 264 -30 c 256
 142 -29 50 41 25 161 c 257
 195 266 l 257
762 923 m 257
 549 781 l 257
 449 837 l 257
 638 988 l 257
 762 923 l 257
EndSplineSet
EndChar

StartChar: sacute
Encoding: 347 347 369
GlifName: sacute
Width: 459
VWidth: 0
Flags: HMW
LayerCount: 2
Fore
SplineSet
72 181 m 257
 113 151 159 115 212 117 c 256
 222 117 246 122 249 134 c 256
 256 160 165 177 149 185 c 256
 94 213 70 273 87 331 c 256
 116 429 226 468 319 469 c 256
 390 469 454 443 516 412 c 257
 433 284 l 257
 397 315 358 339 309 339 c 256
 297 339 266 335 262 321 c 256
 254 293 335 278 351 271 c 256
 412 246 451 197 433 129 c 256
 407 30 315 -22 217 -24 c 256
 129 -26 49 5 -26 49 c 257
 72 181 l 257
574 674 m 257
 361 532 l 257
 261 588 l 257
 450 739 l 257
 574 674 l 257
EndSplineSet
EndChar

StartChar: Scircumflex
Encoding: 348 348 370
GlifName: S_circumflex
Width: 632
VWidth: 0
Flags: HMW
LayerCount: 2
Fore
SplineSet
195 266 m 257
 216 212 244 158 310 159 c 256
 339 159 380 171 393 201 c 256
 413 248 335 266 306 280 c 256
 214 324 157 408 187 511 c 256
 227 646 372 720 506 720 c 256
 616 720 704 672 731 561 c 257
 554 475 l 257
 537 510 519 538 476 538 c 256
 452 538 411 526 399 502 c 256
 377 456 486 434 512 423 c 256
 605 383 645 296 616 199 c 256
 571 47 415 -31 264 -30 c 256
 142 -29 50 41 25 161 c 257
 195 266 l 257
574 857 m 257
 472 780 l 257
 362 877 l 257
 607 1010 l 257
 776 863 l 257
 622 778 l 257
 574 857 l 257
EndSplineSet
EndChar

StartChar: scircumflex
Encoding: 349 349 371
GlifName: scircumflex
Width: 459
VWidth: 0
Flags: HMW
LayerCount: 2
Fore
SplineSet
72 181 m 257
 113 151 159 115 212 117 c 256
 222 117 246 122 249 134 c 256
 256 160 165 177 149 185 c 256
 94 213 70 273 87 331 c 256
 116 429 226 468 319 469 c 256
 390 469 454 443 516 412 c 257
 433 284 l 257
 397 315 358 339 309 339 c 256
 297 339 266 335 262 321 c 256
 254 293 335 278 351 271 c 256
 412 246 451 197 433 129 c 256
 407 30 315 -22 217 -24 c 256
 129 -26 49 5 -26 49 c 257
 72 181 l 257
405 608 m 257
 304 531 l 257
 194 628 l 257
 438 761 l 257
 607 614 l 257
 453 529 l 257
 405 608 l 257
EndSplineSet
EndChar

StartChar: uni1E9E
Encoding: 7838 7838 372
Width: 937
VWidth: 0
Flags: HMW
LayerCount: 2
Fore
SplineSet
537 -20 m 256
 379 -18 319 102 348 245 c 257
 524 244 l 257
 518 200 518 156 573 151 c 256
 616 147 665 175 680 217 c 256
 705 287 623 291 575 295 c 257
 599 379 l 257
 716 377 925 351 878 184 c 256
 839 45 670 -22 537 -20 c 256
594 346 m 257
 617 424 l 257
 664 429 731 439 748 492 c 256
 766 547 685 548 650 547 c 256
 504 545 388 438 337 306 c 256
 231 0 l 257
 17 0 l 257
 135 346 l 258
 214 571 438 708 672 710 c 256
 787 711 1021 682 972 513 c 256
 928 360 724 348 594 346 c 257
EndSplineSet
EndChar

StartChar: Zacute
Encoding: 377 377 373
Width: 625
VWidth: 0
Flags: HW
LayerCount: 2
Fore
SplineSet
180 505 m 257
 248 700 l 257
 810 699 l 257
 344 186 l 257
 587 185 l 257
 522 0 l 257
 -59 0 l 257
 398 504 l 257
 180 505 l 257
776 923 m 257
 563 781 l 257
 463 837 l 257
 652 988 l 257
 776 923 l 257
EndSplineSet
EndChar

StartChar: zacute
Encoding: 378 378 374
Width: 526
VWidth: 0
Flags: HW
LayerCount: 2
Fore
SplineSet
250 284 m 257
 100 286 l 257
 161 460 l 257
 625 459 l 257
 343 176 l 257
 485 174 l 257
 424 0 l 257
 -50 0 l 257
 250 284 l 257
637 674 m 257
 424 532 l 257
 324 588 l 257
 513 739 l 257
 637 674 l 257
EndSplineSet
EndChar

StartChar: Zdotaccent
Encoding: 379 379 375
Width: 625
VWidth: 0
Flags: HW
LayerCount: 2
Fore
SplineSet
180 505 m 257
 248 700 l 257
 810 699 l 257
 344 186 l 257
 587 185 l 257
 522 0 l 257
 -59 0 l 257
 398 504 l 257
 180 505 l 257
482 881 m 256
 497 934 557 975 611 975 c 256
 666 975 705 930 690 875 c 256
 675 822 615 781 561 781 c 256
 506 781 467 826 482 881 c 256
EndSplineSet
EndChar

StartChar: zdotaccent
Encoding: 380 380 376
Width: 526
VWidth: 0
Flags: HW
LayerCount: 2
Fore
SplineSet
250 284 m 257
 100 286 l 257
 161 460 l 257
 625 459 l 257
 343 176 l 257
 485 174 l 257
 424 0 l 257
 -50 0 l 257
 250 284 l 257
343 632 m 256
 358 685 418 726 472 726 c 256
 527 726 566 681 551 626 c 256
 536 573 477 532 423 532 c 256
 368 532 328 577 343 632 c 256
EndSplineSet
EndChar

StartChar: Tcaron
Encoding: 356 356 377
Width: 583
VWidth: 0
Flags: HW
LayerCount: 2
Fore
SplineSet
114 505 m 257
 182 700 l 257
 772 700 l 257
 704 505 l 257
 517 505 l 257
 344 0 l 257
 130 0 l 257
 303 505 l 257
 114 505 l 257
547 933 m 257
 648 1010 l 257
 758 913 l 257
 514 780 l 257
 345 927 l 257
 499 1012 l 257
 547 933 l 257
EndSplineSet
EndChar

StartChar: tcaron
Encoding: 357 357 378
Width: 531
VWidth: 0
Flags: HW
LayerCount: 2
Fore
SplineSet
105 460 m 257
 446 460 l 257
 391 305 l 257
 50 305 l 257
 105 460 l 257
239 620 m 257
 420 620 l 257
 207 0 l 257
 26 0 l 257
 239 620 l 257
609 770 m 257
 794 734 l 257
 583 490 l 257
 438 517 l 257
 609 770 l 257
EndSplineSet
EndChar

StartChar: Uring
Encoding: 366 366 379
Width: 701
VWidth: 0
Flags: HW
LayerCount: 2
Fore
SplineSet
243 700 m 257
 457 700 l 257
 299 250 l 258
 287 209 285 159 339 156 c 256
 395 153 440 204 460 251 c 257
 616 700 l 257
 829 700 l 257
 670 230 l 258
 612 68 469 -40 295 -40 c 256
 132 -40 37 69 84 230 c 256
 243 700 l 257
472 907 m 256
 491 976 566 1029 637 1029 c 256
 708 1029 759 974 739 903 c 256
 720 833 644 781 572 781 c 256
 501 781 452 837 472 907 c 256
564 903 m 256
 559 888 564 864 583 862 c 256
 605 860 639 888 646 907 c 256
 651 922 645 947 626 949 c 256
 604 951 571 922 564 903 c 256
EndSplineSet
EndChar

StartChar: uring
Encoding: 367 367 380
Width: 569
VWidth: 0
Flags: HW
LayerCount: 2
Fore
SplineSet
280 0 m 257
 439 460 l 257
 629 460 l 257
 471 0 l 257
 280 0 l 257
246 180 m 257
 240 158 229 124 261 116 c 256
 297 108 327 156 343 179 c 257
 374 188 l 257
 339 90 274 -9 158 -11 c 256
 50 -13 20 66 46 160 c 257
 147 460 l 257
 347 460 l 257
 246 180 l 257
321 658 m 256
 340 727 415 780 486 780 c 256
 557 780 608 725 588 654 c 256
 569 584 493 532 421 532 c 256
 350 532 301 588 321 658 c 256
413 654 m 256
 408 639 413 615 432 613 c 256
 454 611 488 639 495 658 c 256
 500 673 494 698 475 700 c 256
 453 702 420 673 413 654 c 256
EndSplineSet
EndChar

StartChar: uni0400
Encoding: 1024 1024 381
Width: 517
VWidth: 0
Flags: HW
LayerCount: 2
Fore
SplineSet
148 0 m 257
 209 175 l 257
 553 175 l 257
 492 0 l 257
 148 0 l 257
327 525 m 257
 389 700 l 257
 732 700 l 257
 671 525 l 257
 327 525 l 257
242 275 m 257
 302 445 l 257
 627 445 l 257
 567 275 l 257
 242 275 l 257
245 700 m 257
 454 700 l 257
 214 0 l 257
 5 0 l 257
 245 700 l 257
401 939 m 257
 539 992 l 257
 633 820 l 257
 528 779 l 257
 401 939 l 257
EndSplineSet
EndChar

StartChar: uni0401
Encoding: 1025 1025 382
Width: 517
VWidth: 0
Flags: HW
LayerCount: 2
Fore
SplineSet
148 0 m 257
 209 175 l 257
 553 175 l 257
 492 0 l 257
 148 0 l 257
327 525 m 257
 389 700 l 257
 732 700 l 257
 671 525 l 257
 327 525 l 257
242 275 m 257
 302 445 l 257
 627 445 l 257
 567 275 l 257
 242 275 l 257
245 700 m 257
 454 700 l 257
 214 0 l 257
 5 0 l 257
 245 700 l 257
571 882 m 256
 584 935 642 975 696 975 c 256
 752 975 795 931 781 874 c 256
 768 821 710 781 656 781 c 256
 600 781 557 825 571 882 c 256
317 882 m 256
 330 935 388 975 442 975 c 256
 498 975 541 931 527 874 c 256
 514 821 456 781 402 781 c 256
 346 781 303 825 317 882 c 256
EndSplineSet
EndChar

StartChar: uni0403
Encoding: 1027 1027 383
Width: 517
VWidth: 0
Flags: HW
LayerCount: 2
Fore
SplineSet
255 700 m 257
 699 700 l 257
 631 505 l 257
 406 505 l 257
 233 0 l 257
 15 0 l 257
 255 700 l 257
728 920 m 257
 519 781 l 257
 413 841 l 257
 598 989 l 257
 728 920 l 257
EndSplineSet
EndChar

StartChar: uni040C
Encoding: 1036 1036 384
Width: 531
VWidth: 0
Flags: HW
LayerCount: 2
Fore
SplineSet
245 700 m 257
 473 700 l 257
 233 0 l 257
 5 0 l 257
 245 700 l 257
654 699 m 257
 926 699 l 257
 539 358 l 257
 678 0 l 257
 442 0 l 257
 294 380 l 257
 654 699 l 257
751 900 m 257
 543 761 l 257
 437 821 l 257
 622 969 l 257
 751 900 l 257
EndSplineSet
EndChar

StartChar: uni040D
Encoding: 1037 1037 385
Width: 757
VWidth: 0
Flags: HW
LayerCount: 2
Fore
SplineSet
797 466 m 257
 -15 -56 l 261
 91 234 l 257
 904 757 l 257
 797 466 l 257
454 700 m 257
 268 154 l 257
 -15 -56 l 257
 245 700 l 257
 454 700 l 257
904 757 m 257
 642 0 l 257
 433 0 l 257
 617 536 l 257
 904 757 l 257
492 924 m 257
 630 977 l 257
 724 805 l 257
 620 764 l 257
 492 924 l 257
EndSplineSet
EndChar

StartChar: uni040E
Encoding: 1038 1038 386
Width: 592
VWidth: 0
Flags: HW
LayerCount: 2
Fore
SplineSet
804 699 m 257
 255 0 l 257
 33 0 l 257
 213 233 l 257
 173 700 l 257
 387 700 l 257
 377 315 l 257
 285 316 l 257
 578 699 l 257
 804 699 l 257
394 931 m 257
 501 929 l 257
 503 910 500 886 525 882 c 256
 554 877 579 910 595 929 c 257
 717 927 l 257
 686 842 619 781 525 780 c 256
 430 779 386 842 394 931 c 257
EndSplineSet
EndChar

StartChar: uni0410
Encoding: 1040 1040 387
Width: 733
VWidth: 0
Flags: HW
LayerCount: 2
Fore
SplineSet
165 90 m 257
 220 248 l 257
 580 248 l 257
 524 90 l 257
 165 90 l 257
454 384 m 257
 304 187 l 257
 304 136 l 257
 188 0 l 257
 -72 0 l 257
 565 759 l 257
 681 0 l 257
 452 0 l 257
 424 134 l 257
 459 189 l 257
 454 384 l 257
EndSplineSet
EndChar

StartChar: uni0411
Encoding: 1041 1041 388
Width: 703
VWidth: 0
Flags: HW
LayerCount: 2
Fore
SplineSet
163 276 m 257
 213 445 l 257
 522 445 l 258
 644 445 726 347 693 224 c 256
 659 97 535 0 406 0 c 258
 59 0 l 257
 120 175 l 257
 386 175 l 258
 423 175 458 189 475 227 c 256
 490 260 465 274 436 274 c 262
 163 276 l 257
255 700 m 257
 807 700 l 257
 746 525 l 257
 418 525 l 257
 238 0 l 257
 15 0 l 257
 255 700 l 257
EndSplineSet
EndChar

StartChar: uni0412
Encoding: 1042 1042 389
Width: 686
VWidth: 0
Flags: HW
LayerCount: 2
Fore
SplineSet
274 335 m 257
 308 424 l 257
 403 425 l 258
 442 425 490 446 505 485 c 256
 518 519 499 534 468 535 c 258
 415 536 l 257
 277 163 l 257
 334 164 l 258
 379 166 440 179 457 229 c 256
 471 272 435 277 402 279 c 258
 255 281 l 257
 299 400 l 257
 439 400 l 258
 559 397 703 336 666 191 c 256
 629 43 473 2 339 0 c 258
 8 0 l 257
 248 700 l 257
 522 700 l 258
 627 697 774 654 740 519 c 256
 707 387 555 338 434 335 c 258
 274 335 l 257
EndSplineSet
EndChar

StartChar: uni0413
Encoding: 1043 1043 390
Width: 517
VWidth: 0
Flags: HW
LayerCount: 2
Fore
SplineSet
255 700 m 257
 699 700 l 257
 631 505 l 257
 406 505 l 257
 233 0 l 257
 15 0 l 257
 255 700 l 257
EndSplineSet
EndChar

StartChar: uni0414
Encoding: 1044 1044 391
Width: 879
VWidth: 0
Flags: HW
LayerCount: 2
Fore
SplineSet
508 346 m 257
 296 31 l 257
 27 31 l 257
 630 744 l 257
 743 30 l 257
 502 30 l 257
 508 346 l 257
567 0 m 257
 202 0 l 257
 162 -110 l 257
 -61 -110 l 257
 42 185 l 257
 853 185 l 257
 750 -110 l 257
 527 -110 l 257
 567 0 l 257
EndSplineSet
EndChar

StartChar: uni0415
Encoding: 1045 1045 392
Width: 602
VWidth: 0
Flags: HW
LayerCount: 2
Fore
SplineSet
151 0 m 257
 212 175 l 257
 556 175 l 257
 495 0 l 257
 151 0 l 257
330 525 m 257
 392 700 l 257
 735 700 l 257
 674 525 l 257
 330 525 l 257
245 275 m 257
 305 445 l 257
 630 445 l 257
 570 275 l 257
 245 275 l 257
248 700 m 257
 457 700 l 257
 217 0 l 257
 8 0 l 257
 248 700 l 257
EndSplineSet
EndChar

StartChar: uni0416
Encoding: 1046 1046 393
Width: 1129
VWidth: 0
Flags: HW
LayerCount: 2
Fore
SplineSet
426 700 m 257
 585 355 l 257
 196 0 l 257
 -74 0 l 257
 350 386 l 257
 202 700 l 257
 426 700 l 257
636 700 m 257
 864 700 l 257
 624 0 l 257
 396 0 l 257
 636 700 l 257
1040 699 m 257
 1320 699 l 257
 924 358 l 257
 1072 0 l 257
 837 0 l 257
 688 385 l 257
 1040 699 l 257
EndSplineSet
EndChar

StartChar: uni0417
Encoding: 1047 1047 394
Width: 664
VWidth: 0
Flags: HW
LayerCount: 2
Fore
SplineSet
355 334 m 261
 377 423 l 257
 427 427 519 435 537 494 c 256
 547 528 522 542 492 544 c 256
 441 547 404 516 377 476 c 257
 176 478 l 257
 224 630 362 714 518 715 c 256
 635 716 792 662 753 515 c 256
 709 351 493 336 355 334 c 261
313 -20 m 256
 149 -19 32 74 58 245 c 257
 262 243 l 257
 257 189 267 154 327 151 c 256
 376 148 436 169 458 217 c 256
 491 290 391 292 345 295 c 257
 371 398 l 257
 494 396 706 367 662 194 c 256
 624 42 455 -20 313 -20 c 256
EndSplineSet
EndChar

StartChar: uni0418
Encoding: 1048 1048 395
Width: 757
VWidth: 0
Flags: HW
LayerCount: 2
Fore
SplineSet
797 466 m 257
 -15 -56 l 257
 91 234 l 257
 904 757 l 257
 797 466 l 257
454 700 m 257
 268 154 l 257
 -15 -56 l 257
 245 700 l 257
 454 700 l 257
904 757 m 257
 642 0 l 257
 433 0 l 257
 617 536 l 257
 904 757 l 257
EndSplineSet
EndChar

StartChar: uni0419
Encoding: 1049 1049 396
Width: 757
VWidth: 0
Flags: HW
LayerCount: 2
Fore
SplineSet
797 466 m 257
 -15 -56 l 257
 91 234 l 257
 904 757 l 257
 797 466 l 257
454 700 m 257
 268 154 l 257
 -15 -56 l 257
 245 700 l 257
 454 700 l 257
904 757 m 257
 642 0 l 257
 433 0 l 257
 617 536 l 257
 904 757 l 257
476 936.01171875 m 261
 583 936.01171875 l 261
 586 915.01171875 585 891.01171875 612 887.01171875 c 260
 641 883.01171875 664 916.01171875 679 935.01171875 c 261
 796 934.01171875 l 261
 763 850.01171875 697 788.01171875 602 787.01171875 c 260
 508 786.01171875 467 848.01171875 476 936.01171875 c 261
EndSplineSet
EndChar

StartChar: uni041A
Encoding: 1050 1050 397
Width: 739
VWidth: 0
Flags: HW
LayerCount: 2
Fore
SplineSet
245 700 m 257
 473 700 l 257
 233 0 l 257
 5 0 l 257
 245 700 l 257
654 699 m 257
 926 699 l 257
 539 358 l 257
 678 0 l 257
 442 0 l 257
 294 380 l 257
 654 699 l 257
EndSplineSet
EndChar

StartChar: uni041B
Encoding: 1051 1051 398
Width: 788
VWidth: 0
Flags: HW
LayerCount: 2
Fore
SplineSet
904 700 m 257
 664 0 l 257
 441 0 l 257
 615 505 l 257
 452 505 l 257
 393 330 l 258
 321 119 183 10 -41 1 c 257
 8 184 l 257
 79 197 129 236 157 303 c 257
 295 700 l 257
 904 700 l 257
EndSplineSet
EndChar

StartChar: uni041C
Encoding: 1052 1052 399
Width: 885
VWidth: 0
Flags: HW
LayerCount: 2
Fore
SplineSet
335 284 m 257
 202 0 l 257
 -35 0 l 257
 340 736 l 257
 500 362 l 257
 938 753 l 257
 804 0 l 257
 577 0 l 257
 638 263 l 257
 418 60 l 257
 335 284 l 257
EndSplineSet
EndChar

StartChar: uni041D
Encoding: 1053 1053 400
Width: 782
VWidth: 0
Flags: HW
LayerCount: 2
Fore
SplineSet
140 265 m 257
 208 460 l 257
 746 460 l 257
 678 265 l 257
 140 265 l 257
688 700 m 257
 906 700 l 257
 666 0 l 257
 448 0 l 257
 688 700 l 257
245 700 m 257
 464 700 l 257
 224 0 l 257
 5 0 l 257
 245 700 l 257
EndSplineSet
EndChar

StartChar: uni041E
Encoding: 1054 1054 401
Width: 789
VWidth: 0
Flags: HW
LayerCount: 2
Fore
SplineSet
317 350 m 256
 288 280 288 182 385 179 c 256
 484 176 568 265 604 350 c 256
 634 421 634 518 536 521 c 256
 437 524 352 435 317 350 c 256
88 350 m 256
 149 555 351 720 568 720 c 256
 777 720 889 545 832 350 c 256
 771 142 570 -30 349 -30 c 256
 136 -30 30 155 88 350 c 256
EndSplineSet
EndChar

StartChar: uni041F
Encoding: 1055 1055 402
Width: 757
VWidth: 0
Flags: HW
LayerCount: 2
Fore
SplineSet
584 505 m 257
 411 505 l 257
 238 0 l 257
 15 0 l 257
 255 700 l 257
 873 700 l 257
 633 0 l 257
 410 0 l 257
 584 505 l 257
EndSplineSet
EndChar

StartChar: uni0420
Encoding: 1056 1056 403
Width: 638
VWidth: 0
Flags: HW
LayerCount: 2
Fore
SplineSet
248 700 m 257
 467 700 l 257
 227 0 l 257
 8 0 l 257
 248 700 l 257
327 526 m 257
 382 700 l 257
 494 700 l 258
 640 696 755 617 711 459 c 256
 667 301 523 224 367 220 c 258
 217 220 l 257
 279 394 l 257
 392 395 l 258
 436 395 488 418 506 462 c 256
 521 500 502 523 465 524 c 258
 327 526 l 257
EndSplineSet
EndChar

StartChar: uni0421
Encoding: 1057 1057 404
Width: 667
VWidth: 0
Flags: HW
LayerCount: 2
Fore
SplineSet
325 350 m 256
 290 268 322 192 417 189 c 256
 499 187 576 232 644 272 c 257
 584 47 l 257
 517 7 445 -20 367 -20 c 256
 154 -21 28 146 88 350 c 256
 151 564 359 721 583 720 c 256
 657 720 718 695 778 652 c 257
 715 426 l 257
 677 480 631 512 563 512 c 256
 462 511 364 443 325 350 c 256
EndSplineSet
EndChar

StartChar: uni0422
Encoding: 1058 1058 405
Width: 588
VWidth: 0
Flags: HW
LayerCount: 2
Fore
SplineSet
114 505 m 257
 182 700 l 257
 777 700 l 257
 708 505 l 257
 521 505 l 257
 348 0 l 257
 130 0 l 257
 303 505 l 257
 114 505 l 257
EndSplineSet
EndChar

StartChar: uni0423
Encoding: 1059 1059 406
Width: 611
VWidth: 0
Flags: HW
LayerCount: 2
Fore
SplineSet
823 699 m 257
 274 0 l 257
 42 0 l 257
 222 233 l 257
 173 700 l 257
 396 700 l 257
 386 315 l 257
 295 316 l 257
 587 699 l 257
 823 699 l 257
EndSplineSet
EndChar

StartChar: uni0424
Encoding: 1060 1060 407
Width: 962
VWidth: 0
Flags: HW
LayerCount: 2
Fore
SplineSet
555 700 m 257
 778 700 l 257
 538 0 l 257
 315 0 l 257
 555 700 l 257
776 351 m 256
 810 426 734 433 678 434 c 258
 507 435 l 258
 435 434 350 424 317 349 c 256
 283 274 359 267 415 266 c 258
 586 265 l 258
 658 266 743 276 776 351 c 256
995 349 m 256
 948 180 773 80 606 80 c 258
 340 80 l 258
 187 80 52 185 98 351 c 256
 145 520 320 620 487 620 c 258
 753 620 l 258
 906 620 1041 515 995 349 c 256
EndSplineSet
EndChar

StartChar: uni0425
Encoding: 1061 1061 408
Width: 814
VWidth: 0
Flags: HW
LayerCount: 2
Fore
SplineSet
646 699 m 257
 931 699 l 257
 583 339 l 257
 686 0 l 257
 436 0 l 257
 406 186 l 257
 243 0 l 257
 -43 0 l 257
 328 369 l 257
 239 700 l 257
 490 700 l 257
 510 542 l 257
 646 699 l 257
EndSplineSet
EndChar

StartChar: uni0426
Encoding: 1062 1062 409
Width: 865
VWidth: 0
Flags: HW
LayerCount: 2
Fore
SplineSet
295 195 m 257
 514 195 l 257
 688 700 l 257
 911 700 l 257
 738 195 l 257
 856 195 l 257
 737 -150 l 257
 523 -150 l 257
 576 0 l 257
 5 0 l 257
 245 700 l 257
 469 700 l 257
 295 195 l 257
EndSplineSet
EndChar

